SplineFontDB: 3.0
FontName: GeneraleMonoC
FullName: GeneraleMonoC
FamilyName: GeneraleMono
Weight: Regular
Copyright: Generale Mono is released under the SIL Open Font Licence v1.1 - 2017. \nOriginal font created by Ariel Martin Perez
UComments: "[EN]+AAoACgAA-Hey! you found the comment section!+AAoACgAA-Please tell me if ever you use G+AOkA-n+AOkA-rale Mono in any of your projects, if you're making a fork, if you've found errors in it, or what do you think of it.+AAoA-Here's my mail: contact@arielgraphisme.com+AAoA-And my website: www.arielgraphisme.com+AAoACgAA-I hope you enjoy G+AOkA-n+AOkA-rale Mono,+AAoACgAA-Ariel+AAoACgAA[FR]+AAoACgAA-Hey ! Tu as trouv+AOkA la section de commentaires !+AAoACgAA-S'il te plait, dis-moi si jamais tu utilises G+AOkA-n+AOkA-rale Mono dans l'un de tes projets, si tu penses cr+AOkA-er une variation, si tu as trouv+AOkA des erreurs dans le fichier ou ce que tu penses de cette fonte.+AAoACgAA-Voici mon courriel: contact@arielgraphisme.com+AAoA-Et mon site web: www.arielgraphisme.com+AAoACgAA-J'esp+AOgA-re que tu aimes G+AOkA-n+AOkA-rale Mono,+AAoACgAA-Ariel+AAoACgAA[ES]+AAoACgCh-Hey! +AKEA-Encontraste la secci+APMA-n de comentarios!+AAoACgAA-Por favor, dime si utilizas G+AOkA-n+AOkA-rale Mono en alguno de tus proyectos, si quieres crear una variaci+APMA-n, si has encontrado errores en la fuente o qu+AOkA te parece.+AAoACgAA-Aqu+AO0A tienes mi correo: contact@arielgraphisme.com+AAoA-Y mi p+AOEA-gina web: www.arielgraphisme.com+AAoACgAA-Espero que te guste G+AOkA-n+AOkA-rale Mono,+AAoACgAA-Ariel+AAoACgAA-2017-11-14: Created with FontForge (http://fontforge.org)"
Version: 001.500
ItalicAngle: 0
UnderlinePosition: -100
UnderlineWidth: 50
Ascent: 800
Descent: 200
InvalidEm: 0
LayerCount: 2
Layer: 0 0 "Back" 1
Layer: 1 0 "Fore" 0
XUID: [1021 434 -1460188140 3818975]
FSType: 0
OS2Version: 0
OS2_WeightWidthSlopeOnly: 0
OS2_UseTypoMetrics: 1
CreationTime: 1510095805
ModificationTime: 1528395361
PfmFamily: 17
TTFWeight: 400
TTFWidth: 5

StartChar: h
Encoding: 72 104 0
Width: 666
VWidth: 0
Flags: W
HStem: 0 21G<66.2998 199.6 466.3 599.7> 780 20G<66.2998 199.6 466.3 599.7>
VStem: 66.2998 133.3<0 288.9 422.2 800> 466.3 133.4<0 377.8 511.1 800>
LayerCount: 2
Back
Fore
SplineSet
466.299804688 511.099609375 m 1
 466.299804688 800 l 1
 599.700195312 800 l 1
 599.700195312 0 l 1
 466.299804688 0 l 1
 466.299804688 377.799804688 l 1
 199.599609375 288.900390625 l 1
 199.599609375 0 l 1
 66.2998046875 0 l 1
 66.2998046875 800 l 1
 199.599609375 800 l 1
 199.599609375 422.200195312 l 1
 466.299804688 511.099609375 l 1
EndSplineSet
Validated: 1
EndChar

StartChar: exclam
Encoding: 1 33 2
Width: 666
VWidth: 0
Flags: W
HStem: -0.0996094 200.1<253.825 412.237> 780 20G<266.3 399.6> 780 20G<266.3 399.6>
VStem: 233 200.1<20.7626 179.137> 266.3 133.3<333.3 800>
LayerCount: 2
Back
Fore
SplineSet
399.599609375 333.299804688 m 1xc8
 366.299804688 266.700195312 l 1
 299.599609375 266.700195312 l 1
 266.299804688 333.299804688 l 1
 266.299804688 800 l 1
 399.599609375 800 l 1
 399.599609375 333.299804688 l 1xc8
233 133.299804688 m 2x90
 233 166.700195312 266.299804688 200 299.700195312 200 c 2
 366.400390625 200 l 2
 399.799804688 200 433.099609375 166.599609375 433.099609375 133.299804688 c 2
 433.099609375 66.599609375 l 2
 433.099609375 33.2001953125 399.700195312 -0.099609375 366.400390625 -0.099609375 c 2
 299.700195312 -0.099609375 l 2
 266.299804688 -0.099609375 233 33.2998046875 233 66.599609375 c 2
 233 133.299804688 l 2x90
EndSplineSet
Validated: 1
EndChar

StartChar: quotedbl
Encoding: 2 34 3
Width: 666
VWidth: 0
Flags: W
HStem: 533.3 266.7<169 235.7 435.6 502.3>
VStem: 102.4 199.899<614.55 779.137> 369 199.9<614.55 779.137>
LayerCount: 2
Back
Fore
SplineSet
302.5 733.299804688 m 1
 302.299804688 733.299804688 l 1
 302.299804688 666.599609375 l 2
 302.299804688 655 298.299804688 643.5 291.599609375 633.299804688 c 2
 235.700195312 533.299804688 l 1
 169 533.299804688 l 1
 113.099609375 633.299804688 l 2
 106.5 643.5 102.400390625 655 102.400390625 666.599609375 c 2
 102.400390625 733.299804688 l 2
 102.400390625 766.700195312 135.799804688 800 169.099609375 800 c 2
 235.799804688 800 l 2
 269.200195312 800 302.5 766.599609375 302.5 733.299804688 c 1
569.099609375 733.299804688 m 1
 568.900390625 733.299804688 l 1
 568.900390625 666.599609375 l 2
 568.900390625 655 564.900390625 643.5 558.200195312 633.299804688 c 2
 502.299804688 533.299804688 l 1
 435.599609375 533.299804688 l 1
 379.700195312 633.299804688 l 2
 373.099609375 643.5 369 655 369 666.599609375 c 2
 369 733.299804688 l 2
 369 766.700195312 402.400390625 800 435.700195312 800 c 2
 502.400390625 800 l 2
 535.799804688 800 569.099609375 766.599609375 569.099609375 733.299804688 c 1
EndSplineSet
Validated: 1
EndChar

StartChar: numbersign
Encoding: 3 35 4
Width: 666
VWidth: 0
Flags: W
HStem: 200.1 133.301<66.7002 133.5 266.7 400 533.3 600.1> 466.7 133.3<66.7002 133.5 266.7 400 533.3 600.1>
VStem: 133.5 133.2<133.3 200.1 333.4 466.7 600 666.8> 400.1 133.2<133.3 200.1 333.4 466.7 600 666.8>
LayerCount: 2
Back
Fore
SplineSet
266.700195312 333.400390625 m 1
 400.099609375 333.400390625 l 1
 400 466.700195312 l 1
 266.700195312 466.700195312 l 1
 266.700195312 333.400390625 l 1
600.099609375 466.700195312 m 1
 533.299804688 466.700195312 l 1
 533.299804688 333.400390625 l 1
 600.099609375 333.400390625 l 1
 600.099609375 200.099609375 l 1
 533.299804688 200.099609375 l 1
 533.299804688 133.299804688 l 1
 400 133.299804688 l 1
 400 200.099609375 l 1
 266.700195312 200.099609375 l 1
 266.700195312 133.299804688 l 1
 133.5 133.299804688 l 1
 133.5 200.099609375 l 1
 66.7001953125 200.099609375 l 1
 66.7001953125 333.400390625 l 1
 133.5 333.400390625 l 1
 133.5 466.700195312 l 1
 66.7001953125 466.700195312 l 1
 66.7001953125 600 l 1
 133.5 600 l 1
 133.5 666.799804688 l 1
 266.700195312 666.799804688 l 1
 266.700195312 600 l 1
 400.099609375 600 l 1
 400.099609375 666.799804688 l 1
 533.299804688 666.799804688 l 1
 533.299804688 600 l 1
 600.099609375 600 l 1
 600.099609375 466.700195312 l 1
EndSplineSet
Validated: 1
EndChar

StartChar: dollar
Encoding: 4 36 5
Width: 666
VWidth: 0
Flags: W
HStem: 0 21G<266.2 399.5> 780 20G<266.3 399.8>
VStem: 266.3 133.2<0 66.7002 200.6 333.6 467.5 598.9 733.3 800>
LayerCount: 2
Back
Fore
SplineSet
599.700195312 500 m 1
 466.299804688 500 l 1
 466.299804688 533.299804688 l 1
 465.700195312 533.299804688 l 1
 400.099609375 600 l 1
 399.5 600 l 1
 399.5 467.5 l 1
 417.200195312 467.599609375 430.299804688 467.700195312 432.799804688 467.700195312 c 0
 469.400390625 467.700195312 488.299804688 445.5 502.200195312 431.599609375 c 0
 513.299804688 419.900390625 551.599609375 381.599609375 563.299804688 370.5 c 0
 577.200195312 356.700195312 599.400390625 337.799804688 599.400390625 301.099609375 c 0
 599.400390625 291.599609375 599.400390625 242.700195312 599.400390625 233.299804688 c 0
 599.400390625 196.700195312 577.200195312 177.799804688 563.299804688 163.900390625 c 0
 551.599609375 152.799804688 513.299804688 114.5 502.200195312 102.799804688 c 0
 488.400390625 88.900390625 469.5 66.7001953125 432.799804688 66.7001953125 c 0
 430.5 66.7001953125 417.599609375 66.7001953125 399.5 66.7001953125 c 1
 399.5 0 l 1
 266.200195312 0 l 1
 266.200195312 66.7001953125 l 1
 248.099609375 66.7001953125 235.200195312 66.7001953125 232.900390625 66.7001953125 c 0
 196.299804688 66.7001953125 177.400390625 88.900390625 163.5 102.799804688 c 0
 152.400390625 114.5 114.099609375 152.799804688 102.400390625 163.900390625 c 0
 88.5 177.700195312 66.2998046875 196.599609375 66.2998046875 233.299804688 c 0
 66.2998046875 242.799804688 66.2998046875 300 66.2998046875 300 c 1
 199.599609375 300 l 1
 199.599609375 266.200195312 l 1
 266.299804688 200.599609375 l 1
 266.299804688 333.599609375 l 1
 248.799804688 333.5 236 333.400390625 233.5 333.400390625 c 0
 196.900390625 333.400390625 178 355.599609375 164.099609375 369.5 c 0
 153 381.200195312 114.700195312 419.5 103 430.599609375 c 0
 89.099609375 444.400390625 66.900390625 463.299804688 66.900390625 500 c 0
 66.900390625 509.5 66.900390625 557.299804688 66.900390625 566.700195312 c 0
 66.900390625 603.299804688 89.099609375 622.200195312 103 636.099609375 c 0
 114.700195312 647.200195312 153 685.5 164.099609375 697.200195312 c 0
 177.900390625 711.099609375 196.799804688 733.299804688 233.5 733.299804688 c 0
 235.799804688 733.299804688 248.5 733.299804688 266.299804688 733.299804688 c 1
 266.299804688 800 l 1
 399.799804688 800 l 1
 399.799804688 733.299804688 l 1
 417.900390625 733.299804688 430.799804688 733.299804688 433.099609375 733.299804688 c 0
 469.700195312 733.299804688 488.599609375 711.099609375 502.5 697.200195312 c 0
 513.599609375 685.5 551.900390625 647.200195312 563.599609375 636.099609375 c 0
 577.5 622.299804688 599.700195312 603.400390625 599.700195312 566.700195312 c 0
 599.700195312 557.200195312 599.700195312 500 599.700195312 500 c 1
466.299804688 266.599609375 m 1
 399.5 333.900390625 l 1
 399.5 200 l 1
 465.700195312 266.599609375 l 1
 466.299804688 266.599609375 l 1
199.599609375 533.299804688 m 1
 266.299804688 466.700195312 l 1
 266.299804688 598.900390625 l 1
 200.200195312 533.299804688 l 1
 199.599609375 533.299804688 l 1
EndSplineSet
Validated: 1
EndChar

StartChar: percent
Encoding: 5 37 6
Width: 666
VWidth: 0
Flags: W
HStem: 0 133.3<399.9 466.6> 200 133.3<399.9 466.6> 466.7 133.3<199.9 266.6> 666.7 133.3<199.9 266.6>
VStem: 66.5996 133.301<600 666.7> 266.6 133.301<133.3 200 600 666.7> 466.6 133.301<133.3 200>
CounterMasks: 1 0e
LayerCount: 2
Back
Fore
SplineSet
66.599609375 333.299804688 m 1
 599.900390625 533.299804688 l 1
 599.900390625 466.700195312 l 1
 66.599609375 266.700195312 l 1
 66.599609375 333.299804688 l 1
466.599609375 133.299804688 m 1
 466.599609375 200 l 1
 399.900390625 200 l 1
 399.900390625 133.299804688 l 1
 466.599609375 133.299804688 l 1
499.900390625 333.299804688 m 2
 549.900390625 333.299804688 599.900390625 283.299804688 599.900390625 233.299804688 c 2
 599.900390625 100 l 2
 599.900390625 50 549.900390625 0 499.900390625 0 c 2
 366.599609375 0 l 2
 316.599609375 0 266.599609375 50 266.599609375 100 c 2
 266.599609375 233.299804688 l 2
 266.599609375 283.299804688 316.599609375 333.299804688 366.599609375 333.299804688 c 2
 499.900390625 333.299804688 l 2
199.900390625 666.700195312 m 1
 199.900390625 600 l 1
 266.599609375 600 l 1
 266.599609375 666.700195312 l 1
 199.900390625 666.700195312 l 1
166.599609375 466.700195312 m 2
 116.599609375 466.700195312 66.599609375 516.700195312 66.599609375 566.700195312 c 2
 66.599609375 700 l 2
 66.599609375 750 116.599609375 800 166.599609375 800 c 2
 300 800 l 2
 350 800 400 750 400 700 c 2
 400 566.700195312 l 2
 400 516.700195312 350 466.700195312 300 466.700195312 c 2
 166.599609375 466.700195312 l 2
EndSplineSet
Validated: 1
EndChar

StartChar: ampersand
Encoding: 6 38 7
Width: 666
VWidth: 0
Flags: HMW
LayerCount: 2
Back
Fore
SplineSet
533 133 m 1
 600 133 l 1
 600 0 l 1
 600 0 242 0 233 0 c 0
 196 0 177 22 164 36 c 0
 152 48 114 86 102 97 c 0
 88 111 66 130 66 167 c 0
 66 176 66 357 66 367 c 0
 66 403 88 422 102 436 c 0
 114 447 150 483 162 496 c 1
 66 667 l 1
 66 800 l 1
 600 800 l 1
 600 600 l 1
 466 600 l 1
 466 667 l 1
 233 667 l 1
 533 133 l 1
266 133 m 1
 366 133 l 1
 234 368 l 1
 200 333 l 1
 200 200 l 1
 266 133 l 1
EndSplineSet
Validated: 1
EndChar

StartChar: quotesingle
Encoding: 7 39 8
Width: 666
VWidth: 0
Flags: W
HStem: 533.3 266.7 780 20G<233 433>
VStem: 233 200<466.6 533.3>
LayerCount: 2
Back
Fore
SplineSet
233 800 m 1x60
 433 800 l 1x60
 433 733.299804688 l 1
 233 533.299804688 l 1xa0
 233 800 l 1x60
EndSplineSet
Validated: 1
EndChar

StartChar: parenleft
Encoding: 8 40 9
Width: 666
VWidth: 0
Flags: W
HStem: 0 133.3<366.3 433> 666.7 133.3<366.3 433>
VStem: 233 200<42.4149 133.3 666.7 757.585>
LayerCount: 2
Back
Fore
SplineSet
433 666.700195312 m 1
 366.299804688 666.700195312 l 1
 366.299804688 133.299804688 l 1
 433 133.299804688 l 1
 433 0 l 1
 333 0 l 2
 283 0 233 50 233 100 c 2
 233 700 l 2
 233 750 283 800 333 800 c 2
 433 800 l 1
 433 666.700195312 l 1
EndSplineSet
Validated: 1
EndChar

StartChar: parenright
Encoding: 9 41 10
Width: 666
VWidth: 0
Flags: W
HStem: 0 133.3<233 299.7> 666.7 133.3<233 299.7>
VStem: 233 200<42.4149 133.3 666.7 757.585>
LayerCount: 2
Back
Fore
SplineSet
233 666.700195312 m 1
 233 800 l 1
 333 800 l 2
 383 800 433 750 433 700 c 2
 433 100 l 2
 433 50 383 0 333 0 c 2
 233 0 l 1
 233 133.299804688 l 1
 299.700195312 133.299804688 l 1
 299.700195312 666.700195312 l 1
 233 666.700195312 l 1
EndSplineSet
Validated: 1
EndChar

StartChar: asterisk
Encoding: 10 42 11
Width: 666
VWidth: 0
Flags: W
HStem: 780 20G<233 433> 780 20G<233 433>
LayerCount: 2
Back
Fore
SplineSet
533 600 m 1x80
 466.299804688 566.700195312 l 1
 533 500 l 1
 433 400 l 1
 333 500 l 1
 233 400 l 1
 133 500 l 1
 199.599609375 566.700195312 l 1
 133 600 l 1
 166.299804688 733.299804688 l 1
 266.299804688 700 l 1
 233 800 l 1
 433 800 l 1
 399.599609375 700 l 1
 499.599609375 733.299804688 l 1
 533 600 l 1x80
EndSplineSet
Validated: 1
EndChar

StartChar: plus
Encoding: 11 43 12
Width: 666
VWidth: 0
Flags: W
HStem: 333.3 133.4<66.4004 266.4 399.7 599.7>
VStem: 266.4 133.3<133.3 333.3 466.7 666.7>
LayerCount: 2
Back
Fore
SplineSet
599.700195312 466.700195312 m 1
 599.700195312 333.299804688 l 1
 399.700195312 333.299804688 l 1
 399.700195312 133.299804688 l 1
 266.400390625 133.299804688 l 1
 266.400390625 333.299804688 l 1
 66.400390625 333.299804688 l 1
 66.400390625 466.700195312 l 1
 266.400390625 466.700195312 l 1
 266.400390625 666.700195312 l 1
 399.700195312 666.700195312 l 1
 399.700195312 466.700195312 l 1
 599.700195312 466.700195312 l 1
EndSplineSet
Validated: 1
EndChar

StartChar: comma
Encoding: 12 44 13
Width: 666
VWidth: 0
Flags: W
HStem: 0 200<299.8 333.1>
VStem: 199.8 233.3
LayerCount: 2
Back
Fore
SplineSet
199.799804688 0 m 1
 299.799804688 200 l 1
 433.099609375 200 l 1
 333.099609375 0 l 1
 199.799804688 0 l 1
EndSplineSet
Validated: 524289
EndChar

StartChar: hyphen
Encoding: 13 45 14
Width: 666
VWidth: 0
Flags: W
HStem: 333.4 133.3<133 533>
LayerCount: 2
Back
Fore
SplineSet
133 333.400390625 m 1
 133 466.700195312 l 1
 533 466.700195312 l 1
 533 333.400390625 l 1
 133 333.400390625 l 1
EndSplineSet
Validated: 1
EndChar

StartChar: period
Encoding: 14 46 15
Width: 666
VWidth: 0
Flags: W
HStem: -0.0996094 200.1<253.825 412.237>
VStem: 233 200.1<20.7626 179.137>
LayerCount: 2
Back
Fore
SplineSet
233 133.299804688 m 2
 233 166.700195312 266.299804688 200 299.700195312 200 c 2
 366.400390625 200 l 2
 399.799804688 200 433.099609375 166.599609375 433.099609375 133.299804688 c 2
 433.099609375 66.599609375 l 2
 433.099609375 33.2001953125 399.700195312 -0.099609375 366.400390625 -0.099609375 c 2
 299.700195312 -0.099609375 l 2
 266.299804688 -0.099609375 233 33.2998046875 233 66.599609375 c 2
 233 133.299804688 l 2
EndSplineSet
Validated: 1
EndChar

StartChar: slash
Encoding: 15 47 16
Width: 666
VWidth: 0
Flags: W
HStem: 0 21G<133 272.967> 0 21G<133 272.967> 780 20G<393.033 533> 780 20G<393.033 533>
LayerCount: 2
Back
Fore
SplineSet
133 0 m 1xa0
 399.700195312 800 l 1
 533 800 l 1
 266.299804688 0 l 1
 133 0 l 1xa0
EndSplineSet
Validated: 1
EndChar

StartChar: zero
Encoding: 16 48 17
Width: 666
VWidth: 0
Flags: W
HStem: 0 133.3<199.6 466.3> 666.7 133.3<199.6 466.3>
VStem: 66.2998 133.3<133.3 288.8 422.2 666.7> 466.3 133.4<133.3 377.7 511.1 666.7>
LayerCount: 2
Back
Fore
SplineSet
66.2998046875 99.2998046875 m 1
 66.2998046875 700 l 2
 66.2998046875 750 116.299804688 800 166.299804688 800 c 2
 499.700195312 800 l 2
 549.700195312 800 599.700195312 750 599.700195312 700 c 2
 599.700195312 100 l 2
 599.700195312 50 549.700195312 0 499.700195312 0 c 2
 166.400390625 0 l 2
 116.599609375 0 66.7001953125 49.5 66.2998046875 99.2998046875 c 1
199.599609375 666.700195312 m 1
 199.599609375 422.200195312 l 1
 466.299804688 511.099609375 l 1
 466.299804688 666.700195312 l 1
 199.599609375 666.700195312 l 1
466.299804688 377.700195312 m 1
 199.599609375 288.799804688 l 1
 199.599609375 133.299804688 l 1
 466.299804688 133.299804688 l 1
 466.299804688 377.700195312 l 1
EndSplineSet
Validated: 1
EndChar

StartChar: one
Encoding: 17 49 18
Width: 666
VWidth: 0
Flags: W
HStem: 0 133.3<66.2998 266.3 399.7 599.7> 780 20G<339.599 399.603>
VStem: 266.3 133.4<133.3 622.2>
LayerCount: 2
Back
Fore
SplineSet
399.599609375 800 m 1
 399.700195312 133.299804688 l 1
 599.700195312 133.299804688 l 1
 599.700195312 0 l 1
 66.2998046875 0 l 1
 66.2998046875 133.299804688 l 1
 266.299804688 133.299804688 l 1
 266.299804688 622.200195312 l 1
 66.2998046875 555.599609375 l 1
 66.2998046875 688.900390625 l 1
 399.599609375 800 l 1
EndSplineSet
Validated: 1
EndChar

StartChar: two
Encoding: 18 50 19
Width: 666
VWidth: 0
Flags: W
HStem: 0 133.4<199.6 466.3> 666.6 133.4<199.6 466.3>
VStem: 66.2998 133.3<133.4 289.2 577.7 666.6> 466.3 133.3<133.4 222.3 511.4 666.6>
LayerCount: 2
Back
Fore
SplineSet
599.599609375 266.700195312 m 1
 599.599609375 0 l 1
 66.2998046875 0 l 1
 66.2998046875 300.299804688 l 2
 66.2998046875 350.299804688 100.099609375 387.099609375 133 400.299804688 c 2
 466.299804688 511.400390625 l 1
 466.299804688 666.599609375 l 1
 199.599609375 666.599609375 l 1
 199.599609375 577.700195312 l 1
 66.2998046875 533.299804688 l 1
 66.2998046875 700.299804688 l 2
 66.5 750.200195312 116.400390625 800 166.299804688 800 c 2
 499.599609375 800 l 2
 549.5 800 599.400390625 750.200195312 599.700195312 700.299804688 c 2
 599.700195312 500.299804688 l 2
 599.700195312 450.299804688 565.900390625 413.5 533 400.299804688 c 2
 199.599609375 289.200195312 l 1
 199.599609375 133.400390625 l 1
 466.299804688 133.400390625 l 1
 466.299804688 222.299804688 l 1
 599.599609375 266.700195312 l 1
EndSplineSet
Validated: 1
EndChar

StartChar: three
Encoding: 19 51 20
Width: 666
VWidth: 0
Flags: W
HStem: 0 133.4<199.6 466.3> 666.6 133.4<199.6 466.3>
VStem: 66.2998 133.3<133.4 155.6 577.7 666.6> 466.3 133.3<133.4 266.8 511.1 666.6>
LayerCount: 2
Back
Fore
SplineSet
499.599609375 800 m 2
 549.599609375 800 599.599609375 750 599.599609375 700 c 2
 599.599609375 500 l 2
 599.599609375 450 565.799804688 413.200195312 532.900390625 400 c 1
 532.900390625 400 532.900390625 400 570.599609375 362.700195312 c 0
 588.599609375 344.900390625 599.599609375 325.400390625 599.599609375 300 c 2
 599.599609375 100 l 2
 599.599609375 50 549.599609375 0 499.599609375 0 c 2
 166.299804688 0 l 2
 116.299804688 0 66.2998046875 50 66.2998046875 100 c 2
 66.2998046875 155.599609375 l 1
 199.599609375 200 l 1
 199.599609375 133.400390625 l 1
 466.299804688 133.400390625 l 1
 466.299804688 266.799804688 l 1
 383 350.099609375 l 1
 199.599609375 289 l 1
 199.599609375 422.200195312 l 1
 466.299804688 511.099609375 l 1
 466.299804688 666.599609375 l 1
 199.599609375 666.599609375 l 1
 199.599609375 577.700195312 l 1
 66.2998046875 533.299804688 l 1
 66.2998046875 700 l 2
 66.2998046875 750 116.299804688 800 166.299804688 800 c 2
 499.599609375 800 l 2
EndSplineSet
Validated: 1
EndChar

StartChar: four
Encoding: 20 52 21
Width: 666
VWidth: 0
Flags: W
HStem: 0 21G<466.3 599.6> 780 20G<66.2998 199.6 466.3 599.6>
VStem: 66.2998 133.3<422.2 800> 466.3 133.3<0 377.8 511.1 800>
LayerCount: 2
Back
Fore
SplineSet
466.299804688 800 m 1
 599.599609375 800 l 1
 599.599609375 0 l 1
 466.299804688 0 l 1
 466.299804688 377.799804688 l 1
 466.299804688 377.799804688 466.299804688 377.799804688 199.599609375 289.799804688 c 0
 188.599609375 286.200195312 178.5 283 166.299804688 283 c 0
 116.299804688 283 66.2998046875 333 66.2998046875 383 c 2
 66.2998046875 800 l 1
 199.599609375 800 l 1
 199.599609375 422.200195312 l 1
 466.299804688 511.099609375 l 1
 466.299804688 800 l 1
EndSplineSet
Validated: 1
EndChar

StartChar: five
Encoding: 21 53 22
Width: 666
VWidth: 0
Flags: W
HStem: 0 133.4<199.7 466.4> 666.7 133.3<199.7 466.4>
VStem: 66.4004 133.3<133.4 155.6 422.2 666.7> 466.4 133.3<133.4 377.8 644.4 666.7>
LayerCount: 2
Back
Fore
SplineSet
66.400390625 800 m 1
 599.700195312 800 l 1
 599.700195312 644.400390625 l 1
 466.400390625 600 l 1
 466.400390625 666.700195312 l 1
 199.700195312 666.700195312 l 1
 199.700195312 666.400390625 l 1
 199.700195312 422.200195312 l 1
 199.700195312 422.200195312 411.400390625 492 466.400390625 510.200195312 c 0
 477.400390625 513.799804688 487.5 517 499.700195312 517 c 0
 549.700195312 517 599.700195312 467 599.700195312 417 c 2
 599.700195312 100 l 2
 599.700195312 50 549.700195312 0 499.700195312 0 c 2
 166.400390625 0 l 2
 116.400390625 0 66.400390625 50 66.400390625 100 c 2
 66.400390625 155.599609375 l 1
 199.700195312 200 l 1
 199.700195312 133.400390625 l 1
 466.400390625 133.400390625 l 1
 466.400390625 133.700195312 l 1
 466.400390625 377.799804688 l 1
 466.400390625 377.799804688 254.700195312 308 199.700195312 289.799804688 c 0
 188.700195312 286.200195312 178.599609375 283 166.400390625 283 c 0
 116.400390625 283 66.400390625 333 66.400390625 383 c 2
 66.400390625 800 l 1
EndSplineSet
Validated: 1
EndChar

StartChar: six
Encoding: 22 54 23
Width: 666
VWidth: 0
Flags: W
HStem: 0 133.4<199.6 466.3> 666.7 133.3<199.6 466.3>
VStem: 66.2998 133.3<133.4 288.9 422.2 666.7> 466.3 133.3<133.4 377.8 644.4 666.7>
LayerCount: 2
Back
Fore
SplineSet
499.599609375 800 m 2
 549.649877126 800 599.599760884 750.100383891 599.599760884 700.150651439 c 0
 599.599609375 700 l 2
 599.599609375 644.400390625 l 1
 466.299804688 600 l 1
 466.299804688 666.700195312 l 1
 199.599609375 666.700195312 l 1
 199.599609375 422.200195312 l 1
 199.599609375 422.200195312 199.599609375 422.200195312 466.299804688 510.200195312 c 0
 477.299804688 513.799804688 487.400390625 517 499.599609375 517 c 0
 549.599609375 517 599.599609375 467 599.599609375 417 c 2
 599.599609375 100 l 2
 599.599609375 50 549.599609375 0 499.599609375 0 c 2
 166.299804688 0 l 2
 116.299804688 0 66.2998046875 50 66.2998046875 83.599609375 c 2
 66.2998046875 683.599609375 l 2
 66.2998046875 750 116.299804688 800 166.299804688 800 c 2
 499.599609375 800 l 2
466.299804688 377.799804688 m 1
 199.599609375 288.900390625 l 1
 199.599609375 133.400390625 l 1
 466.299804688 133.400390625 l 1
 466.299804688 133.700195312 l 1
 466.299804688 377.799804688 l 1
EndSplineSet
Validated: 1
EndChar

StartChar: seven
Encoding: 23 55 24
Width: 666
VWidth: 0
Flags: W
HStem: 0 21G<66.2998 199.6> 666.6 133.4<199.6 466.3>
VStem: 66.2998 133.3<0 200 577.7 666.6> 466.3 133.3<600 666.6>
LayerCount: 2
Back
Fore
SplineSet
66.2998046875 533.299804688 m 1
 66.2998046875 800 l 1
 599.599609375 800 l 1
 599.599609375 577.900390625 l 2
 599.599609375 545.299804688 586.799804688 516.700195312 566.299804688 499.900390625 c 0
 199.599609375 200 199.599609375 200 199.599609375 200 c 1
 199.599609375 0 l 1
 66.2998046875 0 l 1
 66.2998046875 222.099609375 l 2
 66.2998046875 254.700195312 79.099609375 283.299804688 99.599609375 300.099609375 c 0
 466.299804688 600 466.299804688 600 466.299804688 600 c 1
 466.299804688 666.599609375 l 1
 199.599609375 666.599609375 l 1
 199.599609375 577.700195312 l 1
 66.2998046875 533.299804688 l 1
EndSplineSet
Validated: 1
EndChar

StartChar: eight
Encoding: 24 56 25
Width: 666
VWidth: 0
Flags: W
HStem: 0 133<200 466> 666.4 133.6<200 466>
VStem: 66.4004 133.6<133 288.6 422.2 666.4> 466 133.6<133.6 377.8 511.4 667>
LayerCount: 2
Back
Fore
SplineSet
599.599609375 533.599609375 m 2
 599.5 500.299804688 584 472.799804688 564.099609375 454.299804688 c 1
 585 437.099609375 599.599609375 411.599609375 599.599609375 386 c 2
 599.599609375 100 l 2
 599.599609375 50 549.299804688 0 499.299804688 0 c 2
 166.700195312 0 l 2
 116.700195312 0 66.400390625 49.7001953125 66.400390625 99.7001953125 c 2
 66.400390625 266.400390625 l 2
 66.5 299.799804688 82 327.200195312 101.900390625 345.700195312 c 1
 81 362.900390625 66.400390625 388.400390625 66.400390625 414 c 2
 66.400390625 700 l 2
 66.400390625 750 116.700195312 800 166.700195312 800 c 2
 499.299804688 800 l 2
 549.299804688 800 599.599609375 750.299804688 599.599609375 700.299804688 c 2
 599.599609375 533.599609375 l 2
466 133.599609375 m 1
 466 377.799804688 l 1
 200 288.599609375 l 1
 200 133 l 1
 466 133.599609375 l 1
466 511.400390625 m 1
 466 667 l 1
 200 666.400390625 l 1
 200 422.200195312 l 1
 466 511.400390625 l 1
EndSplineSet
Validated: 1
EndChar

StartChar: nine
Encoding: 25 57 26
Width: 666
VWidth: 0
Flags: W
HStem: 0 133.3<199.6 466.3> 666.6 133.4<199.6 466.3>
VStem: 66.2998 133.3<133.3 155.6 422.2 666.6> 466.3 133.3<133.3 377.8 511.1 666.6>
LayerCount: 2
Back
Fore
SplineSet
166.299804688 0 m 2
 116.250024731 0 66.2996561038 49.9005887693 66.2996561038 99.85080901 c 0
 66.2996561038 99.9005393072 66.2997056153 99.9502696536 66.2998046875 100 c 2
 66.2998046875 155.599609375 l 1
 199.599609375 200 l 1
 199.599609375 133.299804688 l 1
 466.299804688 133.299804688 l 1
 466.299804688 377.799804688 l 1
 466.299804688 377.799804688 466.299804688 377.799804688 199.599609375 289.799804688 c 0
 188.599609375 286.200195312 178.5 283 166.299804688 283 c 0
 116.299804688 283 66.2998046875 333 66.2998046875 383 c 2
 66.2998046875 700 l 2
 66.2998046875 750 116.299804688 800 166.299804688 800 c 2
 499.599609375 800 l 2
 549.599609375 800 599.599609375 750 599.599609375 716.400390625 c 2
 599.599609375 116.400390625 l 2
 599.599609375 50 549.599609375 0 499.599609375 0 c 2
 166.299804688 0 l 2
199.599609375 422.200195312 m 1
 466.299804688 511.099609375 l 1
 466.299804688 666.599609375 l 1
 199.599609375 666.599609375 l 1
 199.599609375 666.299804688 l 1
 199.599609375 422.200195312 l 1
EndSplineSet
Validated: 1
EndChar

StartChar: colon
Encoding: 26 58 27
Width: 666
VWidth: 0
Flags: W
HStem: -0.0996094 200.1<259.425 417.838> 399.9 200.1<259.425 417.838>
VStem: 238.6 200.101<20.7626 179.137 420.763 579.137>
LayerCount: 2
Back
Fore
SplineSet
238.599609375 133.299804688 m 2
 238.599609375 166.700195312 271.900390625 200 305.299804688 200 c 2
 372 200 l 2
 405.400390625 200 438.700195312 166.599609375 438.700195312 133.299804688 c 2
 438.700195312 66.599609375 l 2
 438.700195312 33.2001953125 405.299804688 -0.099609375 372 -0.099609375 c 2
 305.299804688 -0.099609375 l 2
 271.900390625 -0.099609375 238.599609375 33.2998046875 238.599609375 66.599609375 c 2
 238.599609375 133.299804688 l 2
238.599609375 533.299804688 m 2
 238.599609375 566.700195312 271.900390625 600 305.299804688 600 c 2
 372 600 l 2
 405.400390625 600 438.700195312 566.599609375 438.700195312 533.299804688 c 2
 438.700195312 466.599609375 l 2
 438.700195312 433.200195312 405.299804688 399.900390625 372 399.900390625 c 2
 305.299804688 399.900390625 l 2
 271.900390625 399.900390625 238.599609375 433.299804688 238.599609375 466.599609375 c 2
 238.599609375 533.299804688 l 2
EndSplineSet
Validated: 1
EndChar

StartChar: semicolon
Encoding: 27 59 28
Width: 666
VWidth: 0
Flags: W
HStem: 0 21G<199.8 343.1> 399.9 200.1<259.525 417.838>
VStem: 238.7 200<420.763 579.137>
LayerCount: 2
Back
Fore
SplineSet
238.700195312 533.299804688 m 2
 238.700195312 566.700195312 272 600 305.299804688 600 c 2
 372 600 l 2
 405.400390625 600 438.700195312 566.599609375 438.700195312 533.299804688 c 2
 438.700195312 466.599609375 l 2
 438.700195312 433.200195312 405.299804688 399.900390625 372 399.900390625 c 2
 305.400390625 399.900390625 l 2
 272 399.900390625 238.700195312 433.299804688 238.700195312 466.599609375 c 2
 238.700195312 533.299804688 l 2
199.799804688 0 m 1
 299.799804688 200 l 1
 433.099609375 200 l 1
 333.099609375 0 l 1
 199.799804688 0 l 1
EndSplineSet
Validated: 524289
EndChar

StartChar: less
Encoding: 28 60 29
Width: 666
VWidth: 0
Flags: W
LayerCount: 2
Back
Fore
SplineSet
599.700195312 733.299804688 m 1
 599.700195312 566.700195312 l 1
 244.099609375 400 l 1
 599.700195312 233.299804688 l 1
 599.700195312 66.7001953125 l 1
 66.2998046875 316.700195312 l 1
 66.2998046875 483.299804688 l 1
 599.700195312 733.299804688 l 1
EndSplineSet
Validated: 1
EndChar

StartChar: equal
Encoding: 29 61 30
Width: 666
VWidth: 0
Flags: W
HStem: 200.1 133.301<133 533> 466.7 133.3<133 533>
LayerCount: 2
Back
Fore
SplineSet
133 200.099609375 m 1
 133 333.400390625 l 1
 533 333.400390625 l 1
 533 200.099609375 l 1
 133 200.099609375 l 1
133 466.700195312 m 1
 133 600 l 1
 533 600 l 1
 533 466.700195312 l 1
 133 466.700195312 l 1
EndSplineSet
Validated: 1
EndChar

StartChar: greater
Encoding: 30 62 31
Width: 666
VWidth: 0
Flags: W
LayerCount: 2
Back
Fore
SplineSet
66.2998046875 733.299804688 m 1
 599.700195312 483.299804688 l 1
 599.700195312 316.700195312 l 1
 66.2998046875 66.7001953125 l 1
 66.2998046875 233.299804688 l 1
 421.900390625 400 l 1
 66.2998046875 566.700195312 l 1
 66.2998046875 733.299804688 l 1
EndSplineSet
Validated: 1
EndChar

StartChar: question
Encoding: 31 63 32
Width: 666
VWidth: 0
Flags: W
HStem: -0 200<253.863 412.237> 666.7 133.3<266.5 400.4>
VStem: 66.5 133.3<533.4 600> 233 200.1<20.8627 179.188>
LayerCount: 2
Back
Fore
SplineSet
366.400390625 200 m 2
 399.799804688 200 433.099609375 166.700195312 433.099609375 133.400390625 c 2
 433.099609375 66.7001953125 l 2
 433.099609375 33.2998046875 399.700195312 -0 366.400390625 -0 c 2
 299.700195312 -0 l 2
 266.400390625 -0 233 33.400390625 233 66.7001953125 c 2
 233 133.400390625 l 2
 233 166.700195312 266.400390625 200 299.700195312 200 c 2
 366.400390625 200 l 2
563.599609375 702.799804688 m 0
 577.5 688.900390625 599.700195312 670 599.799804688 633.200195312 c 0
 599.799804688 623.700195312 599.799804688 542.799804688 599.799804688 533.599609375 c 0
 599.799804688 497 577.599609375 478.099609375 563.700195312 464.200195312 c 0
 552 453.099609375 513.700195312 414.799804688 502.599609375 403.099609375 c 0
 488.799804688 389.200195312 469.900390625 367 433.200195312 367 c 0
 423.799804688 367 399.900390625 367 399.900390625 367 c 1
 399.900390625 333.299804688 l 1
 366.5 266.599609375 l 1
 299.799804688 266.599609375 l 1
 266.5 333.299804688 l 1
 266.5 400 l 2
 266.5 450 316.700195312 500 366.700195312 500 c 2
 400.299804688 500 l 1
 466.5 567.099609375 l 1
 466.5 600 l 1
 400.400390625 666.700195312 l 1
 266.5 666.700195312 l 1
 199.799804688 600 l 1
 199.799804688 533.400390625 l 1
 66.5 533.400390625 l 1
 66.5 533.400390625 66.5 533.400390625 66.5 633.400390625 c 0
 66.5 670 88.7001953125 688.900390625 102.599609375 702.799804688 c 0
 114.299804688 713.900390625 152.599609375 752.200195312 163.700195312 763.900390625 c 0
 177.5 777.799804688 196.400390625 800 233.099609375 800 c 0
 242.5 800 423.700195312 800 433.099609375 800 c 0
 469.700195312 800 488.599609375 777.799804688 502.5 763.900390625 c 0
 513.599609375 752.200195312 551.900390625 713.900390625 563.599609375 702.799804688 c 0
EndSplineSet
Validated: 1
EndChar

StartChar: at
Encoding: 32 64 33
Width: 666
VWidth: 0
Flags: W
HStem: -0 133.3<266.2 400.1> 666.7 133.3<266.8 400.7>
VStem: 466.8 133.3<400 600>
LayerCount: 2
Back
Fore
SplineSet
564 702.799804688 m 0
 577.900390625 688.900390625 600.099609375 670 600.099609375 633.299804688 c 0
 600.099609375 625.900390625 600.099609375 366.599609375 600.099609375 366.599609375 c 2
 600.099609375 330 577.900390625 311.099609375 564 297.200195312 c 0
 552.299804688 286.099609375 514 247.799804688 502.900390625 236.099609375 c 0
 489.099609375 222.200195312 470.099609375 200 433.5 200 c 0
 396.900390625 200 378 222.200195312 364.099609375 236.099609375 c 0
 361.099609375 239.299804688 356.099609375 244.400390625 350.200195312 250.299804688 c 1
 344.299804688 244.299804688 339.299804688 239.200195312 336.299804688 236.099609375 c 0
 322.5 222.200195312 303.599609375 200 266.900390625 200 c 2
 266.900390625 200 233.5 200 233.5 200 c 2
 196.900390625 200 178 222.200195312 164.099609375 236.099609375 c 0
 153 247.799804688 114.700195312 286.099609375 103 297.200195312 c 0
 89.099609375 311 66.900390625 329.900390625 66.900390625 366.599609375 c 0
 66.900390625 366.700195312 66.900390625 400.400390625 66.900390625 400.5 c 0
 66.900390625 437.099609375 89.099609375 456 103 469.900390625 c 0
 114.700195312 481 153 519.299804688 164.099609375 531 c 0
 177.900390625 544.900390625 196.799804688 567.099609375 233.5 567.099609375 c 2
 233.5 567.099609375 266.900390625 567.099609375 266.900390625 567.099609375 c 2
 303.5 567.099609375 322.400390625 544.900390625 336.299804688 531 c 0
 347.400390625 519.299804688 385.700195312 481 397.400390625 469.900390625 c 0
 411.299804688 456.099609375 433.5 437.200195312 433.5 400.5 c 0
 433.5 400.400390625 433.5 367.200195312 433.5 367.200195312 c 1
 466.799804688 400 l 1
 466.799804688 600 l 1
 400.700195312 666.700195312 l 1
 266.799804688 666.700195312 l 1
 200.099609375 600 l 1
 200.099609375 566.599609375 l 1
 66.7998046875 566.599609375 l 1
 66.7998046875 566.599609375 66.7998046875 593 66.7998046875 633.299804688 c 0
 66.7998046875 670 89 688.900390625 103 702.799804688 c 0
 114.700195312 713.900390625 153 752.200195312 164.099609375 763.900390625 c 0
 177.900390625 777.799804688 196.799804688 800 233.5 800 c 0
 242.900390625 800 424.099609375 800 433.5 800 c 0
 470.099609375 800 489 777.799804688 502.900390625 763.900390625 c 0
 514 752.200195312 552.299804688 713.900390625 564 702.799804688 c 0
250.400390625 350 m 1
 283.799804688 383.900390625 l 1
 249.900390625 417.299804688 l 1
 216.5 383.400390625 l 1
 250.400390625 350 l 1
400.099609375 133.299804688 m 1
 433.5 166.599609375 l 1
 600 166.599609375 l 1
 600 130 577.799804688 111.099609375 563.900390625 97.2001953125 c 0
 552.200195312 86.099609375 513.900390625 47.7998046875 502.799804688 36.099609375 c 0
 489 22.2001953125 470.099609375 -0 433.400390625 -0 c 0
 424 -0 242.799804688 -0 233.400390625 -0 c 0
 196.799804688 -0 177.900390625 22.2001953125 164 36.099609375 c 0
 152.900390625 47.7998046875 114.599609375 86.099609375 102.900390625 97.2001953125 c 0
 89 111 66.7998046875 129.900390625 66.7998046875 166.599609375 c 1
 233.099609375 166.599609375 l 1
 266.200195312 133.299804688 l 1
 400.099609375 133.299804688 l 1
EndSplineSet
Validated: 1
EndChar

StartChar: A
Encoding: 33 65 34
Width: 666
VWidth: 0
Flags: W
HStem: 0.0996094 20.9004G<66.4004 199.7 466.4 599.7> 133.3 133.4<199.7 466.4> 666.7 133.3<265.8 400.2>
VStem: 66.4004 133.199<0.0996094 133.3 266.7 600> 466.4 133.3<0 133.3 266.7 600>
LayerCount: 2
Back
Fore
SplineSet
563.5 702.799804688 m 0
 577.400390625 688.900390625 599.700195312 670 599.700195312 633.299804688 c 0
 599.700195312 623.900390625 599.700195312 0 599.700195312 0 c 1
 466.400390625 0 l 1
 466.400390625 133.299804688 l 1
 199.700195312 133.299804688 l 1
 199.700195312 0.099609375 l 1
 66.400390625 0.099609375 l 1
 66.400390625 0.099609375 66.400390625 624 66.400390625 633.400390625 c 0
 66.400390625 670 88.599609375 688.900390625 102.5 702.799804688 c 0
 114.200195312 713.900390625 152.5 752.200195312 163.599609375 763.900390625 c 0
 177.400390625 777.799804688 196.299804688 800 233 800 c 0
 242.400390625 800 423.599609375 800 433 800 c 0
 469.599609375 800 488.5 777.799804688 502.400390625 763.900390625 c 0
 513.5 752.200195312 551.799804688 713.900390625 563.5 702.799804688 c 0
466.299804688 266.700195312 m 1
 466.400390625 266.700195312 l 1
 466.400390625 600 l 1
 465.799804688 600 l 1
 400.200195312 666.700195312 l 1
 265.799804688 666.700195312 l 1
 200.200195312 600 l 1
 199.599609375 600 l 1
 199.599609375 266.700195312 l 1
 466.299804688 266.700195312 l 1
EndSplineSet
Validated: 1
EndChar

StartChar: B
Encoding: 34 66 35
Width: 666
VWidth: 0
Flags: W
HStem: 0 133.4<199.7 400.2> 333.4 133.3<199.7 400.2> 666.7 133.3<199.6 400.2>
VStem: 66.4004 133.3<133.4 333.4 466.7 666.7> 466.4 133.3<200.1 266.7 533.4 600>
LayerCount: 2
Back
Fore
SplineSet
563.599609375 702.799804688 m 0
 577.5 688.900390625 599.700195312 670 599.700195312 633.200195312 c 0
 599.700195312 623.799804688 599.700195312 509.299804688 599.700195312 499.900390625 c 0
 599.700195312 463.299804688 577.5 444.400390625 563.599609375 430.5 c 0
 551.900390625 419.299804688 541.900390625 408.799804688 533 399.900390625 c 1
 541.900390625 391 551.900390625 380.400390625 563.599609375 369.299804688 c 0
 577.5 355.5 599.700195312 336.599609375 599.700195312 299.900390625 c 0
 599.700195312 290.5 599.700195312 176 599.700195312 166.599609375 c 0
 599.700195312 130 577.5 111.099609375 563.599609375 97.2001953125 c 0
 551.900390625 86.099609375 513.599609375 47.7998046875 502.5 36.099609375 c 0
 488.700195312 22.2001953125 469.799804688 0 433.099609375 0 c 0
 423.599609375 0 66.400390625 0 66.400390625 0 c 1
 66.400390625 800 l 1
 66.400390625 800 423.599609375 800 433 800 c 0
 469.700195312 800 488.599609375 777.799804688 502.5 763.900390625 c 0
 513.599609375 752.200195312 551.900390625 713.900390625 563.599609375 702.799804688 c 0
466.400390625 265.599609375 m 1
 466.5 265.599609375 l 1
 466.5 266.700195312 l 1
 465.900390625 266.700195312 l 1
 400.299804688 333.400390625 l 2
 400.099609375 333.400390625 399.900390625 333.400390625 399.700195312 333.400390625 c 2
 199.700195312 333.400390625 l 1
 199.700195312 133.400390625 l 1
 400.200195312 133.400390625 l 1
 465.799804688 200.099609375 l 1
 466.400390625 200.099609375 l 1
 466.400390625 201.200195312 l 1
 466.400390625 265.599609375 l 1
466.400390625 598.900390625 m 1
 466.400390625 600 l 1
 465.799804688 600 l 1
 400.200195312 666.700195312 l 1
 199.599609375 666.700195312 l 1
 199.599609375 466.700195312 l 1
 399.599609375 466.700195312 l 1
 400.200195312 466.700195312 l 1
 465.799804688 533.400390625 l 1
 466.400390625 533.400390625 l 1
 466.400390625 534.5 l 1
 466.400390625 598.900390625 l 1
EndSplineSet
Validated: 1
EndChar

StartChar: C
Encoding: 35 67 36
Width: 666
VWidth: 0
Flags: W
HStem: 0.0996094 133.2<265.8 400.1> 666.7 133.3<265.8 400.2>
VStem: 66.4004 133.199<200 600> 466.3 133.3<200 266.7 533.3 600>
LayerCount: 2
Back
Fore
SplineSet
563.5 702.799804688 m 0
 577.400390625 688.900390625 599.700195312 670 599.700195312 633.299804688 c 0
 599.700195312 623.799804688 599.700195312 534.400390625 599.700195312 534.400390625 c 1
 599.700195312 533.299804688 l 1
 466.400390625 533.299804688 l 1
 466.400390625 534.400390625 l 1
 466.400390625 600 l 1
 465.799804688 600 l 1
 400.200195312 666.700195312 l 1
 265.799804688 666.700195312 l 1
 200.200195312 600 l 1
 199.599609375 600 l 1
 199.599609375 200 l 1
 200.200195312 200 l 1
 265.799804688 133.299804688 l 1
 400.099609375 133.299804688 l 1
 465.700195312 200 l 1
 466.299804688 200 l 1
 466.299804688 265.599609375 l 1
 466.299804688 266.700195312 l 1
 599.599609375 266.700195312 l 1
 599.599609375 265.599609375 l 1
 599.599609375 265.599609375 599.599609375 176.099609375 599.599609375 166.700195312 c 0
 599.599609375 130.099609375 577.400390625 111.200195312 563.5 97.2998046875 c 0
 551.799804688 86.2001953125 513.5 47.900390625 502.400390625 36.2001953125 c 0
 488.599609375 22.2998046875 469.700195312 0.099609375 433 0.099609375 c 0
 423.599609375 0.099609375 242.400390625 0.099609375 233 0.099609375 c 0
 196.400390625 0.099609375 177.5 22.2998046875 163.599609375 36.2001953125 c 0
 152.5 47.900390625 114.200195312 86.2001953125 102.5 97.2998046875 c 0
 88.599609375 111.099609375 66.400390625 130 66.400390625 166.700195312 c 0
 66.400390625 176.200195312 66.400390625 624 66.400390625 633.400390625 c 0
 66.400390625 670 88.599609375 688.900390625 102.5 702.799804688 c 0
 114.200195312 713.900390625 152.5 752.200195312 163.599609375 763.900390625 c 0
 177.400390625 777.799804688 196.299804688 800 233 800 c 0
 242.400390625 800 423.599609375 800 433 800 c 0
 469.599609375 800 488.5 777.799804688 502.400390625 763.900390625 c 0
 513.5 752.200195312 551.799804688 713.900390625 563.5 702.799804688 c 0
EndSplineSet
Validated: 1
EndChar

StartChar: D
Encoding: 36 68 37
Width: 666
VWidth: 0
Flags: W
HStem: 0 133.3<199.6 400.1> 666.7 133.3<199.6 400.2>
VStem: 66.2998 133.3<133.3 666.7> 466.4 133.125<200 600>
LayerCount: 2
Back
Fore
SplineSet
563.5 702.799804688 m 0
 577.369133388 688.931645666 599.599948475 670.084975776 599.599948475 633.547113483 c 0
 599.543801157 592.598361151 599.525097977 551.649281938 599.525097977 510.700068342 c 0
 599.525097977 428.966737367 599.599609375 347.232871025 599.599609375 265.5 c 2
 599.599609375 265.5 599.599609375 176 599.599609375 166.599609375 c 0
 599.599609375 130 577.400390625 111.099609375 563.5 97.2001953125 c 0
 551.799804688 86.099609375 513.5 47.7998046875 502.400390625 36.099609375 c 0
 488.599609375 22.2001953125 469.700195312 0 433 0 c 0
 423.700195312 0 66.2998046875 0 66.2998046875 0 c 1
 66.2998046875 800 l 1
 66.2998046875 800 423.700195312 800 433 800 c 0
 469.599609375 800 488.5 777.799804688 502.400390625 763.900390625 c 0
 513.5 752.200195312 551.799804688 713.900390625 563.5 702.799804688 c 0
466.299804688 200 m 1
 466.400390625 200 l 1
 466.400390625 600 l 1
 465.799804688 600 l 1
 400.200195312 666.700195312 l 1
 199.599609375 666.700195312 l 1
 199.599609375 133.299804688 l 1
 400.099609375 133.299804688 l 1
 465.700195312 200 l 1
 466.299804688 200 l 1
EndSplineSet
Validated: 1
EndChar

StartChar: E
Encoding: 37 69 38
Width: 666
VWidth: 0
Flags: W
HStem: 0.0996094 199.9<199.809 200.2 466.4 599.7> 0.0996094 133.2<265.8 466.4> 333.3 133.4<199.7 399.8> 600 200<199.74 200.3 466.5 599.8> 666.7 133.3<265.9 466.5>
VStem: 66.4004 133.199<200 333.3 466.7 600> 466.4 133.3<133.3 200 600 666.7>
LayerCount: 2
Back
Fore
SplineSet
233 800 m 0x6e
 242.299804688 800 599.700195312 800 599.799804688 800 c 2
 599.799804688 600 l 1
 466.5 600 l 1x36
 466.5 666.700195312 l 1
 265.900390625 666.700195312 l 1x2e
 200.299804688 600 l 1
 199.700195312 600 l 1
 199.700195312 466.700195312 l 1
 399.799804688 466.700195312 l 1
 399.799804688 333.299804688 l 1
 199.599609375 333.299804688 l 1
 199.599609375 200 l 1
 200.200195312 200 l 1xb6
 265.799804688 133.299804688 l 1
 466.400390625 133.299804688 l 1x66
 466.400390625 200 l 1
 599.700195312 200 l 1
 599.700195312 0.099609375 l 1xa6
 599.700195312 0.099609375 242.299804688 0.099609375 233 0.099609375 c 0
 196.400390625 0.099609375 177.5 22.2998046875 163.599609375 36.2001953125 c 0
 152.5 47.900390625 114.200195312 86.2001953125 102.5 97.2998046875 c 0
 88.599609375 111.099609375 66.400390625 130 66.400390625 166.700195312 c 0
 66.400390625 176.200195312 66.400390625 624 66.400390625 633.400390625 c 0
 66.400390625 670 88.599609375 688.900390625 102.5 702.799804688 c 0
 114.200195312 713.900390625 152.5 752.200195312 163.599609375 763.900390625 c 0
 177.400390625 777.799804688 196.299804688 800 233 800 c 0x6e
EndSplineSet
Validated: 1
EndChar

StartChar: F
Encoding: 38 70 39
Width: 666
VWidth: 0
Flags: W
HStem: 0.0996094 21G<66.4004 199.7> 333.3 133.4<199.7 399.9> 600 200<199.74 200.2 466.4 599.7> 666.7 133.3<265.8 466.4>
VStem: 66.4004 133.3<0.0996094 333.3 466.7 600> 466.4 133.3<600 666.7>
LayerCount: 2
Back
Fore
SplineSet
233 800 m 0xdc
 242.299804688 800 599.700195312 800 599.700195312 800 c 1
 599.700195312 600 l 1
 466.400390625 600 l 1xec
 466.400390625 666.700195312 l 1
 265.799804688 666.700195312 l 1xdc
 200.200195312 600 l 1
 199.599609375 600 l 1xec
 199.599609375 466.700195312 l 1
 399.900390625 466.700195312 l 1
 399.900390625 333.299804688 l 1
 199.700195312 333.299804688 l 1
 199.700195312 0.099609375 l 1
 66.400390625 0.099609375 l 1
 66.400390625 0.099609375 66.400390625 624 66.400390625 633.400390625 c 0
 66.400390625 670 88.599609375 688.900390625 102.5 702.799804688 c 0
 114.200195312 713.900390625 152.5 752.200195312 163.599609375 763.900390625 c 0
 177.400390625 777.799804688 196.299804688 800 233 800 c 0xdc
EndSplineSet
Validated: 1
EndChar

StartChar: G
Encoding: 39 71 40
Width: 666
VWidth: 0
Flags: W
HStem: 0.0996094 133.2<265.8 400.1> 265.6 134.4<399.6 466.3> 666.7 133.3<265.8 400.2>
VStem: 66.4004 133.199<200 600> 399.6 200<265.6 400> 466.3 133.3<200 265.6 533.3 600>
LayerCount: 2
Back
Fore
SplineSet
563.599609375 702.799804688 m 0xf4
 577.5 688.900390625 599.700195312 670 599.700195312 633.299804688 c 0
 599.700195312 623.799804688 599.700195312 534.400390625 599.700195312 534.400390625 c 1
 599.700195312 533.299804688 l 1
 466.400390625 533.299804688 l 1
 466.400390625 534.400390625 l 1
 466.400390625 600 l 1
 465.799804688 600 l 1
 400.200195312 666.700195312 l 1
 265.799804688 666.700195312 l 1
 200.200195312 600 l 1
 199.599609375 600 l 1
 199.599609375 200 l 1
 200.200195312 200 l 1
 265.799804688 133.299804688 l 1
 400.099609375 133.299804688 l 1
 465.700195312 200 l 1
 466.299804688 200 l 1
 466.299804688 265.599609375 l 1xf4
 399.599609375 265.599609375 l 1
 399.599609375 400 l 1
 599.599609375 400 l 1xf8
 599.599609375 400 599.599609375 176.099609375 599.599609375 166.700195312 c 0
 599.599609375 130.099609375 577.400390625 111.200195312 563.5 97.2998046875 c 0
 551.799804688 86.2001953125 513.5 47.900390625 502.400390625 36.2001953125 c 0
 488.599609375 22.2998046875 469.700195312 0.099609375 433 0.099609375 c 0
 423.599609375 0.099609375 242.400390625 0.099609375 233 0.099609375 c 0
 196.400390625 0.099609375 177.5 22.2998046875 163.599609375 36.2001953125 c 0
 152.5 47.900390625 114.200195312 86.2001953125 102.5 97.2998046875 c 0
 88.599609375 111.099609375 66.400390625 130 66.400390625 166.700195312 c 0
 66.400390625 176.200195312 66.400390625 624 66.400390625 633.400390625 c 0
 66.400390625 670 88.599609375 688.900390625 102.5 702.799804688 c 0
 114.200195312 713.900390625 152.5 752.200195312 163.599609375 763.900390625 c 0
 177.400390625 777.799804688 196.299804688 800 233 800 c 0
 242.5 800 399.700195312 800 399.700195312 800 c 2
 412.400390625 800 423.599609375 800 433 800 c 0
 469.700195312 800 488.599609375 777.799804688 502.5 763.900390625 c 0
 513.599609375 752.200195312 551.900390625 713.900390625 563.599609375 702.799804688 c 0xf4
EndSplineSet
Validated: 1
EndChar

StartChar: H
Encoding: 40 72 41
Width: 666
VWidth: 0
Flags: W
HStem: 0 21G<66.4004 199.7 466.355 599.7> 332.8 133.3<265.8 400.2> 780 20G<66.4004 199.8 466.4 599.7>
VStem: 66.4004 133.399<0 266.1 458.8 800> 466.4 133.3<0 266.1 458.8 800>
LayerCount: 2
Back
Fore
SplineSet
466.400390625 800 m 1
 599.700195312 800 l 1
 599.700195312 0 l 1
 466.400390625 0 l 1
 465.799804688 266.099609375 l 1
 400.200195312 332.799804688 l 1
 265.799804688 332.799804688 l 1
 199.700195312 266.099609375 l 1
 199.700195312 0 l 1
 66.400390625 0 l 1
 66.400390625 800 l 1
 199.799804688 800 l 1
 199.799804688 458.799804688 l 1
 209 463.200195312 219.900390625 466.099609375 233.099609375 466.099609375 c 0
 242.5 466.099609375 423.700195312 466.099609375 433.099609375 466.099609375 c 0
 446.299804688 466.099609375 457.200195312 463.200195312 466.400390625 458.799804688 c 1
 466.400390625 800 l 1
EndSplineSet
Validated: 1
EndChar

StartChar: I
Encoding: 41 73 42
Width: 666
VWidth: 0
Flags: W
HStem: 0 133.3<66.4004 266.3 399.7 599.7> 666.7 133.3<66.4004 266.3 399.7 599.7>
VStem: 266.3 133.4<133.3 666.7>
LayerCount: 2
Back
Fore
SplineSet
66.400390625 800 m 1
 599.700195312 800 l 1
 599.700195312 666.700195312 l 1
 399.700195312 666.700195312 l 1
 399.700195312 133.299804688 l 1
 599.700195312 133.299804688 l 1
 599.700195312 0 l 1
 66.400390625 0 l 1
 66.400390625 133.299804688 l 1
 266.299804688 133.299804688 l 1
 266.299804688 666.700195312 l 1
 66.400390625 666.700195312 l 1
 66.400390625 800 l 1
EndSplineSet
Validated: 1
EndChar

StartChar: J
Encoding: 42 74 43
Width: 666
VWidth: 0
Flags: W
HStem: 0.0996094 133.2<265.8 400.1> 780 20G<466.3 599.5>
VStem: 66.2998 133.3<200 266.7> 466.3 133.2<200 800>
LayerCount: 2
Back
Fore
SplineSet
466.299804688 800 m 1
 599.5 800 l 1
 599.5 800 599.5 176.099609375 599.5 166.700195312 c 0
 599.5 130.099609375 577.299804688 111.200195312 563.400390625 97.2998046875 c 0
 551.700195312 86.2001953125 513.400390625 47.900390625 502.299804688 36.2001953125 c 0
 488.5 22.2998046875 469.599609375 0.099609375 432.900390625 0.099609375 c 0
 423.400390625 0.099609375 266.200195312 0.099609375 266.200195312 0.099609375 c 2
 253.5 0.099609375 242.299804688 0.099609375 232.900390625 0.099609375 c 0
 196.299804688 0.099609375 177.400390625 22.2998046875 163.5 36.2001953125 c 0
 152.400390625 47.900390625 114.099609375 86.2001953125 102.400390625 97.2998046875 c 0
 88.5 111.099609375 66.2998046875 130 66.2998046875 166.700195312 c 0
 66.2998046875 176.200195312 66.2998046875 265.599609375 66.2998046875 265.599609375 c 1
 66.2998046875 266.700195312 l 1
 199.599609375 266.700195312 l 1
 199.599609375 265.599609375 l 1
 199.599609375 200 l 1
 200.200195312 200 l 1
 265.799804688 133.299804688 l 1
 400.099609375 133.299804688 l 1
 465.700195312 200 l 1
 466.299804688 200 l 1
 466.299804688 800 l 1
EndSplineSet
Validated: 1
EndChar

StartChar: K
Encoding: 43 75 44
Width: 666
VWidth: 0
Flags: W
HStem: 0 21G<66.2998 199.6 466.3 599.6> 333.3 133.3<199.6 399.6> 780 20G<66.2998 199.5 466.3 599.6>
VStem: 66.2998 133.2<0 333.3 466.6 800> 466.3 133.3<0 267.1 533.3 800>
LayerCount: 2
Back
Fore
SplineSet
563.5 430.599609375 m 0
 551.900390625 419.400390625 541.900390625 408.900390625 532.900390625 400 c 1
 541.799804688 391.099609375 551.799804688 380.5 563.5 369.400390625 c 0
 577.400390625 355.599609375 599.599609375 336.700195312 599.599609375 300 c 0
 599.599609375 296.200195312 599.599609375 0 599.599609375 0 c 1
 466.299804688 0 l 1
 466.299804688 267.099609375 l 1
 399.599609375 332.700195312 l 1
 399.599609375 333.299804688 l 1
 199.599609375 333.299804688 l 1
 199.599609375 0 l 1
 66.2998046875 0 l 1
 66.2998046875 800 l 1
 199.5 800 l 1
 199.5 466.599609375 l 1
 399.5 466.599609375 l 1
 400.099609375 466.599609375 l 1
 465.700195312 533.299804688 l 1
 466.299804688 533.299804688 l 1
 466.299804688 800 l 1
 599.599609375 800 l 1
 599.599609375 800 599.599609375 509.400390625 599.599609375 500 c 0
 599.599609375 463.400390625 577.400390625 444.5 563.5 430.599609375 c 0
EndSplineSet
Validated: 1
EndChar

StartChar: L
Encoding: 44 76 45
Width: 666
VWidth: 0
Flags: W
HStem: 0.0996094 199.9<466.3 599.6> 0.0996094 133.2<266.3 466.3> 780 20G<66.2998 199.6>
VStem: 66.2998 133.3<199.5 800> 466.3 133.3<133.3 200>
LayerCount: 2
Back
Fore
SplineSet
466.299804688 200 m 1xb8
 599.599609375 200 l 1
 599.599609375 0.099609375 l 1xb8
 599.599609375 0.099609375 238.400390625 0.099609375 232.900390625 0.099609375 c 0
 196.299804688 0.099609375 177.400390625 22.2998046875 163.5 36.2001953125 c 0
 152.400390625 47.900390625 114.099609375 86.2001953125 102.400390625 97.2998046875 c 0
 88.5 111.099609375 66.2998046875 130 66.2998046875 166.700195312 c 0
 66.2998046875 176 66.2998046875 800 66.2998046875 800 c 1
 199.599609375 800 l 1
 199.599609375 199.5 l 1
 266.299804688 133.900390625 l 1
 266.299804688 133.299804688 l 1
 466.299804688 133.299804688 l 1x78
 466.299804688 200 l 1xb8
EndSplineSet
Validated: 1
EndChar

StartChar: M
Encoding: 45 77 46
Width: 666
VWidth: 0
Flags: W
HStem: 0 21G<66.2998 199.6 266.3 399.6 466.3 599.6> 780 20G<66.2998 184.65 481.25 599.6>
VStem: 66.2998 133.3<0 600> 266.3 133.3<0 533.3> 466.3 133.3<0 600>
LayerCount: 2
Back
Fore
SplineSet
499.599609375 800 m 0
 509.099609375 800 599.599609375 800 599.599609375 800 c 1
 599.599609375 0 l 1
 466.299804688 0 l 1
 466.299804688 600 l 1
 399.599609375 533.299804688 l 1
 399.599609375 0 l 1
 266.299804688 0 l 1
 266.299804688 533.299804688 l 1
 199.599609375 600 l 1
 199.599609375 0 l 1
 66.2998046875 0 l 1
 66.2998046875 800 l 1
 66.2998046875 800 156.900390625 800 166.299804688 800 c 0
 203 800 221.900390625 777.799804688 235.799804688 763.900390625 c 0
 246.900390625 752.200195312 306.400390625 693 333 666.400390625 c 1
 359.5 693 419.099609375 752.200195312 430.200195312 763.900390625 c 0
 444 777.799804688 462.900390625 800 499.599609375 800 c 0
EndSplineSet
Validated: 1
EndChar

StartChar: N
Encoding: 46 78 47
Width: 666
VWidth: 0
Flags: W
HStem: 0 21G<66.4004 199.7 414.7 599.7> 780 20G<66.4004 251.35 466.4 599.7>
VStem: 66.4004 133.3<0 666.1> 266.4 133.3<199.5 600.5> 466.4 133.3<133.9 800>
CounterMasks: 1 38
LayerCount: 2
Back
Fore
SplineSet
466.400390625 800 m 1
 599.700195312 800 l 1
 599.700195312 0 l 1
 599.700195312 0 442.400390625 0 433 0 c 0
 396.400390625 0 377.5 22.2001953125 363.599609375 36.099609375 c 0
 352.5 47.7998046875 314.200195312 86.099609375 302.5 97.2001953125 c 0
 288.599609375 111 266.400390625 129.900390625 266.400390625 166.599609375 c 0
 266.400390625 176 266.400390625 599.900390625 266.400390625 599.900390625 c 1
 266.400390625 600.5 l 1
 199.700195312 666.099609375 l 1
 199.700195312 0 l 1
 66.400390625 0 l 1
 66.400390625 800 l 1
 66.400390625 800 223.599609375 800 233 800 c 0
 269.700195312 800 288.599609375 777.799804688 302.5 763.900390625 c 0
 313.599609375 752.200195312 351.900390625 713.900390625 363.599609375 702.799804688 c 0
 377.5 689 399.700195312 670.099609375 399.700195312 633.400390625 c 0
 399.700195312 623.900390625 399.700195312 199.5 399.700195312 199.5 c 1
 466.400390625 133.900390625 l 1
 466.400390625 800 l 1
EndSplineSet
Validated: 1
EndChar

StartChar: O
Encoding: 47 79 48
Width: 666
VWidth: 0
Flags: W
HStem: 0.0996094 133.2<265.8 400.1> 666.7 133.3<265.8 400.2>
VStem: 66.4004 133.199<200 600> 466.4 133.199<200 600>
LayerCount: 2
Back
Fore
SplineSet
563.5 702.799804688 m 0
 577.369133388 688.931645666 599.599948475 670.084975776 599.599948475 633.647022394 c 0
 599.528538473 581.709628431 599.504747725 529.771862653 599.504747725 477.833946181 c 0
 599.504747725 374.122709901 599.599609375 270.410872755 599.599609375 166.700195312 c 0
 599.599609375 130.099609375 577.400390625 111.200195312 563.5 97.2998046875 c 0
 551.799804688 86.2001953125 513.5 47.900390625 502.400390625 36.2001953125 c 0
 488.599609375 22.2998046875 469.700195312 0.099609375 433 0.099609375 c 0
 423.599609375 0.099609375 242.400390625 0.099609375 233 0.099609375 c 0
 196.400390625 0.099609375 177.5 22.2998046875 163.599609375 36.2001953125 c 0
 152.5 47.900390625 114.200195312 86.2001953125 102.5 97.2998046875 c 0
 88.599609375 111.099609375 66.400390625 130 66.400390625 166.700195312 c 0
 66.400390625 176.200195312 66.400390625 624 66.400390625 633.400390625 c 0
 66.400390625 670 88.599609375 688.900390625 102.5 702.799804688 c 0
 114.200195312 713.900390625 152.5 752.200195312 163.599609375 763.900390625 c 0
 177.400390625 777.799804688 196.299804688 800 233 800 c 0
 242.400390625 800 423.599609375 800 433 800 c 0
 469.599609375 800 488.5 777.799804688 502.400390625 763.900390625 c 0
 513.5 752.200195312 551.799804688 713.900390625 563.5 702.799804688 c 0
466.299804688 200 m 1
 466.400390625 200 l 1
 466.400390625 600 l 1
 465.799804688 600 l 1
 400.200195312 666.700195312 l 1
 265.799804688 666.700195312 l 1
 200.200195312 600 l 1
 199.599609375 600 l 1
 199.599609375 200 l 1
 200.200195312 200 l 1
 265.799804688 133.299804688 l 1
 400.099609375 133.299804688 l 1
 465.700195312 200 l 1
 466.299804688 200 l 1
EndSplineSet
Validated: 1
EndChar

StartChar: P
Encoding: 48 80 49
Width: 666
VWidth: 0
Flags: W
HStem: 0 21G<66.4004 199.7> 333.3 133.4<199.7 400.2> 666.7 133.3<199.7 400.3>
VStem: 66.4004 133.3<0 333.3 466.7 666.7> 466.4 133.199<533.4 600>
LayerCount: 2
Back
Fore
SplineSet
563.599609375 702.799804688 m 0
 577.46860303 688.931785389 599.599949991 670.085355539 599.599949991 633.449281911 c 0
 599.579583016 618.555246903 599.572806735 603.660987597 599.572806735 588.766631173 c 0
 599.572806735 559.144601633 599.599609375 529.522187961 599.599609375 499.900390625 c 0
 599.599609375 463.299804688 577.400390625 444.400390625 563.5 430.5 c 0
 551.799804688 419.400390625 513.5 381.099609375 502.400390625 369.400390625 c 0
 488.599609375 355.5 469.700195312 333.299804688 433 333.299804688 c 0
 423.599609375 333.299804688 199.700195312 333.299804688 199.700195312 333.299804688 c 1
 199.700195312 0 l 1
 66.400390625 0 l 1
 66.400390625 800 l 1
 66.400390625 800 423.599609375 800 433 800 c 0
 469.700195312 800 488.599609375 777.799804688 502.5 763.900390625 c 0
 513.599609375 752.200195312 551.900390625 713.900390625 563.599609375 702.799804688 c 0
466.400390625 598.900390625 m 1
 466.5 598.900390625 l 1
 466.5 600 l 1
 465.900390625 600 l 1
 400.299804688 666.700195312 l 1
 199.700195312 666.700195312 l 1
 199.700195312 466.700195312 l 1
 400.200195312 466.700195312 l 1
 465.799804688 533.400390625 l 1
 466.400390625 533.400390625 l 1
 466.400390625 534.5 l 1
 466.400390625 598.900390625 l 1
EndSplineSet
Validated: 1
EndChar

StartChar: Q
Encoding: 49 81 50
Width: 666
VWidth: 0
Flags: W
HStem: 0.200195 133.1<533 599.6> 133.5 133.1<265.8 355.252> 666.7 133.3<265.8 400.2>
VStem: 66.4004 133.199<333.3 600> 466.4 133.3<333.3 600>
LayerCount: 2
Back
Fore
SplineSet
563.599609375 702.799804688 m 0
 577.5 688.900390625 599.700195312 670 599.700195312 633.299804688 c 0
 599.700195312 623.900390625 599.700195312 309.400390625 599.700195312 300 c 0
 599.700195312 263.400390625 577.5 244.5 563.599609375 230.599609375 c 0
 551.900390625 219.5 513.599609375 181.200195312 502.5 169.5 c 0
 501.599609375 168.599609375 500.599609375 167.700195312 499.700195312 166.700195312 c 2
 533 133.900390625 l 1
 533 133.299804688 l 1
 598.5 133.299804688 l 1
 599.599609375 133.299804688 l 1
 599.599609375 0.2001953125 l 1
 598.5 0.2001953125 l 1
 598.5 0.2001953125 509 0.2001953125 499.599609375 0.2001953125 c 0
 463 0.2001953125 444.099609375 22.400390625 430.200195312 36.2998046875 c 0
 419.099609375 48 380.799804688 86.2998046875 369.099609375 97.400390625 c 0
 360.299804688 106.299804688 348 117.200195312 340.299804688 133.5 c 1
 340.299804688 133.5 242.400390625 133.5 233 133.5 c 0
 196.400390625 133.5 177.5 155.700195312 163.599609375 169.599609375 c 0
 152.5 181.299804688 114.200195312 219.599609375 102.5 230.700195312 c 0
 88.599609375 244.5 66.400390625 263.400390625 66.400390625 300.099609375 c 0
 66.400390625 309.5 66.400390625 624 66.400390625 633.400390625 c 0
 66.400390625 670 88.599609375 688.900390625 102.5 702.799804688 c 0
 114.200195312 713.900390625 152.5 752.200195312 163.599609375 763.900390625 c 0
 177.400390625 777.799804688 196.299804688 800 233 800 c 0
 242.400390625 800 423.599609375 800 433 800 c 0
 469.700195312 800 488.599609375 777.799804688 502.5 763.900390625 c 0
 513.599609375 752.200195312 551.900390625 713.900390625 563.599609375 702.799804688 c 0
466.400390625 333.299804688 m 1
 466.400390625 600 l 1
 465.799804688 600 l 1
 400.200195312 666.700195312 l 1
 265.799804688 666.700195312 l 1
 200.200195312 600 l 1
 199.599609375 600 l 1
 199.599609375 333.299804688 l 1
 200.200195312 333.299804688 l 1
 265.799804688 266.599609375 l 1
 400.200195312 266.599609375 l 1
 465.799804688 333.299804688 l 1
 466.400390625 333.299804688 l 1
EndSplineSet
Validated: 1
EndChar

StartChar: R
Encoding: 50 82 51
Width: 666
VWidth: 0
Flags: W
HStem: 0 21G<66.4004 199.7 466.4 599.7> 333.3 133.4<199.7 399.7> 666.7 133.3<199.6 400.2>
VStem: 66.4004 133.3<0 333.3 466.7 666.7> 466.4 133.3<0 267.1 533.4 600>
LayerCount: 2
Back
Fore
SplineSet
563.599609375 702.799804688 m 0
 577.5 688.900390625 599.700195312 670 599.700195312 633.299804688 c 0
 599.700195312 623.900390625 599.700195312 509.400390625 599.700195312 500 c 0
 599.700195312 463.400390625 577.5 444.5 563.599609375 430.599609375 c 0
 551.900390625 419.400390625 541.900390625 408.900390625 533 400 c 1
 541.900390625 391.099609375 551.900390625 380.5 563.599609375 369.400390625 c 0
 577.5 355.599609375 599.700195312 336.700195312 599.700195312 300 c 0
 599.700195312 290.700195312 599.700195312 0 599.700195312 0 c 1
 466.400390625 0 l 1
 466.400390625 267.099609375 l 1
 399.700195312 332.700195312 l 1
 399.700195312 333.299804688 l 1
 199.700195312 333.299804688 l 1
 199.700195312 0 l 1
 66.400390625 0 l 1
 66.400390625 800 l 1
 66.400390625 800 423.599609375 800 433 800 c 0
 469.700195312 800 488.599609375 777.799804688 502.5 763.900390625 c 0
 513.599609375 752.200195312 551.900390625 713.900390625 563.599609375 702.799804688 c 0
466.400390625 598.900390625 m 1
 466.400390625 600 l 1
 465.799804688 600 l 1
 400.200195312 666.700195312 l 1
 199.599609375 666.700195312 l 1
 199.599609375 466.700195312 l 1
 399.599609375 466.700195312 l 1
 400.200195312 466.700195312 l 1
 465.799804688 533.400390625 l 1
 466.400390625 533.400390625 l 1
 466.400390625 534.5 l 1
 466.400390625 598.900390625 l 1
EndSplineSet
Validated: 1
EndChar

StartChar: S
Encoding: 51 83 52
Width: 666
VWidth: 0
Flags: W
HStem: 0.200195 133.2<266.4 400.2> 666.8 133.2<266.8 400.1>
VStem: 67 133.1<199.6 266.8 533.4 600.6> 466.3 133.28<200.1 268.4 533.4 600.1>
LayerCount: 2
Back
Fore
SplineSet
563.599609375 702.799804688 m 0
 577.46860303 688.931785389 599.599949991 670.085355539 599.599949991 633.648123736 c 0
 599.584727442 622.576611973 599.579666001 611.504890008 599.579666001 600.433076114 c 0
 599.579666001 578.45543795 599.599609375 556.47743756 599.599609375 534.5 c 2
 599.599609375 533.400390625 l 1
 466.299804688 533.400390625 l 1
 466.299804688 534.5 l 1
 466.299804688 600.099609375 l 1
 465.700195312 600.099609375 l 1
 400.099609375 666.799804688 l 1
 266.799804688 666.799804688 l 1
 266.799804688 666.200195312 l 1
 200.099609375 600.599609375 l 1
 200.099609375 600 l 1
 200.099609375 599 l 1
 200.099609375 533.400390625 l 1
 200.700195312 533.400390625 l 1
 266.299804688 466.700195312 l 1
 266.299804688 466.700195312 423.599609375 467.799804688 433 467.799804688 c 0
 469.599609375 467.799804688 488.5 445.599609375 502.400390625 431.700195312 c 0
 513.5 420 551.799804688 381.700195312 563.5 370.599609375 c 0
 577.400390625 356.799804688 599.599609375 337.900390625 599.599609375 301.200195312 c 0
 599.599609375 291.799804688 599.599609375 176.200195312 599.599609375 166.799804688 c 0
 599.599609375 130.200195312 577.400390625 111.299804688 563.5 97.400390625 c 0
 551.799804688 86.2998046875 513.5 48 502.400390625 36.2998046875 c 0
 488.599609375 22.400390625 469.700195312 0.2001953125 433 0.2001953125 c 0
 423.599609375 0.2001953125 242.400390625 0.2001953125 233 0.2001953125 c 0
 196.400390625 0.2001953125 177.5 22.400390625 163.599609375 36.2998046875 c 0
 152.5 48 114.200195312 86.2998046875 102.5 97.400390625 c 0
 88.599609375 111.200195312 66.400390625 130.099609375 66.400390625 166.799804688 c 0
 66.400390625 176.200195312 66.400390625 266.799804688 66.400390625 266.799804688 c 1
 199.700195312 266.799804688 l 1
 199.700195312 199.599609375 l 1
 266.400390625 134 l 1
 266.400390625 133.400390625 l 1
 400.200195312 133.400390625 l 1
 465.799804688 200.099609375 l 1
 466.400390625 200.099609375 l 1
 466.400390625 201.200195312 l 1
 466.400390625 265.599609375 l 1
 466.400390625 266.700195312 l 1
 466.400390625 268.400390625 l 1
 399.700195312 334 l 1
 399.700195312 334.599609375 l 1
 399.700195312 334.599609375 243 333.5 233.599609375 333.5 c 0
 197 333.5 178.099609375 355.700195312 164.200195312 369.599609375 c 0
 153.099609375 381.299804688 114.799804688 419.599609375 103.099609375 430.700195312 c 0
 89.2001953125 444.5 67 463.400390625 67 500.099609375 c 0
 67 509.5 67 624 67 633.400390625 c 0
 67 670 89.2001953125 688.900390625 103.099609375 702.799804688 c 0
 114.799804688 713.900390625 153.099609375 752.200195312 164.200195312 763.900390625 c 0
 178 777.799804688 196.900390625 800 233.599609375 800 c 0
 243 800 423.599609375 800 433 800 c 0
 469.700195312 800 488.599609375 777.799804688 502.5 763.900390625 c 0
 513.599609375 752.200195312 551.900390625 713.900390625 563.599609375 702.799804688 c 0
EndSplineSet
Validated: 1
EndChar

StartChar: T
Encoding: 52 84 53
Width: 666
VWidth: 0
Flags: W
HStem: 0 21G<266.3 399.7> 0 21G<266.3 399.7> 666.7 133.3<66.4004 266.3 399.7 599.7>
VStem: 266.3 133.4<0 666.7>
LayerCount: 2
Back
Fore
SplineSet
66.400390625 666.700195312 m 1xb0
 66.400390625 800 l 1
 599.700195312 800 l 1
 599.700195312 666.700195312 l 1
 399.700195312 666.700195312 l 1
 399.700195312 0 l 1
 266.299804688 0 l 1
 266.299804688 666.700195312 l 1
 66.400390625 666.700195312 l 1xb0
EndSplineSet
Validated: 1
EndChar

StartChar: U
Encoding: 53 85 54
Width: 666
VWidth: 0
Flags: W
HStem: 0.0996094 133.2<265.8 400.2> 780 20G<66.4004 199.6 466.4 599.6>
VStem: 66.4004 133.199<200 800> 466.4 133.199<200 800>
LayerCount: 2
Back
Fore
SplineSet
466.400390625 800 m 1
 599.599609375 800 l 1
 599.599609375 800 599.599609375 176.099609375 599.599609375 166.700195312 c 0
 599.599609375 130.099609375 577.400390625 111.200195312 563.5 97.2998046875 c 0
 551.799804688 86.2001953125 513.5 47.900390625 502.400390625 36.2001953125 c 0
 488.599609375 22.2998046875 469.700195312 0.099609375 433 0.099609375 c 0
 423.599609375 0.099609375 242.400390625 0.099609375 233 0.099609375 c 0
 196.400390625 0.099609375 177.5 22.2998046875 163.599609375 36.2001953125 c 0
 152.5 47.900390625 114.200195312 86.2001953125 102.5 97.2998046875 c 0
 88.599609375 111.099609375 66.400390625 130 66.400390625 166.700195312 c 0
 66.400390625 176.099609375 66.400390625 800 66.400390625 800 c 1
 199.599609375 800 l 1
 199.599609375 200 l 1
 200.200195312 200 l 1
 265.799804688 133.299804688 l 1
 400.200195312 133.299804688 l 1
 465.799804688 200 l 1
 466.400390625 200 l 1
 466.400390625 800 l 1
EndSplineSet
Validated: 1
EndChar

StartChar: V
Encoding: 54 86 55
Width: 666
VWidth: 0
Flags: W
HStem: 0 21G<281.3 384.65> 780 20G<66.2998 199.6 466.3 599.6>
VStem: 66.2998 133.3<266.7 800> 466.3 133.3<266.7 800>
LayerCount: 2
Back
Fore
SplineSet
466.299804688 800 m 1
 599.599609375 800 l 1
 599.599609375 800 599.599609375 242.700195312 599.599609375 233.299804688 c 0
 599.599609375 196.700195312 577.400390625 177.799804688 563.5 163.900390625 c 0
 553.099609375 154 446.799804688 47.7998046875 435.700195312 36.099609375 c 0
 421.900390625 22.2001953125 403 0 366.299804688 0 c 0
 353.5 0 309 0 299.599609375 0 c 0
 263 0 244.099609375 22.2001953125 230.200195312 36.099609375 c 0
 219.099609375 47.7998046875 114.099609375 152.799804688 102.400390625 163.900390625 c 0
 88.5 177.700195312 66.2998046875 196.599609375 66.2998046875 233.299804688 c 0
 66.2998046875 242.799804688 66.2998046875 800 66.2998046875 800 c 1
 199.599609375 800 l 1
 199.599609375 266.700195312 l 1
 200.200195312 266.700195312 l 1
 333 133 l 1
 465.700195312 266.700195312 l 1
 466.299804688 266.700195312 l 1
 466.299804688 800 l 1
EndSplineSet
Validated: 1
EndChar

StartChar: W
Encoding: 55 87 56
Width: 666
VWidth: 0
Flags: W
HStem: 0 21G<66.4004 184.75 481.3 599.6> 780 20G<66.4004 199.7 266.4 399.7 466.4 599.6>
VStem: 66.4004 133.3<200 800> 266.4 133.3<266.7 800> 466.4 133.199<200 800>
LayerCount: 2
Back
Fore
SplineSet
166.400390625 0 m 0
 156.900390625 0 66.400390625 0 66.400390625 0 c 1
 66.400390625 800 l 1
 199.700195312 800 l 1
 199.700195312 200 l 1
 266.400390625 266.700195312 l 1
 266.400390625 800 l 1
 399.700195312 800 l 1
 399.700195312 266.700195312 l 1
 466.400390625 200 l 1
 466.400390625 800 l 1
 599.599609375 800 l 1
 599.599609375 0 l 1
 599.599609375 0 509 0 499.599609375 0 c 0
 463 0 444.099609375 22.2001953125 430.200195312 36.099609375 c 0
 419.099609375 47.7998046875 359.599609375 107 333 133.599609375 c 1
 306.5 107 246.900390625 47.7998046875 235.799804688 36.099609375 c 0
 222 22.2001953125 203.099609375 0 166.400390625 0 c 0
EndSplineSet
Validated: 1
EndChar

StartChar: X
Encoding: 56 88 57
Width: 666
VWidth: 0
Flags: W
HStem: 0 21G<66.4004 199.7 466.4 599.7> 780 20G<66.2998 199.6 466.3 599.6>
VStem: 66.4004 133.3<0 166.7 633.3 800> 466.4 133.3<0 166.7 633.3 800>
LayerCount: 2
Back
Fore
SplineSet
563.5 530.599609375 m 0
 551.900390625 519.400390625 434 401 433 400 c 1
 434 399 551.900390625 280.599609375 563.599609375 269.400390625 c 0
 577.5 255.599609375 599.700195312 236.700195312 599.700195312 200 c 0
 599.700195312 190.599609375 599.700195312 0 599.700195312 0 c 1
 466.400390625 0 l 1
 466.400390625 166.700195312 l 1
 465.799804688 166.700195312 l 1
 333 300.200195312 l 1
 200.299804688 166.700195312 l 1
 199.700195312 166.700195312 l 1
 199.700195312 0 l 1
 66.400390625 0 l 1
 66.400390625 0 66.400390625 190.599609375 66.400390625 200 c 0
 66.400390625 236.599609375 88.599609375 255.5 102.5 269.400390625 c 0
 114.099609375 280.599609375 232.099609375 399 233 400 c 0
 232 401 114.099609375 519.400390625 102.400390625 530.599609375 c 0
 88.5 544.400390625 66.2998046875 563.299804688 66.2998046875 600 c 0
 66.2998046875 609.400390625 66.2998046875 800 66.2998046875 800 c 1
 199.599609375 800 l 1
 199.599609375 633.299804688 l 1
 200.200195312 633.299804688 l 1
 333 499.799804688 l 1
 465.700195312 633.299804688 l 1
 466.299804688 633.299804688 l 1
 466.299804688 800 l 1
 599.599609375 800 l 1
 599.599609375 800 599.599609375 609.400390625 599.599609375 600 c 0
 599.599609375 563.400390625 577.400390625 544.5 563.5 530.599609375 c 0
EndSplineSet
Validated: 1
EndChar

StartChar: Y
Encoding: 57 89 58
Width: 666
VWidth: 0
Flags: W
HStem: 0 21G<266.3 399.6> 780 20G<66.4004 199.6 466.4 599.5>
VStem: 66.4004 133.199<533.3 800> 266.3 133.3<0 333.3> 466.4 133.1<533.3 800>
LayerCount: 2
Back
Fore
SplineSet
466.400390625 800 m 1
 599.5 800 l 1
 599.5 800 599.5 509.299804688 599.5 499.900390625 c 0
 599.5 463.299804688 577.299804688 444.400390625 563.400390625 430.5 c 0
 551.700195312 419.400390625 513.400390625 381.099609375 502.299804688 369.400390625 c 0
 488.5 355.5 469.599609375 333.299804688 432.900390625 333.299804688 c 0
 423.5 333.299804688 412.400390625 333.299804688 399.599609375 333.299804688 c 1
 399.599609375 0 l 1
 266.299804688 0 l 1
 266.299804688 333.400390625 l 1
 253.599609375 333.400390625 242.400390625 333.400390625 233 333.400390625 c 0
 196.400390625 333.400390625 177.5 355.599609375 163.599609375 369.5 c 0
 152.5 381.200195312 114.200195312 419.5 102.5 430.599609375 c 0
 88.599609375 444.400390625 66.400390625 463.299804688 66.400390625 500 c 0
 66.400390625 509.400390625 66.400390625 800 66.400390625 800 c 1
 199.599609375 800 l 1
 199.599609375 533.299804688 l 1
 265.799804688 466.599609375 l 1
 266.400390625 466.599609375 l 1
 399.599609375 466.599609375 l 1
 400.200195312 466.599609375 l 1
 466.400390625 533.299804688 l 1
 466.400390625 800 l 1
EndSplineSet
Validated: 1
EndChar

StartChar: Z
Encoding: 58 90 59
Width: 666
VWidth: 0
Flags: HMW
LayerCount: 2
Back
Fore
SplineSet
563.5 530.599609375 m 0
 551.900390625 519.400390625 499.700195312 466.700195312 499.700195312 466.700195312 c 2
 599.599609375 466.700195312 l 1
 599.599609375 333.299804688 l 1
 366.299804688 333.299804688 l 1
 216.599609375 183.299804688 l 1
 265.799804688 133.299804688 l 1
 599.599609375 133.299804688 l 1
 599.599609375 0.2001953125 l 1
 599.599609375 0.2001953125 242.299804688 0.2001953125 232.900390625 0.2001953125 c 0
 196.299804688 0.2001953125 177.400390625 22.400390625 163.5 36.2998046875 c 0
 152.400390625 48 114.099609375 86.2998046875 102.400390625 97.400390625 c 0
 88.5 111.200195312 66.2998046875 130.099609375 66.2998046875 166.799804688 c 0
 66.2998046875 176.200195312 66.2998046875 187.299804688 66.2998046875 200.099609375 c 0
 66.2998046875 236.700195312 88.5 255.599609375 102.400390625 269.5 c 0
 166.299804688 333.400390625 165.400390625 332.400390625 166.299804688 333.400390625 c 2
 66.2998046875 333.400390625 l 1
 66.2998046875 466.700195312 l 1
 300 466.700195312 l 1
 449.400390625 616.700195312 l 1
 400.200195312 666.700195312 l 1
 66.2998046875 666.700195312 l 1
 66.2998046875 800 l 1
 66.2998046875 800 423.5 800 433 800 c 0
 469.599609375 800 488.5 777.799804688 502.400390625 763.799804688 c 0
 513.5 752.099609375 551.799804688 713.799804688 563.5 702.700195312 c 0
 577.400390625 688.900390625 599.599609375 670 599.599609375 633.299804688 c 0
 599.599609375 623.900390625 599.599609375 612.799804688 599.599609375 600 c 0
 599.599609375 563.400390625 577.400390625 544.5 563.5 530.599609375 c 0
EndSplineSet
Validated: 524289
EndChar

StartChar: bracketleft
Encoding: 59 91 60
Width: 666
VWidth: 0
Flags: W
HStem: 0 133.3<366.4 433> 666.7 133.3<366.4 433>
VStem: 233 200<0 133.3 666.7 800> 233 133.4<133.3 666.7>
LayerCount: 2
Back
Fore
SplineSet
433 133.299804688 m 1xe0
 433 0 l 1
 233 0 l 1
 233 800 l 1
 433 800 l 1
 433 666.700195312 l 1xe0
 366.400390625 666.700195312 l 1
 366.400390625 133.299804688 l 1xd0
 433 133.299804688 l 1xe0
EndSplineSet
Validated: 1
EndChar

StartChar: backslash
Encoding: 60 92 61
Width: 666
VWidth: 0
Flags: W
HStem: 0 21G<393.033 533> 0 21G<393.033 533> 780 20G<133 272.967> 780 20G<133 272.967>
LayerCount: 2
Back
Fore
SplineSet
533 0 m 1xa0
 399.700195312 0 l 1
 133 800 l 1
 266.299804688 800 l 1
 533 0 l 1xa0
EndSplineSet
Validated: 1
EndChar

StartChar: bracketright
Encoding: 61 93 62
Width: 666
VWidth: 0
Flags: W
HStem: 0 133.3<233 299.6> 666.7 133.3<233 299.6>
VStem: 233 200<0 133.3 666.7 800> 299.6 133.4<133.3 666.7>
LayerCount: 2
Back
Fore
SplineSet
233 133.299804688 m 1xe0
 299.599609375 133.299804688 l 1
 299.599609375 666.700195312 l 1xd0
 233 666.700195312 l 1
 233 800 l 1
 433 800 l 1
 433 0 l 1
 233 0 l 1
 233 133.299804688 l 1xe0
EndSplineSet
Validated: 1
EndChar

StartChar: asciicircum
Encoding: 62 94 63
Width: 666
VWidth: 0
Flags: W
HStem: 666.7 133.3<199.7 266.4 399.7 466.4>
LayerCount: 2
Back
Fore
SplineSet
599.700195312 666.700195312 m 1
 399.700195312 666.700195312 l 1
 333 733.299804688 l 1
 266.400390625 666.700195312 l 1
 66.400390625 666.700195312 l 1
 199.700195312 800 l 1
 466.400390625 800 l 1
 599.700195312 666.700195312 l 1
EndSplineSet
Validated: 1
EndChar

StartChar: underscore
Encoding: 63 95 64
Width: 666
VWidth: 0
Flags: W
HStem: 0 133.3<66.4004 599.7>
LayerCount: 2
Back
Fore
SplineSet
66.400390625 0 m 1
 66.400390625 133.299804688 l 1
 599.700195312 133.299804688 l 1
 599.700195312 0 l 1
 66.400390625 0 l 1
EndSplineSet
Validated: 1
EndChar

StartChar: grave
Encoding: 64 96 65
Width: 666
VWidth: 0
Flags: W
HStem: 666.7 133.3<199.7 266.4>
LayerCount: 2
Back
Fore
SplineSet
399.700195312 666.700195312 m 1
 199.700195312 666.700195312 l 1
 66.400390625 800 l 1
 266.400390625 800 l 1
 399.700195312 666.700195312 l 1
EndSplineSet
Validated: 1
EndChar

StartChar: a
Encoding: 65 97 66
Width: 666
VWidth: 0
Flags: W
HStem: 0 21G<66.2998 199.6 466.3 599.6> 780 20G<273.03 392.97>
VStem: 66.2998 133.3<0 88.9004 222.2 622.2> 466.3 133.3<0 177.8 311.1 622.3>
LayerCount: 2
Back
Fore
SplineSet
533 733.299804688 m 2
 565.851543985 720.219644075 599.599833325 683.409322966 599.599833325 633.522420429 c 0
 599.599609375 633.299804688 l 2
 599.599609375 0 l 1
 466.299804688 0 l 1
 466.299804688 177.799804688 l 1
 199.599609375 88.900390625 l 1
 199.599609375 0 l 1
 66.2998046875 0 l 1
 66.2998046875 633.299804688 l 2
 66.2998046875 683.299804688 100.099609375 720.099609375 133 733.299804688 c 2
 333 800 l 1
 533 733.299804688 l 2
466.299804688 311.099609375 m 1
 466.299804688 622.299804688 l 1
 333 666.700195312 l 1
 199.599609375 622.200195312 l 1
 199.599609375 222.200195312 l 1
 466.299804688 311.099609375 l 1
EndSplineSet
Validated: 1
EndChar

StartChar: b
Encoding: 66 98 67
Width: 666
VWidth: 0
Flags: W
HStem: 0 133.3<199.8 466.3> 666.7 133.3<199.8 466.3>
VStem: 66.4004 133.399<133.3 155.6 289 666.7> 466.3 133.3<133.3 166.8 377.8 666.7>
LayerCount: 2
Back
Fore
SplineSet
599.700195312 700 m 1
 599.599609375 700 l 1
 599.599609375 366.700195312 l 2
 599.599609375 327.799804688 579.200195312 296.900390625 554.599609375 278.900390625 c 1
 579.900390625 254.299804688 599.599609375 232.700195312 599.599609375 200 c 2
 599.599609375 100 l 2
 599.599609375 50 549.599609375 0 499.599609375 0 c 2
 66.400390625 0 l 1
 66.2998046875 700 l 2
 66.2998046875 750 116.299804688 800 166.299804688 800 c 2
 499.700195312 800 l 2
 549.700195312 800 599.700195312 750 599.700195312 700 c 1
466.299804688 133.299804688 m 1
 466.299804688 166.799804688 l 1
 408 225.099609375 l 1
 199.799804688 155.599609375 l 1
 199.799804688 133.299804688 l 1
 466.299804688 133.299804688 l 1
466.299804688 377.799804688 m 1
 466.299804688 666.700195312 l 1
 199.799804688 666.700195312 l 1
 199.799804688 289 l 1
 466.299804688 377.799804688 l 1
EndSplineSet
Validated: 1
EndChar

StartChar: c
Encoding: 67 99 68
Width: 666
VWidth: 0
Flags: W
HStem: 0 133.4<199.8 466.3> 666.7 133.3<199.8 466.3>
VStem: 66.2998 133.5<133.4 666.7> 466.3 133.3<133.4 222.3 577.8 666.7>
LayerCount: 2
Back
Fore
SplineSet
499.599609375 800 m 2
 549.649877126 800 599.599760884 750.100383892 599.599760884 700.15065144 c 0
 599.599609375 700 l 2
 599.599609375 577.799804688 l 1
 466.299804688 533.400390625 l 1
 466.299804688 666.700195312 l 1
 199.799804688 666.700195312 l 1
 199.799804688 133.400390625 l 1
 466.299804688 133.400390625 l 1
 466.299804688 222.299804688 l 1
 599.599609375 266.700195312 l 1
 599.599609375 100 l 2
 599.599609375 50 549.599609375 0 499.599609375 0 c 2
 166.299804688 0 l 2
 116.299804688 0 66.2998046875 50 66.2998046875 100 c 2
 66.2998046875 700 l 2
 66.2998046875 750 116.299804688 800 166.299804688 800 c 2
 499.599609375 800 l 2
EndSplineSet
Validated: 1
EndChar

StartChar: d
Encoding: 68 100 69
Width: 666
VWidth: 0
Flags: W
HStem: 0 133.6<199.6 466.3> 780 20G<66.2998 259.456>
VStem: 66.2998 133.3<133.6 666.4> 466.3 133.3<133.6 577.5>
LayerCount: 2
Back
Fore
SplineSet
533 688.599609375 m 2
 565.851543985 675.419987276 599.599833325 638.708832316 599.599833325 588.822224459 c 0
 599.599609375 588.599609375 l 2
 599.599609375 100 l 2
 599.599609375 50 549.599609375 0 499.599609375 0 c 2
 66.2998046875 0 l 1
 66.2998046875 800 l 1
 199.599609375 800 l 1
 533 688.599609375 l 2
466.299804688 133.599609375 m 1
 466.299804688 577.5 l 1
 199.599609375 666.400390625 l 1
 199.599609375 133.599609375 l 1
 466.299804688 133.599609375 l 1
EndSplineSet
Validated: 1
EndChar

StartChar: e
Encoding: 69 101 70
Width: 666
VWidth: 0
Flags: W
HStem: 0 133.3<199.6 599.7> 666.7 133.3<199.6 599.7>
VStem: 66.2998 133.3<133.3 266.7 400 666.7>
LayerCount: 2
Back
Fore
SplineSet
599.700195312 133.299804688 m 1
 599.700195312 0 l 1
 66.2998046875 0 l 1
 66.2998046875 800 l 1
 599.700195312 800 l 1
 599.700195312 666.700195312 l 1
 199.599609375 666.700195312 l 1
 199.599609375 400 l 1
 399.599609375 466.700195312 l 1
 399.599609375 333.299804688 l 1
 199.599609375 266.700195312 l 1
 199.599609375 133.299804688 l 1
 599.700195312 133.299804688 l 1
EndSplineSet
Validated: 1
EndChar

StartChar: f
Encoding: 70 102 71
Width: 666
VWidth: 0
Flags: W
HStem: 0 21G<66.4004 199.7> 666.7 133.3<199.7 599.7>
VStem: 66.4004 133.3<0 266.7 400 666.7>
LayerCount: 2
Back
Fore
SplineSet
66.400390625 800 m 1
 599.700195312 800 l 1
 599.700195312 666.700195312 l 1
 199.700195312 666.700195312 l 1
 199.700195312 400 l 1
 399.700195312 466.700195312 l 1
 399.700195312 333.299804688 l 1
 199.700195312 266.700195312 l 1
 199.700195312 0 l 1
 66.400390625 0 l 1
 66.400390625 800 l 1
EndSplineSet
Validated: 1
EndChar

StartChar: g
Encoding: 71 103 72
Width: 666
VWidth: 0
Flags: W
HStem: 0 133.3<199.6 466.3> 666.6 133.4<199.6 466.3>
VStem: 66.2998 133.3<133.3 666.6> 466.3 133.3<133.3 288.2 577.7 666.6>
LayerCount: 2
Back
Fore
SplineSet
499.700195312 800 m 2
 549.700195312 800 599.599609375 750 599.599609375 700 c 2
 599.599609375 577.700195312 l 1
 466.299804688 533.299804688 l 1
 466.299804688 666.599609375 l 1
 199.599609375 666.599609375 l 1
 199.599609375 133.299804688 l 1
 466.299804688 133.299804688 l 1
 466.299804688 288.200195312 l 1
 333 243.799804688 l 1
 333 377.099609375 l 1
 599.599609375 466 l 1
 599.599609375 100 l 2
 599.599609375 50 533.900390625 0 483.900390625 0 c 2
 150.299804688 0 l 2
 100.400390625 0.2001953125 66.2998046875 50.099609375 66.2998046875 100 c 2
 66.2998046875 700 l 2
 66.2998046875 749.900390625 116.200195312 799.900390625 166.099609375 800 c 2
 499.700195312 800 l 2
EndSplineSet
Validated: 1
EndChar

StartChar: i
Encoding: 73 105 73
Width: 666
VWidth: 0
Flags: W
HStem: 0 133.3<66.4004 266.3 399.7 599.7> 666.7 133.3<66.4004 266.3 399.7 599.7>
VStem: 266.3 133.4<133.3 666.7>
LayerCount: 2
Back
Fore
SplineSet
66.400390625 800 m 1
 599.700195312 800 l 1
 599.700195312 666.700195312 l 1
 399.700195312 666.700195312 l 1
 399.700195312 133.299804688 l 1
 599.700195312 133.299804688 l 1
 599.700195312 0 l 1
 66.400390625 0 l 1
 66.400390625 133.299804688 l 1
 266.299804688 133.299804688 l 1
 266.299804688 666.700195312 l 1
 66.400390625 666.700195312 l 1
 66.400390625 800 l 1
EndSplineSet
Validated: 1
EndChar

StartChar: j
Encoding: 74 106 74
Width: 666
VWidth: 0
Flags: W
HStem: 0 133.4<199.6 466.3> 780 20G<539.599 599.6>
VStem: 66.2998 133.3<133.4 222.2> 466.3 133.3<133.4 622.3>
LayerCount: 2
Back
Fore
SplineSet
266.299804688 555.599609375 m 1
 266.299804688 688.900390625 l 1
 599.599609375 800 l 1
 599.599609375 100 l 2
 599.599609375 50 549.599609375 0 499.599609375 0 c 2
 166.299804688 0 l 2
 116.400390625 0.099609375 66.2998046875 50 66.2998046875 100 c 2
 66.2998046875 222.200195312 l 1
 199.599609375 266.700195312 l 1
 199.599609375 133.400390625 l 1
 466.299804688 133.400390625 l 1
 466.299804688 622.299804688 l 1
 266.299804688 555.599609375 l 1
EndSplineSet
Validated: 1
EndChar

StartChar: k
Encoding: 75 107 75
Width: 666
VWidth: 0
Flags: W
HStem: 0 21.0996G<66.3979 199.7 466.3 599.6> 780 20G<66.2998 199.607 466.3 599.6>
VStem: 66.4004 133.399<0 155.6 289 800> 466.3 133.3<0.700195 166.8 377.8 800>
LayerCount: 2
Back
Fore
SplineSet
466.299804688 377.799804688 m 1
 466.299804688 800 l 1
 599.599609375 800 l 1
 599.599609375 366.700195312 l 2
 599.599609375 327.799804688 579.200195312 296.900390625 554.599609375 278.900390625 c 1
 579.900390625 254.299804688 599.599609375 232.700195312 599.599609375 200 c 2
 599.599609375 0.7001953125 l 1
 466.299804688 0.099609375 l 1
 466.299804688 0.7001953125 l 1
 466.299804688 166.799804688 l 1
 408 225.099609375 l 1
 199.700195312 155.599609375 l 1
 199.700195312 0 l 1
 66.400390625 0 l 1
 66.2998046875 800 l 1
 199.599609375 800 l 1
 199.799804688 289 l 1
 466.299804688 377.799804688 l 1
EndSplineSet
Validated: 1
EndChar

StartChar: l
Encoding: 76 108 76
Width: 666
VWidth: 0
Flags: W
HStem: 0 133.3<199.6 599.7> 780 20G<139.555 199.6>
VStem: 66.2998 133.3<133.3 755.6>
LayerCount: 2
Back
Fore
SplineSet
199.599609375 133.299804688 m 1
 599.700195312 133.299804688 l 1
 599.700195312 0 l 1
 66.2998046875 0 l 1
 66.2998046875 755.599609375 l 1
 199.599609375 800 l 1
 199.599609375 133.299804688 l 1
EndSplineSet
Validated: 1
EndChar

StartChar: m
Encoding: 77 109 77
Width: 666
VWidth: 0
Flags: HMW
LayerCount: 2
Back
Fore
SplineSet
399.700195312 800 m 1
 399.700195312 733.299804688 l 1
 599.700195312 800 l 1
 599.700195312 0 l 1
 466.400390625 0 l 1
 466.400390625 622.200195312 l 1
 399.700195312 600 l 1
 399.700195312 333.299804688 l 1
 266.400390625 333.299804688 l 1
 266.400390625 600 l 1
 199.700195312 622.200195312 l 1
 199.700195312 0 l 1
 66.400390625 0 l 1
 66.400390625 800 l 1
 266.400390625 733.299804688 l 1
 266.400390625 800 l 1
 399.700195312 800 l 1
EndSplineSet
Validated: 524289
EndChar

StartChar: n
Encoding: 78 110 78
Width: 666
VWidth: 0
Flags: W
HStem: 0 21G<66.2998 199.6 466.3 599.7> 780 20G<66.2998 259.599 466.3 599.7>
VStem: 66.2998 133.3<0 666.6> 466.3 133.4<0 577.7 711.1 800>
LayerCount: 2
Back
Fore
SplineSet
466.299804688 711.099609375 m 1
 466.299804688 800 l 1
 599.700195312 800 l 1
 599.700195312 0 l 1
 466.299804688 0 l 1
 466.299804688 577.700195312 l 1
 199.599609375 666.599609375 l 1
 199.599609375 0 l 1
 66.2998046875 0 l 1
 66.2998046875 800 l 1
 199.599609375 800 l 1
 466.299804688 711.099609375 l 1
EndSplineSet
Validated: 1
EndChar

StartChar: o
Encoding: 79 111 79
Width: 666
VWidth: 0
Flags: W
HStem: 0 21G<273.03 392.97> 780 20G<273.03 392.97>
VStem: 66.2998 133.4<177.7 622.2> 466.3 133.4<177.9 622.3>
LayerCount: 2
Back
Fore
SplineSet
133 66.7001953125 m 2
 100.099609375 79.7998046875 66.400390625 116.700195312 66.2998046875 166.599609375 c 2
 66.2998046875 633.299804688 l 2
 66.2998046875 683.299804688 100.099609375 720.099609375 133 733.299804688 c 2
 333 800 l 1
 533 733.299804688 l 2
 565.900390625 720.099609375 599.700195312 683.299804688 599.700195312 633.299804688 c 2
 599.700195312 166.700195312 l 2
 599.700195312 116.700195312 565.900390625 79.900390625 533 66.7001953125 c 2
 333 0 l 1
 133 66.7001953125 l 2
199.700195312 622.200195312 m 1
 199.700195312 177.700195312 l 1
 333 133.299804688 l 1
 466.299804688 177.900390625 l 1
 466.299804688 622.299804688 l 1
 333 666.700195312 l 1
 199.700195312 622.200195312 l 1
EndSplineSet
Validated: 1
EndChar

StartChar: p
Encoding: 80 112 80
Width: 666
VWidth: 0
Flags: W
HStem: 0 21G<66.4004 199.7> 666.7 133.3<199.8 466.3>
VStem: 66.4004 133.399<0 89 222.4 666.7> 466.3 133.4<311.2 666.7>
LayerCount: 2
Back
Fore
SplineSet
499.599609375 800 m 2
 549.600593882 800 599.700792105 750.198605312 599.700792105 700.298203995 c 0
 599.700792105 700.198802925 599.700593307 700.099401463 599.700195312 700 c 2
 599.700195312 300 l 2
 599.5 250.299804688 565.700195312 213.700195312 532.900390625 200.599609375 c 1
 532.799804688 200.599609375 l 1
 199.700195312 89 l 1
 199.700195312 0 l 1
 66.400390625 0 l 1
 66.400390625 700 l 2
 66.400390625 750 116.299804688 800 166.299804688 800 c 2
 499.599609375 800 l 2
199.799804688 666.700195312 m 1
 199.799804688 222.400390625 l 1
 466.299804688 311.200195312 l 1
 466.299804688 666.700195312 l 1
 199.799804688 666.700195312 l 1
EndSplineSet
Validated: 1
EndChar

StartChar: q
Encoding: 81 113 81
Width: 666
VWidth: 0
Flags: W
HStem: 0 21G<266.3 399.6> 780 20G<273.03 392.97>
VStem: 66.2998 133.3<177.7 622.2> 266.3 133.3<0 22.2002 155.6 333.3> 466.3 133.4<177.8 622.3>
LayerCount: 2
Back
Fore
SplineSet
533 733.299804688 m 2
 565.900390625 720.200195312 599.700195312 683.299804688 599.700195312 633.299804688 c 2
 599.700195312 166.700195312 l 2
 599.700195312 116.700195312 565.900390625 79.900390625 533 66.7001953125 c 2
 399.599609375 22.2001953125 l 1
 399.599609375 0 l 1
 266.299804688 0 l 1
 266.299804688 22.2001953125 l 1
 133 66.599609375 l 2
 100.099609375 79.7998046875 66.2998046875 116.599609375 66.2998046875 166.599609375 c 2
 66.2998046875 633.299804688 l 2
 66.2998046875 683.299804688 100.099609375 720.099609375 133 733.299804688 c 2
 333 800 l 1
 533 733.299804688 l 2
466.299804688 177.799804688 m 1
 466.299804688 622.299804688 l 1
 333 666.700195312 l 1
 199.599609375 622.200195312 l 1
 199.599609375 177.700195312 l 1
 266.299804688 155.5 l 1
 266.299804688 333.299804688 l 1
 399.599609375 333.299804688 l 1
 399.599609375 155.599609375 l 1
 466.299804688 177.799804688 l 1
EndSplineSet
Validated: 1
EndChar

StartChar: r
Encoding: 82 114 82
Width: 666
VWidth: 0
Flags: W
HStem: 0 21.0996G<66.3975 199.7 466.3 599.6> 666.7 133.3<199.8 466.3>
VStem: 66.4004 133.399<0 155.6 289 666.7> 466.3 133.3<0.700195 166.8 377.8 666.7>
LayerCount: 2
Back
Fore
SplineSet
599.700195312 700 m 1
 599.599609375 700 l 1
 599.599609375 366.700195312 l 2
 599.599609375 327.799804688 579.200195312 296.900390625 554.599609375 278.900390625 c 1
 579.900390625 254.299804688 599.599609375 232.700195312 599.599609375 200 c 2
 599.599609375 0.7001953125 l 1
 466.299804688 0.099609375 l 1
 466.299804688 0.7001953125 l 1
 466.299804688 166.799804688 l 1
 408 225.099609375 l 1
 199.700195312 155.599609375 l 1
 199.700195312 0 l 1
 66.400390625 0 l 1
 66.2998046875 700 l 2
 66.2998046875 750 116.299804688 800 166.299804688 800 c 2
 499.700195312 800 l 2
 549.700195312 800 599.700195312 750 599.700195312 700 c 1
466.299804688 377.799804688 m 1
 466.299804688 666.700195312 l 1
 199.799804688 666.700195312 l 1
 199.799804688 289 l 1
 466.299804688 377.799804688 l 1
EndSplineSet
Validated: 1
EndChar

StartChar: s
Encoding: 83 115 83
Width: 666
VWidth: 0
Flags: W
HStem: 0 133.3<199.7 466.4> 666.7 133.3<199.7 466.4>
VStem: 66.4004 133.3<133.3 222.2 511.1 666.7> 466.4 133.3<133.3 288.9 577.8 666.7>
LayerCount: 2
Back
Fore
SplineSet
166.400390625 0 m 2
 116.400390625 0 66.400390625 50 66.400390625 100 c 2
 66.400390625 222.200195312 l 1
 199.700195312 266.700195312 l 1
 199.700195312 133.299804688 l 1
 466.400390625 133.299804688 l 1
 466.400390625 288.900390625 l 1
 133.099609375 400 l 2
 100.200195312 413.200195312 66.400390625 450 66.400390625 500 c 2
 66.400390625 700 l 2
 66.400390625 750 116.400390625 800 166.400390625 800 c 2
 499.700195312 800 l 2
 549.700195312 800 599.700195312 750 599.700195312 700 c 2
 599.700195312 577.799804688 l 1
 466.400390625 533.400390625 l 1
 466.400390625 666.700195312 l 1
 199.700195312 666.700195312 l 1
 199.700195312 511.099609375 l 1
 533 400 l 2
 565.900390625 386.799804688 599.700195312 350 599.700195312 300 c 2
 599.700195312 100 l 2
 599.700195312 50 549.700195312 0 499.700195312 0 c 2
 166.400390625 0 l 2
EndSplineSet
Validated: 1
EndChar

StartChar: t
Encoding: 84 116 84
Width: 666
VWidth: 0
Flags: W
HStem: 0 21G<266.3 399.7> 0 21G<266.3 399.7> 666.7 133.3<66.4004 266.3 399.7 599.7>
VStem: 266.3 133.4<0 666.7>
LayerCount: 2
Back
Fore
SplineSet
66.400390625 666.700195312 m 1xb0
 66.400390625 800 l 1
 599.700195312 800 l 1
 599.700195312 666.700195312 l 1
 399.700195312 666.700195312 l 1
 399.700195312 0 l 1
 266.299804688 0 l 1
 266.299804688 666.700195312 l 1
 66.400390625 666.700195312 l 1xb0
EndSplineSet
Validated: 1
EndChar

StartChar: u
Encoding: 85 117 85
Width: 666
VWidth: 0
Flags: W
HStem: 0 21G<206.445 459.5> 780 20G<66.5905 199.7 466.497 599.506>
VStem: 66.2998 133.4<155.6 800> 466.4 133.3<155.6 800>
LayerCount: 2
Back
Fore
SplineSet
599.5 800 m 1
 599.700195312 144.5 l 2
 599.700195312 94.5 565.900390625 57.7001953125 533 44.5 c 2
 399.5 0 l 1
 266.400390625 0 l 1
 133 44.5 l 2
 100.099609375 57.7001953125 66.2998046875 94.5 66.2998046875 144.5 c 2
 66.599609375 800 l 1
 199.700195312 800 l 1
 199.700195312 155.599609375 l 1
 333 111.200195312 l 1
 466.400390625 155.599609375 l 1
 466.5 800 l 1
 599.5 800 l 1
EndSplineSet
Validated: 1
EndChar

StartChar: v
Encoding: 86 118 86
Width: 666
VWidth: 0
Flags: W
HStem: 0 21G<191.4 474.7> 780 20G<66.4004 199.7 466.4 599.7>
VStem: 66.4004 133.3<400 800> 466.4 133.3<400 800>
LayerCount: 2
Back
Fore
SplineSet
399.700195312 0 m 1
 266.400390625 0 l 1
 116.400390625 279.599609375 66.400390625 357.299804688 66.400390625 422.599609375 c 2
 66.400390625 800 l 1
 199.700195312 800 l 1
 199.700195312 400 l 1
 333 150 l 1
 466.400390625 400 l 1
 466.400390625 800 l 1
 599.700195312 800 l 1
 599.700195312 422.599609375 l 2
 599.700195312 357.299804688 549.700195312 279.599609375 399.700195312 0 c 1
EndSplineSet
Validated: 1
EndChar

StartChar: w
Encoding: 87 119 87
Width: 666
VWidth: 0
Flags: HMW
LayerCount: 2
Back
Fore
SplineSet
266.400390625 0 m 1
 266.400390625 66.7001953125 l 1
 66.400390625 0 l 1
 66.400390625 800 l 1
 199.700195312 800 l 1
 199.700195312 177.799804688 l 1
 266.400390625 200 l 1
 266.400390625 466.700195312 l 1
 399.700195312 466.700195312 l 1
 399.700195312 200 l 1
 466.400390625 177.799804688 l 1
 466.400390625 800 l 1
 599.700195312 800 l 1
 599.700195312 0 l 1
 399.700195312 66.7001953125 l 1
 399.700195312 0 l 1
 266.400390625 0 l 1
EndSplineSet
Validated: 524289
EndChar

StartChar: x
Encoding: 88 120 88
Width: 666
VWidth: 0
Flags: W
HStem: 0 21G<66.4004 199.7 466.2 599.507> 780 20G<66.4934 199.8 466.4 599.6>
VStem: 66.4004 133.3<0 288.9 511.1 800> 466.2 133.3<0 288.9 511.1 800>
LayerCount: 2
Back
Fore
SplineSet
466.400390625 511.099609375 m 1
 466.400390625 800 l 1
 599.599609375 800 l 1
 599.599609375 500 l 2
 599.599609375 450 565.799804688 413.200195312 532.900390625 400 c 1
 565.799804688 386.799804688 599.599609375 350 599.599609375 300 c 2
 599.5 0 l 1
 466.200195312 0 l 1
 466.299804688 288.900390625 l 1
 333 333.299804688 l 1
 199.700195312 288.900390625 l 1
 199.700195312 0 l 1
 66.400390625 0 l 1
 66.400390625 300 l 2
 66.400390625 350 100.200195312 386.799804688 133.099609375 400 c 1
 100.200195312 413.200195312 66.400390625 450 66.400390625 500 c 2
 66.5 800 l 1
 199.799804688 800 l 1
 199.700195312 511.099609375 l 1
 333 466.700195312 l 1
 466.400390625 511.099609375 l 1
EndSplineSet
Validated: 1
EndChar

StartChar: y
Encoding: 89 121 89
Width: 666
VWidth: 0
Flags: W
HStem: 0 21G<266.3 399.6> 780 20G<66.4942 199.8 466.3 599.7>
VStem: 66.4004 133.3<466.6 800> 266.3 133.3<0 311.1> 466.3 133.4<466.7 800>
LayerCount: 2
Back
Fore
SplineSet
133 355.599609375 m 2
 100.148456015 368.680745099 66.4001666746 405.490093992 66.4001666746 455.376993639 c 0
 66.4001666746 455.451169984 66.4002412868 455.525375241 66.400390625 455.599609375 c 2
 66.5 800 l 1
 199.799804688 800 l 1
 199.700195312 466.599609375 l 1
 333 422.200195312 l 1
 466.299804688 466.700195312 l 1
 466.299804688 800 l 1
 599.700195312 800 l 1
 599.700195312 455.599609375 l 2
 599.700195312 405.599609375 565.900390625 368.799804688 533 355.599609375 c 2
 399.599609375 311.099609375 l 1
 399.599609375 0 l 1
 266.299804688 0 l 1
 266.299804688 311.200195312 l 1
 133 355.599609375 l 2
EndSplineSet
Validated: 1
EndChar

StartChar: z
Encoding: 90 122 90
Width: 666
VWidth: 0
Flags: W
HStem: 0 133.3<199.6 599.6> 666.7 133.3<66.4004 466.4>
VStem: 66.2998 133.3<133.3 200> 466.4 133.199<600.1 666.7>
LayerCount: 2
Back
Fore
SplineSet
66.400390625 666.700195312 m 1
 66.400390625 800 l 1
 599.599609375 800 l 1
 599.599609375 577.900390625 l 2
 599.599609375 545.299804688 586.799804688 516.700195312 566.299804688 499.900390625 c 0
 530.799804688 470.799804688 498.799804688 444.700195312 469.900390625 421 c 1
 533 400 l 1
 533 266.700195312 l 1
 354 326.299804688 l 1
 199.599609375 200 199.599609375 200 199.599609375 200 c 1
 199.599609375 133.299804688 l 1
 599.599609375 133.299804688 l 1
 599.599609375 0 l 1
 199.599609375 0 l 1
 66.2998046875 0 l 1
 66.2998046875 222.200195312 l 2
 66.2998046875 254.799804688 79.099609375 283.400390625 99.599609375 300.200195312 c 0
 135.099609375 329.200195312 167.099609375 355.299804688 196 379 c 1
 133 400 l 1
 133 533.299804688 l 1
 311.900390625 473.700195312 l 1
 466.400390625 600.099609375 466.400390625 600.099609375 466.400390625 600.099609375 c 1
 466.400390625 666.700195312 l 1
 66.400390625 666.700195312 l 1
EndSplineSet
Validated: 1
EndChar

StartChar: braceleft
Encoding: 91 123 91
Width: 666
VWidth: 0
Flags: W
HStem: 0 133.3<399.7 466.4> 333.4 133.3<199.7 266.4> 666.7 133.3<399.7 466.4>
VStem: 266.4 200<42.4149 133.3 666.7 757.585> 266.4 133.3<133.3 333.4 466.7 666.7>
LayerCount: 2
Back
Fore
SplineSet
266.400390625 333.299804688 m 1xe8
 266.400390625 333.400390625 l 1
 199.700195312 333.400390625 l 1
 199.700195312 466.700195312 l 1
 266.400390625 466.700195312 l 1xe8
 266.400390625 700 l 2
 266.400390625 750 316.400390625 800 366.400390625 800 c 2
 466.400390625 800 l 1
 466.400390625 666.700195312 l 1xf0
 399.700195312 666.700195312 l 1
 399.700195312 466.700195312 l 2
 399.700195312 433.299804688 366.299804688 400 333 400 c 1
 366.400390625 400 399.700195312 366.599609375 399.700195312 333.299804688 c 2
 399.700195312 133.299804688 l 1xe8
 466.400390625 133.299804688 l 1
 466.400390625 0 l 1
 366.400390625 0 l 2
 316.400390625 0 266.400390625 50 266.400390625 100 c 2xf0
 266.400390625 333.299804688 l 1xe8
EndSplineSet
Validated: 1
EndChar

StartChar: bar
Encoding: 92 124 92
Width: 666
VWidth: 0
Flags: W
HStem: 0 21G<266.3 399.6> 0 21G<266.3 399.6> 780 20G<266.3 399.6> 780 20G<266.3 399.6>
VStem: 266.3 133.3<0 800>
LayerCount: 2
Back
Fore
SplineSet
266.299804688 0 m 1xa8
 266.299804688 800 l 1
 399.599609375 800 l 1
 399.599609375 0 l 1
 266.299804688 0 l 1xa8
EndSplineSet
Validated: 1
EndChar

StartChar: braceright
Encoding: 93 125 93
Width: 666
VWidth: 0
Flags: W
HStem: 0 133.3<199.7 266.4> 333.4 133.3<399.7 466.4> 666.7 133.3<199.7 266.4>
VStem: 199.7 200<42.4149 133.3 666.7 757.585> 266.4 133.3<133.3 333.4 466.7 666.7>
LayerCount: 2
Back
Fore
SplineSet
399.700195312 333.299804688 m 1xe8
 399.700195312 100 l 2
 399.700195312 50 349.700195312 0 299.700195312 0 c 2
 199.700195312 0 l 1
 199.700195312 133.299804688 l 1xf0
 266.400390625 133.299804688 l 1
 266.400390625 333.299804688 l 2
 266.400390625 366.599609375 299.700195312 400 333.100585938 400 c 1
 299.80078125 400 266.400390625 433.299804688 266.400390625 466.700195312 c 2
 266.400390625 666.700195312 l 1xe8
 199.700195312 666.700195312 l 1
 199.700195312 800 l 1
 299.700195312 800 l 2
 349.700195312 800 399.700195312 750 399.700195312 700 c 2xf0
 399.700195312 466.700195312 l 1
 466.400390625 466.700195312 l 1
 466.400390625 333.400390625 l 1
 399.700195312 333.400390625 l 1
 399.700195312 333.299804688 l 1xe8
EndSplineSet
Validated: 1
EndChar

StartChar: asciitilde
Encoding: 94 126 94
Width: 666
VWidth: 0
Flags: W
HStem: 666.7 133.3<66.4004 599.7>
LayerCount: 2
Back
Fore
SplineSet
66.400390625 666.700195312 m 1
 66.400390625 800 l 1
 599.700195312 800 l 1
 599.700195312 666.700195312 l 1
 66.400390625 666.700195312 l 1
EndSplineSet
Validated: 1
EndChar

StartChar: exclamdown
Encoding: 95 161 95
Width: 666
VWidth: 0
Flags: W
HStem: -0.0996094 21G<266.5 399.8> -0.0996094 21G<266.5 399.8> 599.9 200.1<253.862 412.275>
VStem: 233 200.1<620.763 779.138> 266.5 133.3<-0.0996094 466.601>
LayerCount: 2
Back
Fore
SplineSet
266.5 466.600585938 m 1xa8
 299.799804688 533.200195312 l 1
 366.5 533.200195312 l 1
 399.799804688 466.600585938 l 1
 399.799804688 -0.099609375 l 1
 266.5 -0.099609375 l 1
 266.5 466.600585938 l 1xa8
433.099609375 666.600585938 m 2x30
 433.099609375 633.200195312 399.799804688 599.900390625 366.399414062 599.900390625 c 2
 299.69921875 599.900390625 l 2
 266.299804688 599.900390625 233 633.30078125 233 666.600585938 c 2
 233 733.30078125 l 2
 233 766.700195312 266.399414062 800 299.69921875 800 c 2
 366.399414062 800 l 2
 399.799804688 800 433.099609375 766.600585938 433.099609375 733.30078125 c 2
 433.099609375 666.600585938 l 2x30
EndSplineSet
Validated: 1
EndChar

StartChar: cent
Encoding: 96 162 96
Width: 666
VWidth: 0
Flags: W
HStem: 0 21G<266.3 399.6> 0 21G<266.3 399.6> 780 20G<266.3 399.7> 780 20G<266.3 399.7>
VStem: 66.4004 133.199<332.7 466.7> 266.3 133.4<0 133.3 666.1 800> 466.3 133.3<332.7 366 432.8 466.7>
LayerCount: 2
Back
Fore
SplineSet
563.5 568.900390625 m 0xae
 577.369133388 555.031257237 599.599948475 536.782473104 599.599948475 499.750665107 c 0
 599.589809431 492.255814524 599.586442499 484.760768602 599.586442499 477.265636355 c 0
 599.586442499 462.443749026 599.599609375 447.621524115 599.599609375 432.799804688 c 1
 466.299804688 432.799804688 l 1
 466.299804688 466.700195312 l 1
 399.599609375 532.299804688 l 1
 399.599609375 532.900390625 l 1
 266.299804688 532.900390625 l 1
 266.299804688 532.299804688 l 1
 199.599609375 466.700195312 l 1
 199.599609375 466.099609375 l 1
 199.599609375 333.299804688 l 1
 199.599609375 332.700195312 l 1
 266.299804688 267.099609375 l 1
 266.299804688 266.5 l 1
 399.599609375 266.5 l 1
 399.599609375 267.099609375 l 1
 466.299804688 332.700195312 l 1
 466.299804688 366 l 1
 599.5 366 l 1
 599.5 366 599.5 309.299804688 599.5 299.900390625 c 0
 599.5 263.299804688 577.299804688 244.400390625 563.400390625 230.5 c 0
 551.700195312 219.400390625 513.400390625 181.099609375 502.299804688 169.400390625 c 0
 488.5 155.5 469.599609375 133.299804688 432.900390625 133.299804688 c 0
 423.5 133.299804688 412.400390625 133.299804688 399.599609375 133.299804688 c 1
 399.599609375 0 l 1
 266.299804688 0 l 1
 266.299804688 133.5 l 1
 253.599609375 133.5 242.400390625 133.5 233 133.5 c 0
 196.400390625 133.5 177.5 155.700195312 163.599609375 169.599609375 c 0
 152.5 181.299804688 114.200195312 219.599609375 102.5 230.700195312 c 0
 88.599609375 244.5 66.400390625 263.400390625 66.400390625 300.099609375 c 0
 66.400390625 309.400390625 66.400390625 490.099609375 66.400390625 499.5 c 0
 66.400390625 536.099609375 88.599609375 555 102.5 568.900390625 c 0
 114.200195312 580 152.5 618.299804688 163.599609375 630 c 0
 177.400390625 643.900390625 196.299804688 666.099609375 233 666.099609375 c 0
 242.400390625 666.099609375 253.5 666.099609375 266.299804688 666.099609375 c 1
 266.299804688 800 l 1
 399.700195312 800 l 1
 399.700195312 666.099609375 l 1
 412.400390625 666.099609375 423.599609375 666.099609375 433 666.099609375 c 0
 469.599609375 666.099609375 488.5 643.900390625 502.400390625 630 c 0
 513.5 618.299804688 551.799804688 580 563.5 568.900390625 c 0xae
EndSplineSet
Validated: 1
EndChar

StartChar: sterling
Encoding: 97 163 97
Width: 666
VWidth: 0
Flags: W
HStem: 0 133.3<66.4004 100 233.4 466.4> 333.4 133.3<66.4004 100 233.4 333.2> 666.7 133.3<299.6 366.8>
VStem: 100 133.4<133.3 333.4 466.7 600> 433 133.3<534.4 600> 466.4 133.3<133.3 200>
LayerCount: 2
Back
Fore
SplineSet
466.400390625 200 m 1xf4
 599.700195312 200 l 1
 599.700195312 100 l 1
 599.700195312 99.900390625 l 2xf4
 599.599609375 49.900390625 549.700195312 0 499.700195312 0 c 2
 66.400390625 0 l 1
 66.400390625 133.299804688 l 1
 100 133.299804688 l 1
 100 149.200195312 100 236.299804688 100 333.400390625 c 1
 66.400390625 333.400390625 l 1
 66.400390625 466.700195312 l 1
 100 466.700195312 l 1
 100 558 100 632.400390625 100 633.299804688 c 0
 100 670 122.299804688 688.900390625 136.200195312 702.799804688 c 0
 147.900390625 713.900390625 186.200195312 752.200195312 197.299804688 763.900390625 c 0
 211.099609375 777.799804688 230 800 266.700195312 800 c 0
 276.099609375 800 390 800 399.400390625 800 c 0
 436.099609375 800 455 777.799804688 469.099609375 763.799804688 c 0
 480.200195312 752.099609375 518.5 713.799804688 530.200195312 702.700195312 c 0
 544.099609375 688.900390625 566.299804688 670 566.299804688 633.299804688 c 0
 566.299804688 623.799804688 566.299804688 534.400390625 566.299804688 534.400390625 c 1
 433 534.400390625 l 1
 433 600 l 1xf8
 432.400390625 600 l 1
 366.799804688 666.700195312 l 1
 299.599609375 666.700195312 l 1
 234 600 l 1
 233.400390625 600 l 1
 233.400390625 466.700195312 l 1
 333.200195312 466.700195312 l 1
 333.200195312 333.400390625 l 1
 233.400390625 333.400390625 l 1
 233.400390625 133.299804688 l 1
 466.400390625 133.299804688 l 1
 466.400390625 200 l 1xf4
EndSplineSet
Validated: 1
EndChar

StartChar: currency
Encoding: 98 164 98
Width: 666
VWidth: 0
Flags: W
HStem: 299.9 200.1<282.15 384.139>
VStem: 233.1 199.925<348.95 450.95>
LayerCount: 2
Back
Fore
SplineSet
415.400390625 447.099609375 m 2
 427.150390625 435.349609375 433.025390625 417.674804688 433.025390625 399.987426758 c 0
 433.025390625 382.300048828 427.150390625 364.600097657 415.400390625 352.799804688 c 2
 380.299804688 317.599609375 l 2
 368.5 305.799804688 350.824951172 299.899902344 333.149902344 299.899902344 c 0
 315.474853516 299.899902344 297.799804688 305.799804688 286 317.599609375 c 2
 250.799804688 352.799804688 l 2
 239 364.600097656 233.100097656 382.275146484 233.100097656 399.950073242 c 0
 233.100097656 417.625 239 435.299804688 250.799804688 447.099609375 c 2
 286 482.299804688 l 2
 297.799804688 494.100097656 315.474853516 500.000244141 333.149902344 500.000244141 c 0
 350.824951172 500.000244141 368.5 494.100097656 380.299804688 482.299804688 c 2
 415.400390625 447.099609375 l 2
66.328125 227.59375 m 1
 199.6875 360.953125 l 1
 293.943359375 266.696289062 l 1
 160.583984375 133.337890625 l 1
 66.328125 227.59375 l 1
160.6171875 666.69140625 m 1
 293.9765625 533.333007812 l 1
 199.719726562 439.076171875 l 1
 66.361328125 572.435546875 l 1
 160.6171875 666.69140625 l 1
599.802734375 572.40625 m 1
 466.444335938 439.046875 l 1
 372.1875 533.303710938 l 1
 505.546875 666.662109375 l 1
 599.802734375 572.40625 l 1
505.4296875 133.287109375 m 1
 372.071289062 266.646484375 l 1
 466.327148438 360.90234375 l 1
 599.686523438 227.543945312 l 1
 505.4296875 133.287109375 l 1
EndSplineSet
Validated: 1
EndChar

StartChar: yen
Encoding: 99 165 99
Width: 666
VWidth: 0
Flags: W
HStem: 0 21G<267.2 399.3> 66.7002 133.3<133 267.2 399.3 533> 266.7 133.3<133 267.1 399.2 533> 780 20G<66.2998 199.7 466.3 599.6>
VStem: 66.2998 133.4<666.7 800> 267.2 132.1<0 66.7002 200 266.7 400 466.7> 466.3 133.3<666.7 800>
LayerCount: 2
Back
Fore
SplineSet
533 266.700195312 m 1
 399.200195312 266.700195312 l 1
 399.200195312 200 l 1
 533 200 l 1
 533 66.7001953125 l 1
 399.299804688 66.7001953125 l 1
 399.299804688 0 l 1
 267.200195312 0 l 1
 267.200195312 66.7001953125 l 1
 133 66.7001953125 l 1
 133 200 l 1
 267.200195312 200 l 1
 267.200195312 266.700195312 l 1
 133 266.700195312 l 1
 133 400 l 1
 267.099609375 400 l 1
 267.099609375 466.700195312 l 1
 254.299804688 466.700195312 242.299804688 466.700195312 232.900390625 466.700195312 c 0
 196.299804688 466.700195312 177.400390625 488.900390625 163.5 502.799804688 c 0
 152.400390625 514.5 114.099609375 552.799804688 102.400390625 563.900390625 c 0
 88.5 577.700195312 66.2998046875 596.599609375 66.2998046875 633.299804688 c 0
 66.2998046875 642.799804688 66.2998046875 800 66.2998046875 800 c 1
 199.700195312 800 l 1
 199.700195312 666.700195312 l 1
 266.599609375 600 l 1
 400.200195312 600 l 1
 466.299804688 666.700195312 l 1
 466.299804688 800 l 1
 599.599609375 800 l 1
 599.599609375 800 599.599609375 642.700195312 599.599609375 633.299804688 c 0
 599.599609375 596.700195312 577.400390625 577.799804688 563.5 563.900390625 c 0
 551.799804688 552.799804688 513.5 514.5 502.400390625 502.799804688 c 0
 488.599609375 488.900390625 469.700195312 466.700195312 433 466.700195312 c 0
 423.5 466.700195312 412 466.700195312 399.200195312 466.700195312 c 1
 399.200195312 400 l 1
 533 400 l 1
 533 266.700195312 l 1
EndSplineSet
Validated: 1
EndChar

StartChar: brokenbar
Encoding: 100 166 100
Width: 666
VWidth: 0
Flags: W
HStem: 0 21G<266.6 399.9> 0 21G<266.6 399.9> 780 20G<266.6 399.9> 780 20G<266.6 399.9>
VStem: 266.6 133.301<0 266.7 533.3 800>
LayerCount: 2
Back
Fore
SplineSet
266.599609375 0 m 1x88
 266.599609375 266.700195312 l 1
 399.900390625 266.700195312 l 1
 399.900390625 0 l 1
 266.599609375 0 l 1x88
266.599609375 533.299804688 m 1
 266.599609375 800 l 1
 399.900390625 800 l 1x28
 399.900390625 533.299804688 l 1
 266.599609375 533.299804688 l 1
EndSplineSet
Validated: 1
EndChar

StartChar: section
Encoding: 101 167 101
Width: 666
VWidth: 0
Flags: W
HStem: -0 133.5<266.4 399.7> 233.5 133.1<266.4 399.7> 433.3 133.2<266.3 399.7> 666.5 133.5<266.3 399.6>
LayerCount: 2
Back
Fore
SplineSet
599.700195312 566.700195312 m 1
 599.700195312 566.5 l 1
 466.299804688 566.5 l 1
 466.299804688 599.799804688 l 1
 399.599609375 666.5 l 1
 266.299804688 666.5 l 1
 216.299804688 616.5 l 1
 266.299804688 566.5 l 1
 266.299804688 566.5 423.599609375 566.5 433 566.5 c 0
 469.599609375 566.5 488.5 544.299804688 502.400390625 530.400390625 c 0
 513.5 518.700195312 551.799804688 480.400390625 563.5 469.299804688 c 0
 577.400390625 455.5 599.599609375 436.599609375 599.599609375 399.900390625 c 0
 599.599609375 390.5 599.599609375 309.900390625 599.599609375 300.5 c 0
 599.599609375 278 591.299804688 262.299804688 581.599609375 250.200195312 c 1
 591.299804688 238.099609375 599.599609375 222.400390625 599.599609375 199.900390625 c 0
 599.599609375 187.200195312 599.599609375 176 599.599609375 166.599609375 c 0
 599.599609375 130 577.400390625 111.099609375 563.5 97.2001953125 c 0
 551.799804688 86.099609375 513.5 47.7998046875 502.400390625 36.099609375 c 0
 488.599609375 22.2001953125 469.700195312 -0 433 -0 c 0
 423.599609375 -0 242.400390625 -0 233 -0 c 0
 196.400390625 -0 177.5 22.2001953125 163.599609375 36.099609375 c 0
 152.5 47.7998046875 114.200195312 86.099609375 102.5 97.2001953125 c 0
 88.599609375 111 66.400390625 129.900390625 66.400390625 166.599609375 c 0
 66.400390625 176.099609375 66.400390625 233.299804688 66.400390625 233.299804688 c 1
 199.700195312 233.299804688 l 1
 199.700195312 200 l 1
 266.400390625 133.5 l 1
 399.700195312 133.5 l 1
 449.700195312 183.5 l 1
 399.700195312 233.5 l 1
 399.700195312 233.5 242.400390625 233.5 233 233.5 c 0
 196.400390625 233.5 177.5 255.700195312 163.599609375 269.599609375 c 0
 152.5 281.299804688 114.200195312 319.599609375 102.5 330.700195312 c 0
 88.599609375 344.5 66.400390625 363.400390625 66.400390625 400.099609375 c 0
 66.400390625 409.5 66.400390625 490.099609375 66.400390625 499.5 c 0
 66.400390625 522 74.7001953125 537.700195312 84.400390625 549.799804688 c 1
 74.7001953125 561.900390625 66.400390625 577.599609375 66.400390625 600.099609375 c 0
 66.400390625 612.799804688 66.400390625 624 66.400390625 633.400390625 c 0
 66.400390625 670 88.599609375 688.900390625 102.5 702.799804688 c 0
 114.200195312 713.900390625 152.5 752.200195312 163.599609375 763.900390625 c 0
 177.400390625 777.799804688 196.299804688 800 233 800 c 0
 242.400390625 800 423.599609375 800 433 800 c 0
 469.700195312 800 488.599609375 777.799804688 502.5 763.900390625 c 0
 513.599609375 752.200195312 551.900390625 713.900390625 563.599609375 702.799804688 c 0
 577.5 689 599.700195312 670.099609375 599.700195312 633.400390625 c 0
 599.700195312 623.900390625 599.700195312 566.700195312 599.700195312 566.700195312 c 1
399.700195312 433.299804688 m 1
 399.700195312 433.299804688 242.5 433.299804688 233 433.299804688 c 0
 219.799804688 433.299804688 208.900390625 436.200195312 199.700195312 440.599609375 c 1
 199.700195312 433.299804688 l 1
 266.400390625 366.599609375 l 1
 266.400390625 366.599609375 423.700195312 366.599609375 433.099609375 366.599609375 c 0
 446.299804688 366.599609375 457.200195312 363.700195312 466.400390625 359.299804688 c 1
 466.400390625 366.599609375 l 1
 399.700195312 433.299804688 l 1
EndSplineSet
Validated: 1
EndChar

StartChar: dieresis
Encoding: 102 168 102
Width: 666
VWidth: 0
Flags: W
HStem: 666.7 133.3<66.4004 199.7 466.4 599.7>
VStem: 66.4004 133.3<666.7 800> 466.4 133.3<666.7 800>
LayerCount: 2
Back
Fore
SplineSet
466.400390625 666.700195312 m 1
 466.400390625 800 l 1
 599.700195312 800 l 1
 599.700195312 666.700195312 l 1
 466.400390625 666.700195312 l 1
66.400390625 666.700195312 m 1
 66.400390625 800 l 1
 199.700195312 800 l 1
 199.700195312 666.700195312 l 1
 66.400390625 666.700195312 l 1
EndSplineSet
Validated: 1
EndChar

StartChar: copyright
Encoding: 103 169 103
Width: 666
VWidth: 0
Flags: W
HStem: 0 133.3<66.4004 199.6 466.4 599.8> 666.7 133.3<266.4 399.7>
VStem: 66.4004 133.3<399.4 600.5> 466.4 133.199<399.4 600.5>
LayerCount: 2
Back
Fore
SplineSet
433 200 m 0
 430.700195312 200 417.799804688 200 399.700195312 200 c 1
 399.700195312 199.5 l 1
 466.400390625 133.900390625 l 1
 466.400390625 133.299804688 l 1
 599.799804688 133.299804688 l 1
 599.799804688 0 l 1
 599.799804688 0 442.5 0 433.099609375 0 c 0
 396.5 0 377.599609375 22.2001953125 363.700195312 36.099609375 c 0
 358.099609375 42 345.599609375 54.599609375 333.099609375 67.099609375 c 1
 320.599609375 54.599609375 308.099609375 42 302.5 36.099609375 c 0
 288.700195312 22.2001953125 269.799804688 0 233.099609375 0 c 0
 223.599609375 0 66.400390625 0 66.400390625 0 c 1
 66.400390625 133.299804688 l 1
 199.599609375 133.299804688 l 1
 199.599609375 133.900390625 l 1
 266.299804688 199.5 l 2
 266.299804688 199.700195312 266.299804688 199.900390625 266.299804688 200.099609375 c 1
 248.200195312 200.099609375 235.299804688 200.099609375 233 200.099609375 c 0
 196.400390625 200.099609375 177.5 222.299804688 163.599609375 236.200195312 c 0
 152.5 247.900390625 114.200195312 286.200195312 102.5 297.299804688 c 0
 88.599609375 311.099609375 66.400390625 330 66.400390625 366.700195312 c 0
 66.400390625 376.200195312 66.400390625 624 66.400390625 633.400390625 c 0
 66.400390625 670 88.599609375 688.900390625 102.5 702.799804688 c 0
 114.200195312 713.900390625 152.5 752.200195312 163.599609375 763.900390625 c 0
 177.400390625 777.799804688 196.299804688 800 233 800 c 0
 242.400390625 800 423.599609375 800 433 800 c 0
 469.700195312 800 488.599609375 777.799804688 502.400390625 763.799804688 c 0
 513.5 752.099609375 551.799804688 713.799804688 563.5 702.700195312 c 0
 577.400390625 688.900390625 599.599609375 670.5 599.599609375 633.299804688 c 0
 599.599609375 626 599.599609375 376 599.599609375 366.599609375 c 0
 599.599609375 330 577.400390625 311.099609375 563.5 297.200195312 c 0
 551.799804688 286.099609375 513.5 247.799804688 502.400390625 236.099609375 c 0
 488.599609375 222.200195312 469.700195312 200 433 200 c 0
199.700195312 399.400390625 m 1
 266.400390625 333.799804688 l 1
 266.400390625 333.200195312 l 1
 399.700195312 333.200195312 l 1
 399.700195312 333.799804688 l 1
 466.400390625 399.400390625 l 1
 466.400390625 600.5 l 1
 399.700195312 666.099609375 l 1
 399.700195312 666.700195312 l 1
 266.400390625 666.700195312 l 1
 266.400390625 666.099609375 l 1
 199.700195312 600.5 l 1
 199.700195312 599.400390625 l 1
 199.700195312 400.599609375 l 1
 199.700195312 400 l 1
 199.700195312 399.400390625 l 1
EndSplineSet
Validated: 1
EndChar

StartChar: ordfeminine
Encoding: 104 170 104
Width: 666
VWidth: 0
Flags: W
HStem: 200 133.3<133 533> 466.7 66.5996<266.4 399.6> 780 20G<281.35 384.7> 780 20G<281.35 384.7>
VStem: 133 133.3<400 466.7 533.3 600> 399.9 133.1<400 466.7 533.3 600.5>
LayerCount: 2
Back
Fore
SplineSet
496.900390625 702.799804688 m 0xec
 510.799804688 688.900390625 533 670 533 633.299804688 c 0
 533 623.900390625 533 412.799804688 533 400 c 1
 399.599609375 400 l 1
 399.599609375 466.700195312 l 1
 266.299804688 466.700195312 l 1
 266.299804688 400 l 1
 133 400 l 1
 133 412.700195312 133 623.900390625 133 633.299804688 c 0
 133 670 155.200195312 688.900390625 169.099609375 702.700195312 c 0
 180.799804688 713.900390625 190.799804688 724.400390625 199.700195312 733.299804688 c 0
 208.599609375 742.200195312 219.200195312 752.200195312 230.299804688 763.900390625 c 0
 244.099609375 777.799804688 263 800 299.700195312 800 c 0
 309.200195312 800 353.599609375 800 366.400390625 800 c 0
 403 800 421.900390625 777.799804688 435.700195312 764 c 0
 446.900390625 752.299804688 457.400390625 742.299804688 466.299804688 733.400390625 c 0
 475.200195312 724.5 485.200195312 713.900390625 496.900390625 702.799804688 c 0xec
399.700195312 533.299804688 m 1
 399.900390625 533.299804688 l 1
 399.900390625 600.5 l 1
 333.200195312 666.099609375 l 1
 333.200195312 666.700195312 l 1
 332.599609375 666.700195312 l 1
 267 600 l 1
 266.400390625 600 l 1
 266.400390625 533.299804688 l 1
 399.700195312 533.299804688 l 1
133 200 m 1
 133 333.299804688 l 1
 533 333.299804688 l 1
 533 200 l 1
 133 200 l 1
EndSplineSet
Validated: 1
EndChar

StartChar: guillemotleft
Encoding: 105 171 105
Width: 666
VWidth: 0
Flags: W
LayerCount: 2
Back
Fore
SplineSet
599.700195312 733.299804688 m 1
 599.700195312 566.700195312 l 1
 421.900390625 400 l 1
 599.700195312 233.299804688 l 1
 599.700195312 66.7001953125 l 1
 333 316.700195312 l 1
 333 483.299804688 l 1
 599.700195312 733.299804688 l 1
333 566.700195312 m 1
 155.200195312 400 l 1
 333 233.299804688 l 1
 333 66.7001953125 l 1
 66.2998046875 316.700195312 l 1
 66.2998046875 483.299804688 l 1
 333 733.299804688 l 1
 333 566.700195312 l 1
EndSplineSet
Validated: 1
EndChar

StartChar: logicalnot
Encoding: 106 172 106
Width: 666
VWidth: 0
Flags: W
HStem: 266.8 199.9<466.5 599.8> 333.4 133.3<66.4004 466.5>
VStem: 466.5 133.3<266.8 333.4>
LayerCount: 2
Back
Fore
SplineSet
599.799804688 466.700195312 m 1xa0
 599.799804688 266.799804688 l 1
 466.5 266.799804688 l 1xa0
 466.5 333.400390625 l 1
 66.400390625 333.400390625 l 1
 66.400390625 466.700195312 l 1x60
 599.799804688 466.700195312 l 1xa0
EndSplineSet
Validated: 1
EndChar

StartChar: uni00AD
Encoding: 107 173 107
Width: 666
VWidth: 0
Flags: W
HStem: 333.4 133.3<133 533>
LayerCount: 2
Back
Fore
SplineSet
133 333.400390625 m 1
 133 466.700195312 l 1
 533 466.700195312 l 1
 533 333.400390625 l 1
 133 333.400390625 l 1
EndSplineSet
Validated: 1
EndChar

StartChar: registered
Encoding: 108 174 108
Width: 666
VWidth: 0
Flags: W
HStem: 0 21G<66.2998 199.6 439.603 599.7> 333.3 133.4<199.6 283> 780 20G<66.2998 199.6 439.603 599.7>
VStem: 66.2998 133.3<0 333.3 466.7 800>
LayerCount: 2
Back
Fore
SplineSet
449.599609375 800 m 1
 599.700195312 800 l 1
 399.599609375 400 l 1
 599.700195312 0 l 1
 449.599609375 0 l 1
 283 333.299804688 l 1
 199.599609375 333.299804688 l 1
 199.599609375 0 l 1
 66.2998046875 0 l 1
 66.2998046875 800 l 1
 199.599609375 800 l 1
 199.599609375 466.700195312 l 1
 283 466.700195312 l 1
 449.599609375 800 l 1
EndSplineSet
Validated: 1
EndChar

StartChar: macron
Encoding: 109 175 109
Width: 666
VWidth: 0
Flags: W
HStem: 666.7 133.3<66.4004 599.7>
LayerCount: 2
Back
Fore
SplineSet
66.400390625 666.700195312 m 1
 66.400390625 800 l 1
 599.700195312 800 l 1
 599.700195312 666.700195312 l 1
 66.400390625 666.700195312 l 1
EndSplineSet
Validated: 1
EndChar

StartChar: degree
Encoding: 110 176 110
Width: 666
VWidth: 0
Flags: W
HStem: 400 133.4<266.4 399.7> 666.7 133.3<266.4 399.7>
VStem: 133 133.4<533.4 666.7> 399.7 133.3<533.4 666.7>
LayerCount: 2
Back
Fore
SplineSet
266.400390625 666.700195312 m 1
 266.400390625 533.400390625 l 1
 399.700195312 533.400390625 l 1
 399.700195312 666.700195312 l 1
 266.400390625 666.700195312 l 1
533 700 m 2
 533 500 l 2
 533 450 483 400 433 400 c 2
 233 400 l 2
 183 400 133 450 133 500 c 2
 133 700 l 2
 133 750 183 800 233 800 c 2
 433 800 l 2
 483 800 533 750 533 700 c 2
EndSplineSet
Validated: 1
EndChar

StartChar: plusminus
Encoding: 111 177 111
Width: 666
VWidth: 0
Flags: W
HStem: 0 133.3<66.4004 599.7> 400 133.3<66.4004 266.4 399.6 599.7>
VStem: 266.4 133.199<200 400 533.3 733.3>
LayerCount: 2
Back
Fore
SplineSet
399.599609375 733.299804688 m 1
 399.599609375 533.299804688 l 1
 599.700195312 533.299804688 l 1
 599.700195312 400 l 1
 399.599609375 400 l 1
 399.599609375 200 l 1
 266.400390625 200 l 1
 266.400390625 400 l 1
 66.400390625 400 l 1
 66.400390625 533.299804688 l 1
 266.400390625 533.299804688 l 1
 266.400390625 733.299804688 l 1
 399.599609375 733.299804688 l 1
66.400390625 0 m 1
 66.400390625 133.299804688 l 1
 599.700195312 133.299804688 l 1
 599.700195312 0 l 1
 66.400390625 0 l 1
EndSplineSet
Validated: 1
EndChar

StartChar: NameMe.224
Encoding: 112 8776 112
Width: 666
VWidth: 0
Flags: W
HStem: 166.7 133.3<399.6 466.3> 233.4 133.3<199.6 266.3> 433.3 133.3<399.6 466.3> 500 133.3<199.6 266.3>
VStem: 66.2998 133.3<166.7 233.4 433.3 500> 466.3 133.4<300 366.7 566.6 633.3>
LayerCount: 2
Back
Fore
SplineSet
599.5 366.700195312 m 1x4c
 599.700195312 266.700195312 l 2
 599.700195312 216.700195312 549.700195312 166.700195312 499.700195312 166.700195312 c 2
 333 166.700195312 l 2x8c
 299.599609375 166.700195312 266.299804688 200.099609375 266.299804688 233.400390625 c 1
 199.599609375 233.400390625 l 1x4c
 199.599609375 166.700195312 l 1
 66.2998046875 166.700195312 l 1x8c
 66.2998046875 266.700195312 l 2
 66.2998046875 316.700195312 116.299804688 366.700195312 166.299804688 366.700195312 c 2
 332.900390625 366.700195312 l 2x4c
 366.299804688 366.700195312 399.599609375 333.299804688 399.599609375 300 c 1
 466.299804688 300 l 1x8c
 466.299804688 366.700195312 l 1
 599.5 366.700195312 l 1x4c
599.5 633.299804688 m 1x1c
 599.700195312 533.299804688 l 2
 599.700195312 483.299804688 549.700195312 433.299804688 499.700195312 433.299804688 c 2
 333 433.299804688 l 2x2c
 299.599609375 433.299804688 266.299804688 466.700195312 266.299804688 500 c 1
 199.599609375 500 l 1x1c
 199.599609375 433.299804688 l 1
 66.2998046875 433.299804688 l 1x2c
 66.2998046875 533.299804688 l 2
 66.2998046875 583.299804688 116.299804688 633.299804688 166.299804688 633.299804688 c 2
 332.900390625 633.299804688 l 2x1c
 366.299804688 633.299804688 399.599609375 599.900390625 399.599609375 566.599609375 c 1
 466.299804688 566.599609375 l 1x2c
 466.299804688 633.299804688 l 1
 599.5 633.299804688 l 1x1c
EndSplineSet
Validated: 1
EndChar

StartChar: NameMe.225
Encoding: 113 8260 113
Width: 666
VWidth: 0
Flags: W
HStem: 0 21G<66.4004 225.983> 0 21G<66.4004 225.983> 780 20G<440.118 599.7> 780 20G<440.118 599.7>
LayerCount: 2
Back
Fore
SplineSet
66.400390625 0 m 1xa0
 449.700195312 800 l 1
 599.700195312 800 l 1
 216.400390625 0 l 1
 66.400390625 0 l 1xa0
EndSplineSet
Validated: 1
EndChar

StartChar: acute
Encoding: 114 180 114
Width: 666
VWidth: 0
Flags: W
HStem: 666.7 133.3<399.7 466.4>
LayerCount: 2
Back
Fore
SplineSet
266.400390625 666.700195312 m 1
 399.700195312 800 l 1
 599.700195312 800 l 1
 466.400390625 666.700195312 l 1
 266.400390625 666.700195312 l 1
EndSplineSet
Validated: 1
EndChar

StartChar: mu
Encoding: 115 181 115
Width: 666
VWidth: 0
Flags: W
HStem: 0 21G<272.94 392.97> 780 20G<273.03 392.97>
VStem: 66.2998 133.3<177.7 266.6 511.1 622.2> 466.3 133.3<177.8 288.9 533.4 622.3>
LayerCount: 2
Back
Fore
SplineSet
533 733.299804688 m 2
 565.851543985 720.219644076 599.599833325 683.409322966 599.599833325 633.622559018 c 0
 599.599609375 633.400390625 l 2
 599.599609375 533.400390625 l 1
 466.299804688 533.400390625 l 1
 466.299804688 622.299804688 l 1
 333 666.700195312 l 1
 199.599609375 622.200195312 l 1
 199.599609375 511.099609375 l 1
 533 400 l 2
 565.900390625 386.799804688 599.599609375 350 599.599609375 300 c 2
 599.599609375 166.700195312 l 2
 599.599609375 116.700195312 565.900390625 79.900390625 533 66.7001953125 c 2
 333 0 l 1
 133 66.599609375 l 2
 100.099609375 79.7998046875 66.2998046875 116.599609375 66.2998046875 166.599609375 c 2
 66.2998046875 266.599609375 l 1
 199.700195312 266.599609375 l 1
 199.700195312 177.700195312 l 1
 333 133.299804688 l 1
 466.299804688 177.799804688 l 1
 466.299804688 288.900390625 l 1
 133 400 l 2
 100.099609375 413.200195312 66.2998046875 450 66.2998046875 500 c 2
 66.2998046875 633.299804688 l 2
 66.2998046875 683.299804688 100.099609375 720.099609375 133 733.299804688 c 2
 333 800 l 1
 533 733.299804688 l 2
EndSplineSet
Validated: 1
EndChar

StartChar: paragraph
Encoding: 116 182 116
Width: 666
VWidth: 0
Flags: W
HStem: 0 21G<266.3 399.6 466.3 599.6> 666.3 133.7<399.6 466.3>
VStem: 66.4004 133.199<532.8 600.6> 266.3 133.3<0 333.5 467.2 666.2> 466.3 133.3<0 666.3>
LayerCount: 2
Back
Fore
SplineSet
233 800 m 0
 235.299804688 800 599.599609375 800 599.599609375 800 c 1
 599.599609375 666.299804688 l 1
 599.599609375 0 l 1
 466.299804688 0 l 1
 466.299804688 666.299804688 l 1
 399.599609375 666.299804688 l 1
 399.599609375 0 l 1
 266.299804688 0 l 1
 266.299804688 333.5 l 1
 248.200195312 333.5 235.299804688 333.5 233 333.5 c 0
 196.400390625 333.5 177.5 355.700195312 163.599609375 369.599609375 c 0
 152.5 381.299804688 114.200195312 419.599609375 102.5 430.700195312 c 0
 88.599609375 444.5 66.400390625 463.400390625 66.400390625 500.099609375 c 0
 66.400390625 509.400390625 66.400390625 624 66.400390625 633.400390625 c 0
 66.400390625 670 88.599609375 688.900390625 102.5 702.799804688 c 0
 114.200195312 713.900390625 152.5 752.200195312 163.599609375 763.900390625 c 0
 177.400390625 777.799804688 196.299804688 800 233 800 c 0
266.299804688 467.200195312 m 1
 266.299804688 666.200195312 l 1
 199.599609375 600.599609375 l 1
 199.599609375 600 l 1
 199.599609375 533.400390625 l 1
 199.599609375 532.799804688 l 1
 266.299804688 467.200195312 l 1
EndSplineSet
Validated: 1
EndChar

StartChar: periodcentered
Encoding: 117 183 117
Width: 666
VWidth: 0
Flags: W
HStem: 299.9 200.1<259.425 417.838>
VStem: 238.6 200.101<320.763 479.137>
LayerCount: 2
Back
Fore
SplineSet
238.599609375 433.299804688 m 2
 238.599609375 466.700195312 271.900390625 500 305.299804688 500 c 2
 372 500 l 2
 405.400390625 500 438.700195312 466.599609375 438.700195312 433.299804688 c 2
 438.700195312 366.599609375 l 2
 438.700195312 333.200195312 405.299804688 299.900390625 372 299.900390625 c 2
 305.299804688 299.900390625 l 2
 271.900390625 299.900390625 238.599609375 333.299804688 238.599609375 366.599609375 c 2
 238.599609375 433.299804688 l 2
EndSplineSet
Validated: 1
EndChar

StartChar: cedilla
Encoding: 118 184 118
Width: 666
VWidth: 0
Flags: W
HStem: 0 200.1<399.7 512.237> 0 66.7002<266.4 399.7> 133.4 133.3<266.4 399.7>
VStem: 266.4 133.3<200.1 266.7> 399.7 133.399<66.7002 133.4>
LayerCount: 2
Back
Fore
SplineSet
466.400390625 200.099609375 m 2x90
 499.799804688 200.099609375 533.099609375 166.700195312 533.099609375 133.400390625 c 2
 533.099609375 66.7001953125 l 2x68
 533.099609375 33.2998046875 499.700195312 0 466.400390625 0 c 2x88
 266.400390625 0 l 1
 266.400390625 66.7001953125 l 1x50
 399.700195312 66.7001953125 l 1
 399.700195312 133.400390625 l 1x68
 266.400390625 133.400390625 l 1
 266.400390625 266.700195312 l 1
 399.700195312 266.700195312 l 1x70
 399.700195312 200.099609375 l 1
 466.400390625 200.099609375 l 2x90
EndSplineSet
Validated: 1
EndChar

StartChar: integral
Encoding: 119 8747 119
Width: 666
VWidth: 0
Flags: W
HStem: 0 133.4<66.2998 133> 666.6 133.4<533 599.7>
LayerCount: 2
Back
Fore
SplineSet
533 800 m 2
 599.700195312 800 l 1
 599.700195312 666.599609375 l 1
 533 666.599609375 l 1
 229.5 59.599609375 l 2
 211.200195312 23.099609375 173.900390625 0 133 0 c 2
 66.2998046875 0 l 1
 66.2998046875 133.400390625 l 1
 133 133.400390625 l 1
 436.5 740.400390625 l 2
 454.799804688 776.900390625 492.099609375 800 533 800 c 2
EndSplineSet
Validated: 1
EndChar

StartChar: ordmasculine
Encoding: 120 186 120
Width: 666
VWidth: 0
Flags: W
HStem: 200 133.3<133 533> 400 133.4<266.4 399.7> 666.7 133.3<266.4 399.7>
VStem: 133 133.4<533.4 666.7> 399.7 133.3<533.4 666.7>
LayerCount: 2
Back
Fore
SplineSet
266.400390625 666.700195312 m 1
 266.400390625 533.400390625 l 1
 399.700195312 533.400390625 l 1
 399.700195312 666.700195312 l 1
 266.400390625 666.700195312 l 1
533 700 m 2
 533 500 l 2
 533 450 483 400 433 400 c 2
 233 400 l 2
 183 400 133 450 133 500 c 2
 133 700 l 2
 133 750 183 800 233 800 c 2
 433 800 l 2
 483 800 533 750 533 700 c 2
133 200 m 1
 133 333.299804688 l 1
 533 333.299804688 l 1
 533 200 l 1
 133 200 l 1
EndSplineSet
Validated: 1
EndChar

StartChar: guillemotright
Encoding: 121 187 121
Width: 666
VWidth: 0
Flags: W
LayerCount: 2
Back
Fore
SplineSet
66.2998046875 733.299804688 m 1
 333 483.299804688 l 1
 333 316.700195312 l 1
 66.2998046875 66.7001953125 l 1
 66.2998046875 233.299804688 l 1
 244.099609375 400 l 1
 66.2998046875 566.700195312 l 1
 66.2998046875 733.299804688 l 1
333 566.700195312 m 1
 333 733.299804688 l 1
 599.700195312 483.299804688 l 1
 599.700195312 316.700195312 l 1
 333 66.7001953125 l 1
 333 233.299804688 l 1
 510.799804688 400 l 1
 333 566.700195312 l 1
EndSplineSet
Validated: 1
EndChar

StartChar: onequarter
Encoding: 122 188 122
Width: 666
VWidth: 0
Flags: W
HStem: 0 21G<466.4 599.7> 333.5 133.2<266.4 466.4> 666.8 133.2<265.9 333.1>
VStem: 66.5 133.2<532.9 600.1> 466.4 133.3<0 333.5 466.7 800>
LayerCount: 2
Back
Fore
SplineSet
466.400390625 800 m 1
 599.700195312 800 l 1
 599.700195312 0 l 1
 466.400390625 0 l 1
 466.400390625 333.5 l 1
 466.400390625 333.5 242.5 333.5 233.099609375 333.5 c 0
 196.5 333.5 177.599609375 355.700195312 163.700195312 369.599609375 c 0
 152.599609375 381.299804688 114.299804688 419.599609375 102.599609375 430.700195312 c 0
 88.7001953125 444.5 66.5 463.400390625 66.5 500.099609375 c 0
 66.5 502.900390625 66.5 633.400390625 66.5 633.400390625 c 2
 66.5 670 88.7001953125 688.900390625 102.599609375 702.799804688 c 0
 114.299804688 713.900390625 152.599609375 752.200195312 163.700195312 763.900390625 c 0
 177.5 777.799804688 196.400390625 800 233.099609375 800 c 0
 235.5 800 277.900390625 800 333.099609375 800 c 1
 333.099609375 666.799804688 l 1
 265.900390625 666.799804688 l 1
 200.299804688 600.099609375 l 1
 199.700195312 532.900390625 l 1
 266.400390625 467.299804688 l 1
 266.400390625 466.700195312 l 1
 466.400390625 466.700195312 l 1
 466.400390625 800 l 1
EndSplineSet
Validated: 1
EndChar

StartChar: onehalf
Encoding: 123 189 123
Width: 666
VWidth: 0
Flags: W
HStem: 0.200195 133.1<266 599.7> 666.7 133.3<265.8 399.7>
VStem: 66.4004 133.199<532.9 600> 466.4 133.199<533.3 600>
LayerCount: 2
Back
Fore
SplineSet
563.299804688 430.599609375 m 0
 551.700195312 419.400390625 266 133.299804688 266 133.299804688 c 1
 599.700195312 133.299804688 l 1
 599.700195312 0.2001953125 l 1
 66.599609375 0.2001953125 l 1
 66.599609375 1.2998046875 l 1
 66.599609375 1.2998046875 66.599609375 90.7998046875 66.599609375 100.200195312 c 0
 66.599609375 136.799804688 88.7998046875 155.700195312 102.700195312 169.599609375 c 0
 108.099609375 174.700195312 184.900390625 251.700195312 266.599609375 333.5 c 1
 250.299804688 333.5 236.400390625 333.5 233 333.5 c 0
 196.400390625 333.5 177.5 355.700195312 163.599609375 369.599609375 c 0
 152.5 381.299804688 114.200195312 419.599609375 102.5 430.700195312 c 0
 88.599609375 444.5 66.400390625 463.400390625 66.400390625 500.099609375 c 0
 66.400390625 503.400390625 66.400390625 630 66.400390625 633.400390625 c 0
 66.400390625 670 88.599609375 688.900390625 102.5 702.799804688 c 0
 114.200195312 713.900390625 152.5 752.200195312 163.599609375 763.900390625 c 0
 177.400390625 777.799804688 196.299804688 800 233 800 c 0
 242.400390625 800 423.599609375 800 433 800 c 0
 469.599609375 800 488.5 777.799804688 502.400390625 763.799804688 c 0
 513.5 752.099609375 551.799804688 713.799804688 563.5 702.700195312 c 0
 577.400390625 688.900390625 599.599609375 670 599.599609375 633.299804688 c 0
 599.599609375 623.900390625 599.400390625 500 599.400390625 500 c 2
 599.400390625 463.400390625 577.200195312 444.5 563.299804688 430.599609375 c 0
266.299804688 466.700195312 m 1
 266.299804688 466.599609375 l 1
 399.700195312 466.599609375 l 1
 439.099609375 506.099609375 466.200195312 533.299804688 466.200195312 533.299804688 c 1
 466.400390625 533.299804688 l 1
 466.400390625 600 l 1
 399.700195312 666.700195312 l 1
 265.799804688 666.700195312 l 1
 200.200195312 600 l 1
 199.599609375 600 l 1
 199.599609375 534.599609375 l 1
 199.599609375 533.5 l 1
 199.599609375 532.900390625 l 1
 266.299804688 467.299804688 l 1
 266.299804688 466.700195312 l 1
EndSplineSet
Validated: 1
EndChar

StartChar: threequarters
Encoding: 124 190 124
Width: 666
VWidth: 0
Flags: W
HStem: 0.0996094 133.101<265.8 399.7> 666.7 133.3<66.4004 433>
VStem: 66.4004 133.199<200 266.7> 466.4 133.199<199.4 266.7>
LayerCount: 2
Back
Fore
SplineSet
599.700195312 800 m 1
 599.700195312 666.599609375 l 1
 433 466.599609375 l 1
 469.599609375 466.599609375 488.5 444.400390625 502.400390625 430.5 c 0
 513.5 418.799804688 551.799804688 380.5 563.5 369.400390625 c 0
 577.400390625 355.599609375 599.599609375 336.700195312 599.599609375 300 c 0
 599.599609375 290.599609375 599.599609375 176.099609375 599.599609375 166.700195312 c 0
 599.599609375 130.099609375 577.400390625 111.200195312 563.5 97.2998046875 c 0
 551.799804688 86.2001953125 513.5 47.900390625 502.400390625 36.2001953125 c 0
 488.599609375 22.2998046875 469.700195312 0.099609375 433 0.099609375 c 0
 423.599609375 0.099609375 242.400390625 0.099609375 233 0.099609375 c 0
 196.400390625 0.099609375 177.5 22.2998046875 163.599609375 36.2001953125 c 0
 152.5 47.900390625 114.200195312 86.2001953125 102.5 97.2998046875 c 0
 88.599609375 111.099609375 66.400390625 130 66.400390625 166.700195312 c 0
 66.400390625 168.200195312 66.400390625 266.700195312 66.400390625 266.700195312 c 1
 199.599609375 266.700195312 l 1
 199.599609375 200 l 1
 200.200195312 200 l 1
 265.799804688 133.200195312 l 1
 399.700195312 133.200195312 l 1
 399.700195312 133.799804688 l 1
 466.400390625 199.400390625 l 1
 466.400390625 200 l 1
 466.400390625 201.099609375 l 1
 466.400390625 266.700195312 l 1
 465.799804688 266.700195312 l 1
 400.200195312 333.400390625 l 1
 266.299804688 333.400390625 l 1
 266.299804688 466.700195312 l 1
 433 666.700195312 l 1
 66.400390625 666.700195312 l 1
 66.400390625 800 l 1
 599.700195312 800 l 1
EndSplineSet
Validated: 1
EndChar

StartChar: questiondown
Encoding: 125 191 125
Width: 666
VWidth: 0
Flags: W
HStem: 0 133.3<265.899 399.8> 600 200<254.062 412.437>
VStem: 233.2 200.1<620.812 779.137> 466.5 133.3<200 266.6>
LayerCount: 2
Back
Fore
SplineSet
299.899414062 600 m 6
 266.5 600 233.200195312 633.299804688 233.200195312 666.599609375 c 6
 233.200195312 733.299804688 l 6
 233.200195312 766.700195312 266.599609375 800 299.899414062 800 c 6
 366.599609375 800 l 6
 399.899414062 800 433.299804688 766.599609375 433.299804688 733.299804688 c 6
 433.299804688 666.599609375 l 6
 433.299804688 633.299804688 399.899414062 600 366.599609375 600 c 6
 299.899414062 600 l 6
102.700195312 97.2001953125 m 4
 88.7998046875 111.099609375 66.599609375 130 66.5 166.799804688 c 4
 66.5 176.299804688 66.5 257.200195312 66.5 266.400390625 c 4
 66.5 303 88.7001953125 321.900390625 102.599609375 335.799804688 c 4
 114.299804688 346.900390625 152.599609375 385.200195312 163.700195312 396.900390625 c 4
 177.5 410.799804688 196.399414062 433 233.099609375 433 c 4
 242.5 433 266.399414062 433 266.399414062 433 c 5
 266.399414062 466.700195312 l 5
 299.799804688 533.400390625 l 5
 366.5 533.400390625 l 5
 399.799804688 466.700195312 l 5
 399.799804688 400 l 6
 399.799804688 350 349.599609375 300 299.599609375 300 c 6
 266 300 l 5
 199.799804688 232.900390625 l 5
 199.799804688 200 l 5
 265.899414062 133.299804688 l 5
 399.799804688 133.299804688 l 5
 466.5 200 l 5
 466.5 266.599609375 l 5
 599.799804688 266.599609375 l 5
 599.799804688 266.599609375 599.799804688 266.599609375 599.799804688 166.599609375 c 4
 599.799804688 130 577.599609375 111.099609375 563.700195312 97.2001953125 c 4
 552 86.099609375 513.700195312 47.7998046875 502.599609375 36.099609375 c 4
 488.799804688 22.2001953125 469.899414062 0 433.200195312 0 c 4
 423.799804688 0 242.599609375 0 233.200195312 0 c 4
 196.599609375 0 177.700195312 22.2001953125 163.799804688 36.099609375 c 4
 152.700195312 47.7998046875 114.399414062 86.099609375 102.700195312 97.2001953125 c 4
EndSplineSet
Validated: 1
EndChar

StartChar: Agrave
Encoding: 126 192 126
Width: 666
VWidth: 0
Flags: W
HStem: 0.0996094 20.9004G<66.4004 199.7 466.4 599.7> 133.4 133.199<199.7 466.4> 466.8 133.2<266.4 399.7> 666.7 133.3<199.7 266.4>
VStem: 66.4004 133.3<0.0996094 133.4 266.6 400.6> 466.4 133.3<0 133.4 266.6 400.6>
LayerCount: 2
Back
Fore
SplineSet
563.599609375 502.799804688 m 0
 577.5 488.900390625 599.700195312 470.599609375 599.700195312 433.299804688 c 0
 599.700195312 423.900390625 599.700195312 0 599.700195312 0 c 1
 466.400390625 0 l 1
 466.400390625 133.400390625 l 1
 199.700195312 133.400390625 l 1
 199.700195312 0.099609375 l 1
 66.400390625 0.099609375 l 1
 66.400390625 0.099609375 66.400390625 424 66.400390625 433.400390625 c 0
 66.400390625 470 88.599609375 488.900390625 102.5 502.799804688 c 0
 114.200195312 513.900390625 152.5 552.200195312 163.599609375 563.900390625 c 0
 177.400390625 577.799804688 196.299804688 600 233 600 c 0
 242.400390625 600 423.599609375 600 433 600 c 0
 469.700195312 600 488.599609375 577.799804688 502.5 563.900390625 c 0
 513.599609375 552.200195312 551.900390625 513.900390625 563.599609375 502.799804688 c 0
466.400390625 399.400390625 m 1
 466.400390625 400.599609375 l 1
 399.700195312 466.200195312 l 1
 399.700195312 466.799804688 l 1
 266.400390625 466.799804688 l 1
 266.400390625 466.200195312 l 1
 199.700195312 400.599609375 l 1
 199.700195312 266.599609375 l 1
 466.400390625 266.599609375 l 1
 466.400390625 399.400390625 l 1
399.700195312 666.700195312 m 1
 199.700195312 666.700195312 l 1
 66.400390625 800 l 1
 266.400390625 800 l 1
 399.700195312 666.700195312 l 1
EndSplineSet
Validated: 1
EndChar

StartChar: Aacute
Encoding: 127 193 127
Width: 666
VWidth: 0
Flags: W
HStem: 0.0996094 20.9004G<66.4004 199.7 466.4 599.7> 133.4 133.199<199.7 466.4> 466.8 133.2<266.4 399.7> 666.7 133.3<399.7 466.4>
VStem: 66.4004 133.3<0.0996094 133.4 266.6 400.6> 466.4 133.3<0 133.4 266.6 400.6>
LayerCount: 2
Back
Fore
SplineSet
563.599609375 502.799804688 m 0
 577.5 488.900390625 599.700195312 470.599609375 599.700195312 433.299804688 c 0
 599.700195312 423.900390625 599.700195312 0 599.700195312 0 c 1
 466.400390625 0 l 1
 466.400390625 133.400390625 l 1
 199.700195312 133.400390625 l 1
 199.700195312 0.099609375 l 1
 66.400390625 0.099609375 l 1
 66.400390625 0.099609375 66.400390625 424 66.400390625 433.400390625 c 0
 66.400390625 470 88.599609375 488.900390625 102.5 502.799804688 c 0
 114.200195312 513.900390625 152.5 552.200195312 163.599609375 563.900390625 c 0
 177.400390625 577.799804688 196.299804688 600 233 600 c 0
 242.400390625 600 423.599609375 600 433 600 c 0
 469.700195312 600 488.599609375 577.799804688 502.5 563.900390625 c 0
 513.599609375 552.200195312 551.900390625 513.900390625 563.599609375 502.799804688 c 0
466.400390625 399.400390625 m 1
 466.400390625 400.599609375 l 1
 399.700195312 466.200195312 l 1
 399.700195312 466.799804688 l 1
 266.400390625 466.799804688 l 1
 266.400390625 466.200195312 l 1
 199.700195312 400.599609375 l 1
 199.700195312 266.599609375 l 1
 466.400390625 266.599609375 l 1
 466.400390625 399.400390625 l 1
266.400390625 666.700195312 m 1
 399.700195312 800 l 1
 599.700195312 800 l 1
 466.400390625 666.700195312 l 1
 266.400390625 666.700195312 l 1
EndSplineSet
Validated: 1
EndChar

StartChar: Acircumflex
Encoding: 128 194 128
Width: 666
VWidth: 0
Flags: W
HStem: 0.0996094 20.9004G<66.4004 199.7 466.4 599.7> 133.4 133.199<199.7 466.4> 466.8 133.2<266.4 399.7> 666.7 133.3<199.7 266.4 399.7 466.4>
VStem: 66.4004 133.3<0.0996094 133.4 266.6 400.6> 466.4 133.3<0 133.4 266.6 400.6>
LayerCount: 2
Back
Fore
SplineSet
563.599609375 502.799804688 m 0
 577.5 488.900390625 599.700195312 470.599609375 599.700195312 433.299804688 c 0
 599.700195312 423.900390625 599.700195312 0 599.700195312 0 c 1
 466.400390625 0 l 1
 466.400390625 133.400390625 l 1
 199.700195312 133.400390625 l 1
 199.700195312 0.099609375 l 1
 66.400390625 0.099609375 l 1
 66.400390625 0.099609375 66.400390625 424 66.400390625 433.400390625 c 0
 66.400390625 470 88.599609375 488.900390625 102.5 502.799804688 c 0
 114.200195312 513.900390625 152.5 552.200195312 163.599609375 563.900390625 c 0
 177.400390625 577.799804688 196.299804688 600 233 600 c 0
 242.400390625 600 423.599609375 600 433 600 c 0
 469.700195312 600 488.599609375 577.799804688 502.5 563.900390625 c 0
 513.599609375 552.200195312 551.900390625 513.900390625 563.599609375 502.799804688 c 0
466.400390625 399.400390625 m 1
 466.400390625 400.599609375 l 1
 399.700195312 466.200195312 l 1
 399.700195312 466.799804688 l 1
 266.400390625 466.799804688 l 1
 266.400390625 466.200195312 l 1
 199.700195312 400.599609375 l 1
 199.700195312 266.599609375 l 1
 466.400390625 266.599609375 l 1
 466.400390625 399.400390625 l 1
599.700195312 666.700195312 m 1
 399.700195312 666.700195312 l 1
 333 733.299804688 l 1
 266.400390625 666.700195312 l 1
 66.400390625 666.700195312 l 1
 199.700195312 800 l 1
 466.400390625 800 l 1
 599.700195312 666.700195312 l 1
EndSplineSet
Validated: 1
EndChar

StartChar: Atilde
Encoding: 129 195 129
Width: 666
VWidth: 0
Flags: W
HStem: 0.0996094 20.9004G<66.4004 199.7 466.4 599.7> 133.4 133.199<199.7 466.4> 466.8 133.2<266.4 399.7> 666.7 133.3<66.4004 599.7>
VStem: 66.4004 133.3<0.0996094 133.4 266.6 400.6> 466.4 133.3<0 133.4 266.6 400.6>
LayerCount: 2
Back
Fore
SplineSet
563.599609375 502.799804688 m 0
 577.5 488.900390625 599.700195312 470.599609375 599.700195312 433.299804688 c 0
 599.700195312 423.900390625 599.700195312 0 599.700195312 0 c 1
 466.400390625 0 l 1
 466.400390625 133.400390625 l 1
 199.700195312 133.400390625 l 1
 199.700195312 0.099609375 l 1
 66.400390625 0.099609375 l 1
 66.400390625 0.099609375 66.400390625 424 66.400390625 433.400390625 c 0
 66.400390625 470 88.599609375 488.900390625 102.5 502.799804688 c 0
 114.200195312 513.900390625 152.5 552.200195312 163.599609375 563.900390625 c 0
 177.400390625 577.799804688 196.299804688 600 233 600 c 0
 242.400390625 600 423.599609375 600 433 600 c 0
 469.700195312 600 488.599609375 577.799804688 502.5 563.900390625 c 0
 513.599609375 552.200195312 551.900390625 513.900390625 563.599609375 502.799804688 c 0
466.400390625 399.400390625 m 1
 466.400390625 400.599609375 l 1
 399.700195312 466.200195312 l 1
 399.700195312 466.799804688 l 1
 266.400390625 466.799804688 l 1
 266.400390625 466.200195312 l 1
 199.700195312 400.599609375 l 1
 199.700195312 266.599609375 l 1
 466.400390625 266.599609375 l 1
 466.400390625 399.400390625 l 1
66.400390625 666.700195312 m 1
 66.400390625 800 l 1
 599.700195312 800 l 1
 599.700195312 666.700195312 l 1
 66.400390625 666.700195312 l 1
EndSplineSet
Validated: 1
EndChar

StartChar: Adieresis
Encoding: 130 196 130
Width: 666
VWidth: 0
Flags: W
HStem: 0.0996094 20.9004G<66.4004 199.7 466.4 599.7> 133.4 133.199<199.7 466.4> 466.8 133.2<266.4 399.7> 666.7 133.3<66.4004 199.7 466.4 599.7>
VStem: 66.4004 133.3<0.0996094 133.4 266.6 400.6 666.7 800> 466.4 133.3<0 133.4 266.6 400.6 666.7 800>
LayerCount: 2
Back
Fore
SplineSet
66.400390625 666.700195312 m 1
 66.400390625 800 l 1
 199.700195312 800 l 1
 199.700195312 666.700195312 l 1
 66.400390625 666.700195312 l 1
466.400390625 666.700195312 m 1
 466.400390625 800 l 1
 599.700195312 800 l 1
 599.700195312 666.700195312 l 1
 466.400390625 666.700195312 l 1
563.599609375 502.799804688 m 0
 577.5 488.900390625 599.700195312 470.599609375 599.700195312 433.299804688 c 0
 599.700195312 423.900390625 599.700195312 0 599.700195312 0 c 1
 466.400390625 0 l 1
 466.400390625 133.400390625 l 1
 199.700195312 133.400390625 l 1
 199.700195312 0.099609375 l 1
 66.400390625 0.099609375 l 1
 66.400390625 0.099609375 66.400390625 424 66.400390625 433.400390625 c 0
 66.400390625 470 88.599609375 488.900390625 102.5 502.799804688 c 0
 114.200195312 513.900390625 152.5 552.200195312 163.599609375 563.900390625 c 0
 177.400390625 577.799804688 196.299804688 600 233 600 c 0
 242.400390625 600 423.599609375 600 433 600 c 0
 469.700195312 600 488.599609375 577.799804688 502.5 563.900390625 c 0
 513.599609375 552.200195312 551.900390625 513.900390625 563.599609375 502.799804688 c 0
466.400390625 399.400390625 m 1
 466.400390625 400.599609375 l 1
 399.700195312 466.200195312 l 1
 399.700195312 466.799804688 l 1
 266.400390625 466.799804688 l 1
 266.400390625 466.200195312 l 1
 199.700195312 400.599609375 l 1
 199.700195312 266.599609375 l 1
 466.400390625 266.599609375 l 1
 466.400390625 399.400390625 l 1
EndSplineSet
Validated: 1
EndChar

StartChar: Aring
Encoding: 131 197 131
Width: 666
VWidth: 0
Flags: W
HStem: 0 21G<66.4004 199.7 466.4 599.7> 133.3 133.2<199.7 466.3> 466.7 133.2<266.3 299.7 366.3 399.6> 733.3 66.7002<299.6 366.3>
VStem: 66.4004 133.199<0 133.3 266.5 400.5> 233 66.5996<666.6 733.3> 366.3 66.7002<666.6 733.3> 466.4 133.3<0 133.3 266.5 400.5>
LayerCount: 2
Back
Fore
SplineSet
563.5 502.799804688 m 0
 577.400390625 488.900390625 599.700195312 470.599609375 599.700195312 433.299804688 c 0
 599.700195312 423.900390625 599.700195312 0 599.700195312 0 c 1
 466.400390625 0 l 1
 466.400390625 133.299804688 l 1
 199.700195312 133.299804688 l 1
 199.700195312 0 l 1
 66.400390625 0 l 1
 66.400390625 0 66.400390625 423.900390625 66.400390625 433.299804688 c 0
 66.400390625 469.900390625 88.599609375 488.799804688 102.5 502.700195312 c 0
 114.200195312 513.799804688 152.5 552.099609375 163.599609375 563.799804688 c 0
 177.400390625 577.700195312 196.299804688 599.900390625 233 599.900390625 c 0
 236.599609375 599.900390625 265.200195312 599.900390625 299.700195312 599.900390625 c 1
 266.299804688 599.900390625 233 633.299804688 233 666.599609375 c 2
 233 733.299804688 l 2
 233 766.700195312 266.299804688 800 299.599609375 800 c 2
 366.299804688 800 l 2
 399.599609375 800 433 766.700195312 433 733.299804688 c 2
 433 666.700195312 l 2
 433 633.299804688 399.599609375 600 366.299804688 600 c 1
 400.799804688 600 429.400390625 600 433 600 c 0
 469.599609375 600 488.5 577.799804688 502.400390625 563.900390625 c 0
 513.5 552.200195312 551.799804688 513.900390625 563.5 502.799804688 c 0
299.599609375 733.299804688 m 1
 299.599609375 666.599609375 l 1
 366.299804688 666.599609375 l 1
 366.299804688 733.299804688 l 1
 299.599609375 733.299804688 l 1
466.299804688 399.400390625 m 1
 466.299804688 400.5 l 1
 399.599609375 466.099609375 l 1
 399.599609375 466.700195312 l 1
 266.299804688 466.700195312 l 1
 266.299804688 466.099609375 l 1
 199.599609375 400.5 l 1
 199.599609375 266.5 l 1
 466.299804688 266.5 l 1
 466.299804688 399.400390625 l 1
EndSplineSet
Validated: 1
EndChar

StartChar: AE
Encoding: 132 198 132
Width: 666
VWidth: 0
Flags: W
HStem: 0 133.3<466.3 599.7> 133.3 133.4<199.7 333> 333.3 133.4<466.3 566.3> 666.7 133.3<265.8 333 466.3 599.7>
VStem: 66.4004 133.199<0.0996094 133.3 266.7 600> 333 133.3<266.7 333.3 466.7 666.7>
LayerCount: 2
Back
Fore
SplineSet
599.700195312 666.700195312 m 1x7c
 466.299804688 666.700195312 l 1
 466.299804688 466.700195312 l 1
 566.299804688 466.700195312 l 1
 566.299804688 333.299804688 l 1
 466.299804688 333.299804688 l 1
 466.299804688 133.299804688 l 1
 599.700195312 133.299804688 l 1
 599.700195312 0 l 1
 333 0 l 1xbc
 333 133.299804688 l 1
 199.700195312 133.299804688 l 1
 199.700195312 0.099609375 l 1
 66.400390625 0.099609375 l 1
 66.400390625 0.099609375 66.400390625 624 66.400390625 633.400390625 c 0
 66.400390625 670 88.599609375 688.900390625 102.5 702.799804688 c 0
 114.200195312 713.900390625 152.5 752.200195312 163.599609375 763.900390625 c 0
 177.400390625 777.799804688 196.299804688 800 233 800 c 0
 236.799804688 800 599.700195312 800 599.700195312 800 c 1
 599.700195312 666.700195312 l 1x7c
333 266.700195312 m 1x7c
 333 666.700195312 l 1
 265.799804688 666.700195312 l 1
 200.200195312 600 l 1
 199.599609375 600 l 1
 199.599609375 266.700195312 l 1
 333 266.700195312 l 1x7c
EndSplineSet
Validated: 1
EndChar

StartChar: Ccedilla
Encoding: 133 199 133
Width: 666
VWidth: 0
Flags: W
HStem: 0 200<399.7 512.237> 0 66.7002<266.4 399.6> 666.7 133.3<265.8 400.2>
VStem: 66.4004 133.199<466.7 600> 266.3 133.4<200 266.7> 399.6 133.5<66.7002 133.4> 466.4 133.199<466.6 500.5 566.1 600>
LayerCount: 2
Back
Fore
SplineSet
599.700195312 566.099609375 m 1x78
 466.400390625 566.099609375 l 1
 466.400390625 600 l 1
 465.799804688 600 l 1
 400.200195312 666.700195312 l 1
 265.799804688 666.700195312 l 1
 200.200195312 600 l 1
 199.599609375 600 l 1
 199.599609375 466.700195312 l 1
 200.200195312 466.700195312 l 1
 265.799804688 400 l 1
 400.200195312 400 l 1
 465.799804688 466.599609375 l 1
 466.400390625 466.599609375 l 1
 466.400390625 500.5 l 1
 599.599609375 500.5 l 1
 599.599609375 500.5 599.599609375 442.700195312 599.599609375 433.299804688 c 0
 599.599609375 396.700195312 577.400390625 377.799804688 563.5 363.900390625 c 0
 551.799804688 352.799804688 513.5 314.5 502.400390625 302.799804688 c 0
 488.599609375 288.900390625 469.700195312 266.700195312 433 266.700195312 c 0
 430.700195312 266.700195312 417.799804688 266.700195312 399.700195312 266.700195312 c 1
 399.700195312 200 l 1
 466.400390625 200 l 2xba
 499.799804688 200 533.099609375 166.599609375 533.099609375 133.299804688 c 2
 533.099609375 66.599609375 l 2xb4
 533.099609375 33.2001953125 499.700195312 0 466.400390625 0 c 2xb2
 266.400390625 0 l 1
 266.400390625 66.7001953125 l 1
 399.599609375 66.7001953125 l 1
 399.599609375 133.400390625 l 1x74
 266.299804688 133.400390625 l 1
 266.299804688 266.799804688 l 1
 248.200195312 266.799804688 235.299804688 266.799804688 233 266.799804688 c 0
 196.400390625 266.799804688 177.5 289 163.599609375 302.900390625 c 0
 152.5 314.599609375 114.200195312 352.900390625 102.5 364 c 0
 88.599609375 377.799804688 66.400390625 396.700195312 66.400390625 433.400390625 c 0
 66.400390625 442.799804688 66.400390625 624 66.400390625 633.400390625 c 0
 66.400390625 670 88.599609375 688.900390625 102.5 702.799804688 c 0
 114.200195312 713.900390625 152.5 752.200195312 163.599609375 763.900390625 c 0
 177.400390625 777.799804688 196.299804688 800 233 800 c 0
 242.400390625 800 423.599609375 800 433 800 c 0
 469.700195312 800 488.599609375 777.799804688 502.5 763.799804688 c 0
 513.599609375 752.099609375 551.900390625 713.799804688 563.599609375 702.700195312 c 0
 577.5 688.900390625 599.700195312 670 599.700195312 633.299804688 c 0
 599.700195312 623.900390625 599.700195312 566.099609375 599.700195312 566.099609375 c 1x78
EndSplineSet
Validated: 1
EndChar

StartChar: Egrave
Encoding: 134 200 134
Width: 666
VWidth: 0
Flags: W
HStem: 0.0996094 199.9<199.809 200.2 466.4 599.6> 0.0996094 133.2<265.8 466.4> 233.3 133.4<199.6 399.6> 400 200<199.74 200.2 466.4 599.7> 466.7 133.3<265.8 466.4> 666.7 133.3<199.7 266.4>
VStem: 66.4004 133.199<200 233.3 366.7 400> 466.4 133.199<133.3 200 400 466.7>
LayerCount: 2
Back
Fore
SplineSet
233 600 m 0x6f
 238.5 600 599.700195312 600 599.700195312 600 c 1
 599.700195312 400 l 1
 466.400390625 400 l 1x37
 466.400390625 466.700195312 l 1
 265.799804688 466.700195312 l 1x2f
 200.200195312 400 l 1
 199.599609375 400 l 1
 199.599609375 398.799804688 l 1
 199.599609375 366.700195312 l 1
 399.599609375 366.700195312 l 1
 399.599609375 233.299804688 l 1
 199.599609375 233.299804688 l 1
 199.599609375 200 l 1
 200.200195312 200 l 1xb7
 265.799804688 133.299804688 l 1
 266.400390625 133.299804688 l 1
 466.400390625 133.299804688 l 1x67
 466.400390625 200 l 1
 599.599609375 200 l 1
 599.599609375 0.099609375 l 1xa7
 599.599609375 0.099609375 538.599609375 0.099609375 466.299804688 0.099609375 c 0
 363.700195312 0.099609375 238.5 0.099609375 233 0.099609375 c 0
 196.400390625 0.099609375 177.5 22.2998046875 163.599609375 36.2001953125 c 0
 152.5 47.900390625 114.200195312 86.2001953125 102.5 97.2998046875 c 0
 88.599609375 111.099609375 66.400390625 130 66.400390625 166.700195312 c 0
 66.400390625 176.200195312 66.400390625 424 66.400390625 433.400390625 c 0
 66.400390625 470 88.599609375 488.900390625 102.5 502.799804688 c 0
 114.200195312 513.900390625 152.5 552.200195312 163.599609375 563.900390625 c 0
 177.400390625 577.799804688 196.299804688 600 233 600 c 0x6f
399.700195312 666.700195312 m 1
 199.700195312 666.700195312 l 1
 66.400390625 800 l 1
 266.400390625 800 l 1
 399.700195312 666.700195312 l 1
EndSplineSet
Validated: 1
EndChar

StartChar: Eacute
Encoding: 135 201 135
Width: 666
VWidth: 0
Flags: W
HStem: 0.0996094 199.9<199.809 200.2 466.4 599.6> 0.0996094 133.2<265.8 466.4> 233.3 133.4<199.6 399.6> 400 200<199.74 200.2 466.4 599.7> 466.7 133.3<265.8 466.4> 666.7 133.3<399.7 466.4>
VStem: 66.4004 133.199<200 233.3 366.7 400> 466.4 133.199<133.3 200 400 466.7>
LayerCount: 2
Back
Fore
SplineSet
233 600 m 0x6f
 238.5 600 599.700195312 600 599.700195312 600 c 1
 599.700195312 400 l 1
 466.400390625 400 l 1x37
 466.400390625 466.700195312 l 1
 265.799804688 466.700195312 l 1x2f
 200.200195312 400 l 1
 199.599609375 400 l 1
 199.599609375 398.799804688 l 1
 199.599609375 366.700195312 l 1
 399.599609375 366.700195312 l 1
 399.599609375 233.299804688 l 1
 199.599609375 233.299804688 l 1
 199.599609375 200 l 1
 200.200195312 200 l 1xb7
 265.799804688 133.299804688 l 1
 266.400390625 133.299804688 l 1
 466.400390625 133.299804688 l 1x67
 466.400390625 200 l 1
 599.599609375 200 l 1
 599.599609375 0.099609375 l 1xa7
 599.599609375 0.099609375 538.599609375 0.099609375 466.299804688 0.099609375 c 0
 363.700195312 0.099609375 238.5 0.099609375 233 0.099609375 c 0
 196.400390625 0.099609375 177.5 22.2998046875 163.599609375 36.2001953125 c 0
 152.5 47.900390625 114.200195312 86.2001953125 102.5 97.2998046875 c 0
 88.599609375 111.099609375 66.400390625 130 66.400390625 166.700195312 c 0
 66.400390625 176.200195312 66.400390625 424 66.400390625 433.400390625 c 0
 66.400390625 470 88.599609375 488.900390625 102.5 502.799804688 c 0
 114.200195312 513.900390625 152.5 552.200195312 163.599609375 563.900390625 c 0
 177.400390625 577.799804688 196.299804688 600 233 600 c 0x6f
266.400390625 666.700195312 m 1
 399.700195312 800 l 1
 599.700195312 800 l 1
 466.400390625 666.700195312 l 1
 266.400390625 666.700195312 l 1
EndSplineSet
Validated: 1
EndChar

StartChar: Ecircumflex
Encoding: 136 202 136
Width: 666
VWidth: 0
Flags: W
HStem: 0.0996094 199.9<199.809 200.2 466.4 599.6> 0.0996094 133.2<265.8 466.4> 233.3 133.4<199.6 399.6> 400 200<199.74 200.2 466.4 599.7> 466.7 133.3<265.8 466.4> 666.7 133.3<199.7 266.4 399.7 466.4>
VStem: 66.4004 133.199<200 233.3 366.7 400> 466.4 133.199<133.3 200 400 466.7>
LayerCount: 2
Back
Fore
SplineSet
233 600 m 0x6f
 238.5 600 599.700195312 600 599.700195312 600 c 1
 599.700195312 400 l 1
 466.400390625 400 l 1x37
 466.400390625 466.700195312 l 1
 265.799804688 466.700195312 l 1x2f
 200.200195312 400 l 1
 199.599609375 400 l 1
 199.599609375 398.799804688 l 1
 199.599609375 366.700195312 l 1
 399.599609375 366.700195312 l 1
 399.599609375 233.299804688 l 1
 199.599609375 233.299804688 l 1
 199.599609375 200 l 1
 200.200195312 200 l 1xb7
 265.799804688 133.299804688 l 1
 266.400390625 133.299804688 l 1
 466.400390625 133.299804688 l 1x67
 466.400390625 200 l 1
 599.599609375 200 l 1
 599.599609375 0.099609375 l 1xa7
 599.599609375 0.099609375 538.599609375 0.099609375 466.299804688 0.099609375 c 0
 363.700195312 0.099609375 238.5 0.099609375 233 0.099609375 c 0
 196.400390625 0.099609375 177.5 22.2998046875 163.599609375 36.2001953125 c 0
 152.5 47.900390625 114.200195312 86.2001953125 102.5 97.2998046875 c 0
 88.599609375 111.099609375 66.400390625 130 66.400390625 166.700195312 c 0
 66.400390625 176.200195312 66.400390625 424 66.400390625 433.400390625 c 0
 66.400390625 470 88.599609375 488.900390625 102.5 502.799804688 c 0
 114.200195312 513.900390625 152.5 552.200195312 163.599609375 563.900390625 c 0
 177.400390625 577.799804688 196.299804688 600 233 600 c 0x6f
599.700195312 666.700195312 m 1
 399.700195312 666.700195312 l 1
 333 733.299804688 l 1
 266.400390625 666.700195312 l 1
 66.400390625 666.700195312 l 1
 199.700195312 800 l 1
 466.400390625 800 l 1
 599.700195312 666.700195312 l 1
EndSplineSet
Validated: 1
EndChar

StartChar: Edieresis
Encoding: 137 203 137
Width: 666
VWidth: 0
Flags: W
HStem: 0.0996094 199.9<199.809 200.2 466.4 599.6> 0.0996094 133.2<265.8 466.4> 233.3 133.4<199.6 399.6> 400 200<199.74 200.2 466.4 599.7> 466.7 133.3<265.8 466.4> 666.7 133.3<66.4004 199.7 466.4 599.7>
VStem: 66.4004 133.199<200 233.3 366.7 400 666.7 800> 466.4 133.3<133.3 200 400 466.7 666.7 800>
LayerCount: 2
Back
Fore
SplineSet
66.400390625 666.700195312 m 1x27
 66.400390625 800 l 1
 199.700195312 800 l 1
 199.700195312 666.700195312 l 1
 66.400390625 666.700195312 l 1x27
466.400390625 666.700195312 m 1
 466.400390625 800 l 1
 599.700195312 800 l 1
 599.700195312 666.700195312 l 1
 466.400390625 666.700195312 l 1
233 600 m 0x6f
 238.5 600 599.700195312 600 599.700195312 600 c 1
 599.700195312 400 l 1
 466.400390625 400 l 1x37
 466.400390625 466.700195312 l 1
 265.799804688 466.700195312 l 1x2f
 200.200195312 400 l 1
 199.599609375 400 l 1
 199.599609375 398.799804688 l 1
 199.599609375 366.700195312 l 1
 399.599609375 366.700195312 l 1
 399.599609375 233.299804688 l 1
 199.599609375 233.299804688 l 1
 199.599609375 200 l 1
 200.200195312 200 l 1xb7
 265.799804688 133.299804688 l 1
 266.400390625 133.299804688 l 1
 466.400390625 133.299804688 l 1x67
 466.400390625 200 l 1
 599.599609375 200 l 1
 599.599609375 0.099609375 l 1xa7
 599.599609375 0.099609375 538.599609375 0.099609375 466.299804688 0.099609375 c 0
 363.700195312 0.099609375 238.5 0.099609375 233 0.099609375 c 0
 196.400390625 0.099609375 177.5 22.2998046875 163.599609375 36.2001953125 c 0
 152.5 47.900390625 114.200195312 86.2001953125 102.5 97.2998046875 c 0
 88.599609375 111.099609375 66.400390625 130 66.400390625 166.700195312 c 0
 66.400390625 176.200195312 66.400390625 424 66.400390625 433.400390625 c 0
 66.400390625 470 88.599609375 488.900390625 102.5 502.799804688 c 0
 114.200195312 513.900390625 152.5 552.200195312 163.599609375 563.900390625 c 0
 177.400390625 577.799804688 196.299804688 600 233 600 c 0x6f
EndSplineSet
Validated: 1
EndChar

StartChar: Igrave
Encoding: 138 204 138
Width: 666
VWidth: 0
Flags: W
HStem: 0 133.3<66.4004 266.3 399.7 599.7> 466.7 133.3<66.4004 266.3 399.7 599.7> 666.7 133.3<199.7 266.4>
VStem: 266.3 133.4<133.3 466.7>
LayerCount: 2
Back
Fore
SplineSet
66.400390625 600 m 1
 599.700195312 600 l 1
 599.700195312 466.700195312 l 1
 399.700195312 466.700195312 l 1
 399.700195312 133.299804688 l 1
 599.700195312 133.299804688 l 1
 599.700195312 0 l 1
 66.400390625 0 l 1
 66.400390625 133.299804688 l 1
 266.299804688 133.299804688 l 1
 266.299804688 466.700195312 l 1
 66.400390625 466.700195312 l 1
 66.400390625 600 l 1
399.700195312 666.700195312 m 1
 199.700195312 666.700195312 l 1
 66.400390625 800 l 1
 266.400390625 800 l 1
 399.700195312 666.700195312 l 1
EndSplineSet
Validated: 1
EndChar

StartChar: Iacute
Encoding: 139 205 139
Width: 666
VWidth: 0
Flags: W
HStem: 0 133.3<66.4004 266.3 399.7 599.7> 466.7 133.3<66.4004 266.3 399.7 599.7> 666.7 133.3<399.7 466.4>
VStem: 266.3 133.4<133.3 466.7>
LayerCount: 2
Back
Fore
SplineSet
66.400390625 600 m 1
 599.700195312 600 l 1
 599.700195312 466.700195312 l 1
 399.700195312 466.700195312 l 1
 399.700195312 133.299804688 l 1
 599.700195312 133.299804688 l 1
 599.700195312 0 l 1
 66.400390625 0 l 1
 66.400390625 133.299804688 l 1
 266.299804688 133.299804688 l 1
 266.299804688 466.700195312 l 1
 66.400390625 466.700195312 l 1
 66.400390625 600 l 1
266.400390625 666.700195312 m 1
 399.700195312 800 l 1
 599.700195312 800 l 1
 466.400390625 666.700195312 l 1
 266.400390625 666.700195312 l 1
EndSplineSet
Validated: 1
EndChar

StartChar: Icircumflex
Encoding: 140 206 140
Width: 666
VWidth: 0
Flags: W
HStem: 0 133.3<66.4004 266.3 399.7 599.7> 466.7 133.3<66.4004 266.3 399.7 599.7> 666.7 133.3<199.7 266.4 399.7 466.4>
VStem: 266.3 133.4<133.3 466.7>
LayerCount: 2
Back
Fore
SplineSet
66.400390625 600 m 1
 599.700195312 600 l 1
 599.700195312 466.700195312 l 1
 399.700195312 466.700195312 l 1
 399.700195312 133.299804688 l 1
 599.700195312 133.299804688 l 1
 599.700195312 0 l 1
 66.400390625 0 l 1
 66.400390625 133.299804688 l 1
 266.299804688 133.299804688 l 1
 266.299804688 466.700195312 l 1
 66.400390625 466.700195312 l 1
 66.400390625 600 l 1
599.700195312 666.700195312 m 1
 399.700195312 666.700195312 l 1
 333 733.299804688 l 1
 266.400390625 666.700195312 l 1
 66.400390625 666.700195312 l 1
 199.700195312 800 l 1
 466.400390625 800 l 1
 599.700195312 666.700195312 l 1
EndSplineSet
Validated: 1
EndChar

StartChar: Idieresis
Encoding: 141 207 141
Width: 666
VWidth: 0
Flags: W
HStem: 0 133.3<66.4004 266.3 399.7 599.7> 466.7 133.3<66.4004 266.3 399.7 599.7> 666.7 133.3<66.4004 199.7 466.4 599.7>
VStem: 66.4004 133.3<666.7 800> 266.3 133.4<133.3 466.7> 466.4 133.3<666.7 800>
LayerCount: 2
Back
Fore
SplineSet
66.400390625 600 m 1
 599.700195312 600 l 1
 599.700195312 466.700195312 l 1
 399.700195312 466.700195312 l 1
 399.700195312 133.299804688 l 1
 599.700195312 133.299804688 l 1
 599.700195312 0 l 1
 66.400390625 0 l 1
 66.400390625 133.299804688 l 1
 266.299804688 133.299804688 l 1
 266.299804688 466.700195312 l 1
 66.400390625 466.700195312 l 1
 66.400390625 600 l 1
466.400390625 666.700195312 m 1
 466.400390625 800 l 1
 599.700195312 800 l 1
 599.700195312 666.700195312 l 1
 466.400390625 666.700195312 l 1
66.400390625 666.700195312 m 1
 66.400390625 800 l 1
 199.700195312 800 l 1
 199.700195312 666.700195312 l 1
 66.400390625 666.700195312 l 1
EndSplineSet
Validated: 1
EndChar

StartChar: Eth
Encoding: 142 208 142
Width: 666
VWidth: 0
Flags: W
HStem: 0 133.3<199.6 400.1> 333.3 133.4<199.6 333> 666.7 133.3<199.6 400.2>
VStem: 66.2998 133.3<133.3 333.3 466.7 666.7> 466.4 133.199<200 600>
CounterMasks: 1 e0
LayerCount: 2
Back
Fore
SplineSet
563.5 702.799804688 m 0
 577.369133388 688.931645666 599.599948475 670.084975776 599.599948475 633.547113483 c 0
 599.528733652 581.609492287 599.505007963 529.671500416 599.505007963 477.733358263 c 0
 599.505007963 374.022122927 599.599609375 270.310288375 599.599609375 166.599609375 c 0
 599.599609375 130 577.400390625 111.099609375 563.5 97.2001953125 c 0
 551.799804688 86.099609375 513.5 47.7998046875 502.400390625 36.099609375 c 0
 488.599609375 22.2001953125 469.700195312 0 433 0 c 0
 423.700195312 0 66.2998046875 0 66.2998046875 0 c 1
 66.2998046875 800 l 1
 66.2998046875 800 423.700195312 800 433 800 c 0
 469.599609375 800 488.5 777.799804688 502.400390625 763.900390625 c 0
 513.5 752.200195312 551.799804688 713.900390625 563.5 702.799804688 c 0
466.299804688 200 m 1
 466.400390625 200 l 1
 466.400390625 600 l 1
 465.799804688 600 l 1
 400.200195312 666.700195312 l 1
 199.599609375 666.700195312 l 1
 199.599609375 466.700195312 l 1
 333 466.700195312 l 1
 333 333.299804688 l 1
 199.599609375 333.299804688 l 1
 199.599609375 133.299804688 l 1
 400.099609375 133.299804688 l 1
 465.700195312 200 l 1
 466.299804688 200 l 1
EndSplineSet
Validated: 1
EndChar

StartChar: Ntilde
Encoding: 143 209 143
Width: 666
VWidth: 0
Flags: W
HStem: 0 21G<66.2998 199.6 415.2 599.6> 666.7 133.3<66.4004 599.7>
VStem: 66.2998 133.3<0 466.1> 466.4 133.199<134.4 599.9>
LayerCount: 2
Back
Fore
SplineSet
466.400390625 134.400390625 m 1
 466.400390625 599.900390625 l 1
 599.599609375 599.900390625 l 1
 599.599609375 0 l 1
 599.599609375 0 442.799804688 0 433.5 0 c 0
 396.900390625 0 378 22.2001953125 364.099609375 36.099609375 c 0
 353 47.7998046875 314.700195312 86.099609375 303 97.2001953125 c 0
 289.099609375 111 266.900390625 129.900390625 266.900390625 166.599609375 c 0
 266.900390625 176.099609375 266.299804688 400.5 266.299804688 400.5 c 1
 199.599609375 466.099609375 l 1
 199.599609375 0 l 1
 66.2998046875 0 l 1
 66.2998046875 599.900390625 l 1
 66.2998046875 599.900390625 223.599609375 600 233 600 c 0
 269.700195312 600 288.599609375 577.799804688 302.5 563.799804688 c 0
 313.599609375 552.099609375 351.900390625 513.799804688 363.599609375 502.700195312 c 0
 377.5 488.900390625 399.700195312 470 399.700195312 433.299804688 c 0
 399.700195312 423.799804688 400.299804688 199.400390625 400.299804688 199.400390625 c 1
 466.400390625 134.400390625 l 1
66.400390625 666.700195312 m 1
 66.400390625 800 l 1
 599.700195312 800 l 1
 599.700195312 666.700195312 l 1
 66.400390625 666.700195312 l 1
EndSplineSet
Validated: 1
EndChar

StartChar: Ograve
Encoding: 144 210 144
Width: 666
VWidth: 0
Flags: W
HStem: 0.0996094 133.101<266.4 399.7> 466.7 133.3<266.4 399.7> 666.7 133.3<199.7 266.4>
VStem: 66.4004 133.3<199.4 400.5> 466.4 133.199<199.4 400.5>
LayerCount: 2
Back
Fore
SplineSet
563.599609375 502.799804688 m 0
 577.46860303 488.931785389 599.599949991 470.682259284 599.599949991 433.652168435 c 0
 599.55974754 403.935133323 599.546359385 374.217818387 599.546359385 344.500386091 c 0
 599.546359385 285.233693052 599.599609375 225.966533224 599.599609375 166.700195312 c 0
 599.599609375 130.099609375 577.400390625 111.200195312 563.5 97.2998046875 c 0
 551.799804688 86.2001953125 513.5 47.900390625 502.400390625 36.2001953125 c 0
 488.599609375 22.2998046875 469.700195312 0.099609375 433 0.099609375 c 0
 423.599609375 0.099609375 242.400390625 0.099609375 233 0.099609375 c 0
 196.400390625 0.099609375 177.5 22.2998046875 163.599609375 36.2001953125 c 0
 152.5 47.900390625 114.200195312 86.2001953125 102.5 97.2998046875 c 0
 88.599609375 111.099609375 66.400390625 130 66.400390625 166.700195312 c 0
 66.400390625 176.200195312 66.400390625 424 66.400390625 433.400390625 c 0
 66.400390625 470 88.599609375 488.900390625 102.5 502.799804688 c 0
 114.200195312 513.900390625 152.5 552.200195312 163.599609375 563.900390625 c 0
 177.400390625 577.799804688 196.299804688 600 233 600 c 0
 242.400390625 600 423.599609375 600 433 600 c 0
 469.700195312 600 488.599609375 577.799804688 502.5 563.900390625 c 0
 513.599609375 552.200195312 551.900390625 513.900390625 563.599609375 502.799804688 c 0
466.400390625 199.400390625 m 1
 466.400390625 400.5 l 1
 399.700195312 466.099609375 l 1
 399.700195312 466.700195312 l 1
 266.400390625 466.700195312 l 1
 266.400390625 466.099609375 l 1
 199.700195312 400.5 l 1
 199.700195312 399.400390625 l 1
 199.700195312 200.599609375 l 1
 199.700195312 200 l 1
 199.700195312 199.400390625 l 1
 266.400390625 133.799804688 l 1
 266.400390625 133.200195312 l 1
 399.700195312 133.200195312 l 1
 399.700195312 133.799804688 l 1
 466.400390625 199.400390625 l 1
399.700195312 666.700195312 m 1
 199.700195312 666.700195312 l 1
 66.400390625 800 l 1
 266.400390625 800 l 1
 399.700195312 666.700195312 l 1
EndSplineSet
Validated: 1
EndChar

StartChar: Oacute
Encoding: 145 211 145
Width: 666
VWidth: 0
Flags: W
HStem: 0.0996094 133.101<266.4 399.7> 466.7 133.3<266.4 399.7> 666.7 133.3<399.7 466.4>
VStem: 66.4004 133.3<199.4 400.5> 466.4 133.199<199.4 400.5>
LayerCount: 2
Back
Fore
SplineSet
563.599609375 502.799804688 m 0
 577.46860303 488.931785389 599.599949991 470.682259284 599.599949991 433.652168435 c 0
 599.55974754 403.935133323 599.546359385 374.217818387 599.546359385 344.500386091 c 0
 599.546359385 285.233693052 599.599609375 225.966533224 599.599609375 166.700195312 c 0
 599.599609375 130.099609375 577.400390625 111.200195312 563.5 97.2998046875 c 0
 551.799804688 86.2001953125 513.5 47.900390625 502.400390625 36.2001953125 c 0
 488.599609375 22.2998046875 469.700195312 0.099609375 433 0.099609375 c 0
 423.599609375 0.099609375 242.400390625 0.099609375 233 0.099609375 c 0
 196.400390625 0.099609375 177.5 22.2998046875 163.599609375 36.2001953125 c 0
 152.5 47.900390625 114.200195312 86.2001953125 102.5 97.2998046875 c 0
 88.599609375 111.099609375 66.400390625 130 66.400390625 166.700195312 c 0
 66.400390625 176.200195312 66.400390625 424 66.400390625 433.400390625 c 0
 66.400390625 470 88.599609375 488.900390625 102.5 502.799804688 c 0
 114.200195312 513.900390625 152.5 552.200195312 163.599609375 563.900390625 c 0
 177.400390625 577.799804688 196.299804688 600 233 600 c 0
 242.400390625 600 423.599609375 600 433 600 c 0
 469.700195312 600 488.599609375 577.799804688 502.5 563.900390625 c 0
 513.599609375 552.200195312 551.900390625 513.900390625 563.599609375 502.799804688 c 0
466.400390625 199.400390625 m 1
 466.400390625 400.5 l 1
 399.700195312 466.099609375 l 1
 399.700195312 466.700195312 l 1
 266.400390625 466.700195312 l 1
 266.400390625 466.099609375 l 1
 199.700195312 400.5 l 1
 199.700195312 399.400390625 l 1
 199.700195312 200.599609375 l 1
 199.700195312 200 l 1
 199.700195312 199.400390625 l 1
 266.400390625 133.799804688 l 1
 266.400390625 133.200195312 l 1
 399.700195312 133.200195312 l 1
 399.700195312 133.799804688 l 1
 466.400390625 199.400390625 l 1
266.400390625 666.700195312 m 1
 399.700195312 800 l 1
 599.700195312 800 l 1
 466.400390625 666.700195312 l 1
 266.400390625 666.700195312 l 1
EndSplineSet
Validated: 1
EndChar

StartChar: Ocircumflex
Encoding: 146 212 146
Width: 666
VWidth: 0
Flags: W
HStem: 0.0996094 133.101<266.4 399.7> 466.7 133.3<266.4 399.7> 666.7 133.3<199.7 266.4 399.7 466.4>
VStem: 66.4004 133.3<199.4 400.5> 466.4 133.199<199.4 400.5>
LayerCount: 2
Back
Fore
SplineSet
563.599609375 502.799804688 m 0
 577.46860303 488.931785389 599.599949991 470.682259284 599.599949991 433.652168435 c 0
 599.55974754 403.935133323 599.546359385 374.217818387 599.546359385 344.500386091 c 0
 599.546359385 285.233693052 599.599609375 225.966533224 599.599609375 166.700195312 c 0
 599.599609375 130.099609375 577.400390625 111.200195312 563.5 97.2998046875 c 0
 551.799804688 86.2001953125 513.5 47.900390625 502.400390625 36.2001953125 c 0
 488.599609375 22.2998046875 469.700195312 0.099609375 433 0.099609375 c 0
 423.599609375 0.099609375 242.400390625 0.099609375 233 0.099609375 c 0
 196.400390625 0.099609375 177.5 22.2998046875 163.599609375 36.2001953125 c 0
 152.5 47.900390625 114.200195312 86.2001953125 102.5 97.2998046875 c 0
 88.599609375 111.099609375 66.400390625 130 66.400390625 166.700195312 c 0
 66.400390625 176.200195312 66.400390625 424 66.400390625 433.400390625 c 0
 66.400390625 470 88.599609375 488.900390625 102.5 502.799804688 c 0
 114.200195312 513.900390625 152.5 552.200195312 163.599609375 563.900390625 c 0
 177.400390625 577.799804688 196.299804688 600 233 600 c 0
 242.400390625 600 423.599609375 600 433 600 c 0
 469.700195312 600 488.599609375 577.799804688 502.5 563.900390625 c 0
 513.599609375 552.200195312 551.900390625 513.900390625 563.599609375 502.799804688 c 0
466.400390625 199.400390625 m 1
 466.400390625 400.5 l 1
 399.700195312 466.099609375 l 1
 399.700195312 466.700195312 l 1
 266.400390625 466.700195312 l 1
 266.400390625 466.099609375 l 1
 199.700195312 400.5 l 1
 199.700195312 399.400390625 l 1
 199.700195312 200.599609375 l 1
 199.700195312 200 l 1
 199.700195312 199.400390625 l 1
 266.400390625 133.799804688 l 1
 266.400390625 133.200195312 l 1
 399.700195312 133.200195312 l 1
 399.700195312 133.799804688 l 1
 466.400390625 199.400390625 l 1
599.700195312 666.700195312 m 1
 399.700195312 666.700195312 l 1
 333 733.299804688 l 1
 266.400390625 666.700195312 l 1
 66.400390625 666.700195312 l 1
 199.700195312 800 l 1
 466.400390625 800 l 1
 599.700195312 666.700195312 l 1
EndSplineSet
Validated: 1
EndChar

StartChar: Otilde
Encoding: 147 213 147
Width: 666
VWidth: 0
Flags: W
HStem: 0.0996094 133.101<266.4 399.7> 466.7 133.3<266.4 399.7> 666.7 133.3<66.4004 599.7>
VStem: 66.4004 133.3<199.4 400.5> 466.4 133.199<199.4 400.5>
LayerCount: 2
Back
Fore
SplineSet
563.599609375 502.799804688 m 0
 577.46860303 488.931785389 599.599949991 470.682259284 599.599949991 433.652168435 c 0
 599.55974754 403.935133323 599.546359385 374.217818387 599.546359385 344.500386091 c 0
 599.546359385 285.233693052 599.599609375 225.966533224 599.599609375 166.700195312 c 0
 599.599609375 130.099609375 577.400390625 111.200195312 563.5 97.2998046875 c 0
 551.799804688 86.2001953125 513.5 47.900390625 502.400390625 36.2001953125 c 0
 488.599609375 22.2998046875 469.700195312 0.099609375 433 0.099609375 c 0
 423.599609375 0.099609375 242.400390625 0.099609375 233 0.099609375 c 0
 196.400390625 0.099609375 177.5 22.2998046875 163.599609375 36.2001953125 c 0
 152.5 47.900390625 114.200195312 86.2001953125 102.5 97.2998046875 c 0
 88.599609375 111.099609375 66.400390625 130 66.400390625 166.700195312 c 0
 66.400390625 176.200195312 66.400390625 424 66.400390625 433.400390625 c 0
 66.400390625 470 88.599609375 488.900390625 102.5 502.799804688 c 0
 114.200195312 513.900390625 152.5 552.200195312 163.599609375 563.900390625 c 0
 177.400390625 577.799804688 196.299804688 600 233 600 c 0
 242.400390625 600 423.599609375 600 433 600 c 0
 469.700195312 600 488.599609375 577.799804688 502.5 563.900390625 c 0
 513.599609375 552.200195312 551.900390625 513.900390625 563.599609375 502.799804688 c 0
466.400390625 199.400390625 m 1
 466.400390625 400.5 l 1
 399.700195312 466.099609375 l 1
 399.700195312 466.700195312 l 1
 266.400390625 466.700195312 l 1
 266.400390625 466.099609375 l 1
 199.700195312 400.5 l 1
 199.700195312 399.400390625 l 1
 199.700195312 200.599609375 l 1
 199.700195312 200 l 1
 199.700195312 199.400390625 l 1
 266.400390625 133.799804688 l 1
 266.400390625 133.200195312 l 1
 399.700195312 133.200195312 l 1
 399.700195312 133.799804688 l 1
 466.400390625 199.400390625 l 1
66.400390625 666.700195312 m 1
 66.400390625 800 l 1
 599.700195312 800 l 1
 599.700195312 666.700195312 l 1
 66.400390625 666.700195312 l 1
EndSplineSet
Validated: 1
EndChar

StartChar: Odieresis
Encoding: 148 214 148
Width: 666
VWidth: 0
Flags: W
HStem: 0.0996094 133.101<266.4 399.7> 466.7 133.3<266.4 399.7> 666.7 133.3<66.4004 199.7 466.4 599.7>
VStem: 66.4004 133.3<199.4 400.5 666.7 800> 466.4 133.199<199.4 400.5 666.7 800>
LayerCount: 2
Back
Fore
SplineSet
563.599609375 502.799804688 m 0
 577.46860303 488.931785389 599.599949991 470.682259284 599.599949991 433.652168435 c 0
 599.55974754 403.935133323 599.546359385 374.217818387 599.546359385 344.500386091 c 0
 599.546359385 285.233693052 599.599609375 225.966533224 599.599609375 166.700195312 c 0
 599.599609375 130.099609375 577.400390625 111.200195312 563.5 97.2998046875 c 0
 551.799804688 86.2001953125 513.5 47.900390625 502.400390625 36.2001953125 c 0
 488.599609375 22.2998046875 469.700195312 0.099609375 433 0.099609375 c 0
 423.599609375 0.099609375 242.400390625 0.099609375 233 0.099609375 c 0
 196.400390625 0.099609375 177.5 22.2998046875 163.599609375 36.2001953125 c 0
 152.5 47.900390625 114.200195312 86.2001953125 102.5 97.2998046875 c 0
 88.599609375 111.099609375 66.400390625 130 66.400390625 166.700195312 c 0
 66.400390625 176.200195312 66.400390625 424 66.400390625 433.400390625 c 0
 66.400390625 470 88.599609375 488.900390625 102.5 502.799804688 c 0
 114.200195312 513.900390625 152.5 552.200195312 163.599609375 563.900390625 c 0
 177.400390625 577.799804688 196.299804688 600 233 600 c 0
 242.400390625 600 423.599609375 600 433 600 c 0
 469.700195312 600 488.599609375 577.799804688 502.5 563.900390625 c 0
 513.599609375 552.200195312 551.900390625 513.900390625 563.599609375 502.799804688 c 0
466.400390625 199.400390625 m 1
 466.400390625 400.5 l 1
 399.700195312 466.099609375 l 1
 399.700195312 466.700195312 l 1
 266.400390625 466.700195312 l 1
 266.400390625 466.099609375 l 1
 199.700195312 400.5 l 1
 199.700195312 399.400390625 l 1
 199.700195312 200.599609375 l 1
 199.700195312 200 l 1
 199.700195312 199.400390625 l 1
 266.400390625 133.799804688 l 1
 266.400390625 133.200195312 l 1
 399.700195312 133.200195312 l 1
 399.700195312 133.799804688 l 1
 466.400390625 199.400390625 l 1
66.400390625 666.700195312 m 1
 66.400390625 800 l 1
 199.700195312 800 l 1
 199.700195312 666.700195312 l 1
 66.400390625 666.700195312 l 1
466.400390625 666.700195312 m 1
 466.400390625 800 l 1
 599.700195312 800 l 1
 599.700195312 666.700195312 l 1
 466.400390625 666.700195312 l 1
EndSplineSet
Validated: 1
EndChar

StartChar: multiply
Encoding: 149 215 149
Width: 666
VWidth: 0
Flags: W
LayerCount: 2
Back
Fore
SplineSet
566.400390625 533.299804688 m 1
 433 400 l 1
 566.400390625 266.700195312 l 1
 466.400390625 166.700195312 l 1
 333 300 l 1
 199.700195312 166.700195312 l 1
 99.7001953125 266.700195312 l 1
 233 400 l 1
 99.7001953125 533.299804688 l 1
 199.700195312 633.299804688 l 1
 333 500 l 1
 466.400390625 633.299804688 l 1
 566.400390625 533.299804688 l 1
EndSplineSet
Validated: 1
EndChar

StartChar: Oslash
Encoding: 150 216 150
Width: 666
VWidth: 0
Flags: W
HStem: 0.0996094 133.2<265.8 400.2> 666.7 133.3<265.8 400.2>
VStem: 66.4004 133.3<266.4 600> 465.8 133.8<200 533.6>
LayerCount: 2
Back
Fore
SplineSet
563.599609375 702.799804688 m 0
 577.46860303 688.931785389 599.599949991 670.085355539 599.599949991 633.648123737 c 0
 599.599609375 633.400390625 l 0
 599.599609375 623.900390625 599.599609375 176.099609375 599.599609375 166.700195312 c 0
 599.599609375 130.099609375 577.400390625 111.200195312 563.5 97.2998046875 c 0
 551.799804688 86.2001953125 513.5 47.900390625 502.400390625 36.2001953125 c 0
 488.599609375 22.2998046875 469.700195312 0.099609375 433 0.099609375 c 0
 423.599609375 0.099609375 242.400390625 0.099609375 233 0.099609375 c 0
 196.400390625 0.099609375 177.5 22.2998046875 163.599609375 36.2001953125 c 0
 152.5 47.900390625 114.200195312 86.2001953125 102.5 97.2998046875 c 0
 88.599609375 111.099609375 66.400390625 130 66.400390625 166.700195312 c 0
 66.400390625 176.200195312 66.400390625 624 66.400390625 633.400390625 c 0
 66.400390625 670 88.599609375 688.900390625 102.5 702.799804688 c 0
 114.200195312 713.900390625 152.5 752.200195312 163.599609375 763.900390625 c 0
 177.400390625 777.799804688 196.299804688 800 233 800 c 0
 242.400390625 800 423.599609375 800 433 800 c 0
 469.700195312 800 488.599609375 777.799804688 502.5 763.900390625 c 0
 513.599609375 752.200195312 551.900390625 713.900390625 563.599609375 702.799804688 c 0
265.799804688 666.700195312 m 1
 199.700195312 600 l 1
 199.700195312 266.400390625 l 1
 400.200195312 666.700195312 l 1
 265.799804688 666.700195312 l 1
465.799804688 200 m 1
 466.400390625 533.599609375 l 1
 265.799804688 133.299804688 l 1
 400.200195312 133.299804688 l 1
 465.799804688 200 l 1
EndSplineSet
Validated: 1
EndChar

StartChar: Ugrave
Encoding: 151 217 151
Width: 666
VWidth: 0
Flags: W
HStem: 0.0996094 133.101<266.4 399.7> 666.7 133.3<199.7 266.4>
VStem: 66.4004 133.3<199.4 600> 466.4 133.199<199.4 600>
LayerCount: 2
Back
Fore
SplineSet
466.400390625 600 m 1
 599.599609375 600 l 1
 599.599609375 600 599.599609375 176.099609375 599.599609375 166.700195312 c 0
 599.599609375 130.099609375 577.400390625 111.200195312 563.5 97.2998046875 c 0
 551.799804688 86.2001953125 513.5 47.900390625 502.400390625 36.2001953125 c 0
 488.599609375 22.2998046875 469.700195312 0.099609375 433 0.099609375 c 0
 423.599609375 0.099609375 242.400390625 0.099609375 233 0.099609375 c 0
 196.400390625 0.099609375 177.5 22.2998046875 163.599609375 36.2001953125 c 0
 152.5 47.900390625 114.200195312 86.2001953125 102.5 97.2998046875 c 0
 88.599609375 111.099609375 66.400390625 129.5 66.400390625 166.700195312 c 0
 66.400390625 176.099609375 66.400390625 600 66.400390625 600 c 1
 199.700195312 600 l 1
 199.700195312 200.200195312 l 1
 199.700195312 199.400390625 l 1
 266.400390625 133.799804688 l 1
 266.400390625 133.200195312 l 1
 399.700195312 133.200195312 l 1
 399.700195312 133.799804688 l 1
 466.400390625 199.400390625 l 1
 466.400390625 600 l 1
399.700195312 666.700195312 m 1
 199.700195312 666.700195312 l 1
 66.400390625 800 l 1
 266.400390625 800 l 1
 399.700195312 666.700195312 l 1
EndSplineSet
Validated: 1
EndChar

StartChar: Uacute
Encoding: 152 218 152
Width: 666
VWidth: 0
Flags: W
HStem: 0.0996094 133.101<266.4 399.7> 666.7 133.3<399.7 466.4>
VStem: 66.4004 133.3<199.4 600> 466.4 133.199<199.4 600>
LayerCount: 2
Back
Fore
SplineSet
466.400390625 600 m 1
 599.599609375 600 l 1
 599.599609375 600 599.599609375 176.099609375 599.599609375 166.700195312 c 0
 599.599609375 130.099609375 577.400390625 111.200195312 563.5 97.2998046875 c 0
 551.799804688 86.2001953125 513.5 47.900390625 502.400390625 36.2001953125 c 0
 488.599609375 22.2998046875 469.700195312 0.099609375 433 0.099609375 c 0
 423.599609375 0.099609375 242.400390625 0.099609375 233 0.099609375 c 0
 196.400390625 0.099609375 177.5 22.2998046875 163.599609375 36.2001953125 c 0
 152.5 47.900390625 114.200195312 86.2001953125 102.5 97.2998046875 c 0
 88.599609375 111.099609375 66.400390625 129.5 66.400390625 166.700195312 c 0
 66.400390625 176.099609375 66.400390625 600 66.400390625 600 c 1
 199.700195312 600 l 1
 199.700195312 200.200195312 l 1
 199.700195312 199.400390625 l 1
 266.400390625 133.799804688 l 1
 266.400390625 133.200195312 l 1
 399.700195312 133.200195312 l 1
 399.700195312 133.799804688 l 1
 466.400390625 199.400390625 l 1
 466.400390625 600 l 1
266.400390625 666.700195312 m 1
 399.700195312 800 l 1
 599.700195312 800 l 1
 466.400390625 666.700195312 l 1
 266.400390625 666.700195312 l 1
EndSplineSet
Validated: 1
EndChar

StartChar: Ucircumflex
Encoding: 153 219 153
Width: 666
VWidth: 0
Flags: W
HStem: 0.0996094 133.101<266.4 399.7> 666.7 133.3<199.7 266.4 399.7 466.4>
VStem: 66.4004 133.3<199.4 600> 466.4 133.199<199.4 600>
LayerCount: 2
Back
Fore
SplineSet
466.400390625 600 m 1
 599.599609375 600 l 1
 599.599609375 600 599.599609375 176.099609375 599.599609375 166.700195312 c 0
 599.599609375 130.099609375 577.400390625 111.200195312 563.5 97.2998046875 c 0
 551.799804688 86.2001953125 513.5 47.900390625 502.400390625 36.2001953125 c 0
 488.599609375 22.2998046875 469.700195312 0.099609375 433 0.099609375 c 0
 423.599609375 0.099609375 242.400390625 0.099609375 233 0.099609375 c 0
 196.400390625 0.099609375 177.5 22.2998046875 163.599609375 36.2001953125 c 0
 152.5 47.900390625 114.200195312 86.2001953125 102.5 97.2998046875 c 0
 88.599609375 111.099609375 66.400390625 129.5 66.400390625 166.700195312 c 0
 66.400390625 176.099609375 66.400390625 600 66.400390625 600 c 1
 199.700195312 600 l 1
 199.700195312 200.200195312 l 1
 199.700195312 199.400390625 l 1
 266.400390625 133.799804688 l 1
 266.400390625 133.200195312 l 1
 399.700195312 133.200195312 l 1
 399.700195312 133.799804688 l 1
 466.400390625 199.400390625 l 1
 466.400390625 600 l 1
599.700195312 666.700195312 m 1
 399.700195312 666.700195312 l 1
 333 733.299804688 l 1
 266.400390625 666.700195312 l 1
 66.400390625 666.700195312 l 1
 199.700195312 800 l 1
 466.400390625 800 l 1
 599.700195312 666.700195312 l 1
EndSplineSet
Validated: 1
EndChar

StartChar: Udieresis
Encoding: 154 220 154
Width: 666
VWidth: 0
Flags: W
HStem: 0.0996094 133.101<266.4 399.7> 666.7 133.3<66.4004 199.7 466.4 599.7>
VStem: 66.4004 133.3<199.4 600 666.7 800> 466.4 133.199<199.4 600 666.7 800>
LayerCount: 2
Back
Fore
SplineSet
66.400390625 666.700195312 m 1
 66.400390625 800 l 1
 199.700195312 800 l 1
 199.700195312 666.700195312 l 1
 66.400390625 666.700195312 l 1
466.400390625 666.700195312 m 1
 466.400390625 800 l 1
 599.700195312 800 l 1
 599.700195312 666.700195312 l 1
 466.400390625 666.700195312 l 1
466.400390625 600 m 1
 599.599609375 600 l 1
 599.599609375 600 599.599609375 176.099609375 599.599609375 166.700195312 c 0
 599.599609375 130.099609375 577.400390625 111.200195312 563.5 97.2998046875 c 0
 551.799804688 86.2001953125 513.5 47.900390625 502.400390625 36.2001953125 c 0
 488.599609375 22.2998046875 469.700195312 0.099609375 433 0.099609375 c 0
 423.599609375 0.099609375 242.400390625 0.099609375 233 0.099609375 c 0
 196.400390625 0.099609375 177.5 22.2998046875 163.599609375 36.2001953125 c 0
 152.5 47.900390625 114.200195312 86.2001953125 102.5 97.2998046875 c 0
 88.599609375 111.099609375 66.400390625 129.5 66.400390625 166.700195312 c 0
 66.400390625 176.099609375 66.400390625 600 66.400390625 600 c 1
 199.700195312 600 l 1
 199.700195312 200.200195312 l 1
 199.700195312 199.400390625 l 1
 266.400390625 133.799804688 l 1
 266.400390625 133.200195312 l 1
 399.700195312 133.200195312 l 1
 399.700195312 133.799804688 l 1
 466.400390625 199.400390625 l 1
 466.400390625 600 l 1
EndSplineSet
Validated: 1
EndChar

StartChar: Yacute
Encoding: 155 221 155
Width: 666
VWidth: 0
Flags: W
HStem: 0.0996094 21G<266.3 399.6> 666.7 133.3<399.7 466.4>
VStem: 66.4004 133.199<400 600> 266.3 133.3<0.0996094 200> 466.4 133.1<400 599.9>
LayerCount: 2
Back
Fore
SplineSet
466.400390625 600 m 5
 599.5 599.900390625 l 5
 599.5 599.900390625 599.5 376 599.5 366.599609375 c 4
 599.5 330 577.299804688 311.099609375 563.400390625 297.200195312 c 4
 551.700195312 286.099609375 513.400390625 247.799804688 502.299804688 236.099609375 c 4
 488.5 222.200195312 469.599609375 200 432.900390625 200 c 4
 423.5 200 412.400390625 200 399.599609375 200 c 5
 399.599609375 0.099609375 l 5
 266.299804688 0.099609375 l 5
 266.299804688 200.099609375 l 5
 253.599609375 200.099609375 242.400390625 200.099609375 233 200.099609375 c 4
 196.400390625 200.099609375 177.5 222.299804688 163.599609375 236.200195312 c 4
 152.5 247.900390625 114.200195312 286.200195312 102.5 297.299804688 c 4
 88.599609375 311.099609375 66.400390625 330 66.400390625 366.700195312 c 4
 66.400390625 376.099609375 66.400390625 600 66.400390625 600 c 5
 199.599609375 600 l 5
 199.599609375 400 l 5
 266.400390625 333.299804688 l 5
 399.599609375 333.299804688 l 5
 466.400390625 400 l 5
 466.400390625 600 l 5
266.400390625 666.700195312 m 1
 399.700195312 800 l 1
 599.700195312 800 l 1
 466.400390625 666.700195312 l 1
 266.400390625 666.700195312 l 1
EndSplineSet
Validated: 1
EndChar

StartChar: Thorn
Encoding: 156 222 156
Width: 666
VWidth: 0
Flags: W
HStem: 0 133.4<66.2998 133 266.3 333> 166.9 133.3<266.3 399.6> 499.7 133.3<266.3 400.2> 666.7 133.3<66.2998 133 266.3 333>
VStem: 66.2998 266.7<0 133.3 666.7 800> 133 133.3<133.4 166.9 300.2 499.7 633 666.6> 466.4 133.199<366.4 433>
LayerCount: 2
Back
Fore
SplineSet
563.5 535.799804688 m 0xf6
 577.369133388 521.931645666 599.599948475 503.184137679 599.599948475 466.547782427 c 0
 599.579657926 451.709672498 599.572907063 436.871339227 599.572907063 422.032909258 c 0
 599.572907063 392.521989913 599.599609375 363.010688083 599.599609375 333.5 c 0
 599.599609375 296.900390625 577.400390625 278 563.5 264.099609375 c 0
 551.799804688 253 513.5 214.700195312 502.400390625 203 c 0
 488.599609375 189.099609375 469.700195312 166.900390625 433 166.900390625 c 0
 423.5 166.900390625 266.299804688 166.900390625 266.299804688 166.900390625 c 1
 266.299804688 133.299804688 l 1xf6
 333 133.299804688 l 1
 333 0 l 1
 66.2998046875 0 l 1
 66.2998046875 133.400390625 l 1xfa
 133 133.400390625 l 1
 133 666.700195312 l 1xf6
 66.2998046875 666.700195312 l 1
 66.2998046875 800 l 1
 333 800 l 1
 333 666.599609375 l 1xfa
 266.299804688 666.599609375 l 1
 266.299804688 633 l 1
 333.099609375 633 427 633 433 633 c 0
 469.599609375 633 488.5 610.799804688 502.400390625 596.900390625 c 0
 513.5 585.200195312 551.799804688 546.900390625 563.5 535.799804688 c 0xf6
466.299804688 367.5 m 1
 466.400390625 367.5 l 1
 466.400390625 433 l 1
 465.799804688 433 l 1
 400.200195312 499.700195312 l 1
 266.299804688 499.700195312 l 1
 266.299804688 300.200195312 l 1
 399.599609375 300.200195312 l 1
 399.599609375 300.799804688 l 1
 466.299804688 366.400390625 l 1
 466.299804688 367.5 l 1
EndSplineSet
Validated: 1
EndChar

StartChar: germandbls
Encoding: 157 223 157
Width: 666
VWidth: 0
Flags: W
HStem: 0 133.4<266.4 466.4> 666.7 133.3<266.4 433.1>
VStem: 66.4004 133.3<0 600.6> 466.4 133.3<133.4 333.4>
LayerCount: 2
Back
Fore
SplineSet
599.799804688 800 m 2
 599.799804688 666.700195312 l 1
 433.099609375 466.700195312 l 1
 499.799804688 466.700195312 l 2
 549.799804688 466.599609375 599.700195312 416.700195312 599.700195312 366.700195312 c 2
 599.700195312 99.900390625 l 2
 599.599609375 49.900390625 549.700195312 0 499.700195312 0 c 2
 266.400390625 0 l 1
 266.400390625 133.400390625 l 1
 466.400390625 133.400390625 l 1
 466.400390625 333.400390625 l 1
 266.400390625 333.400390625 l 1
 266.400390625 466.700195312 l 1
 433.099609375 666.700195312 l 1
 266.400390625 666.700195312 l 1
 266.400390625 666.099609375 l 1
 199.700195312 600.599609375 l 1
 199.700195312 0 l 1
 66.400390625 0 l 1
 66.400390625 0 66.400390625 630.900390625 66.400390625 633.400390625 c 0
 66.400390625 670 88.599609375 688.900390625 102.5 702.799804688 c 0
 114.200195312 713.900390625 152.5 752.200195312 163.599609375 763.900390625 c 0
 177.400390625 777.799804688 196.299804688 800 233 800 c 0
 233.099609375 800 599.799804688 800 599.799804688 800 c 2
EndSplineSet
Validated: 1
EndChar

StartChar: agrave
Encoding: 158 224 158
Width: 666
VWidth: 0
Flags: W
HStem: 0 21G<66.2998 199.6 466.3 599.604> 666.7 133.3<199.7 266.4>
VStem: 66.2998 133.4<0 66.7002 200 422.2> 466.3 133.3<0 155.6 289 422.3>
LayerCount: 2
Back
Fore
SplineSet
599.700195312 433.299804688 m 2
 599.599609375 0 l 1
 466.299804688 0 l 1
 466.299804688 155.599609375 l 1
 199.599609375 66.7001953125 l 1
 199.599609375 0 l 1
 66.2998046875 0 l 1
 66.2998046875 433.299804688 l 2
 66.2998046875 483.299804688 100.099609375 520.099609375 133 533.299804688 c 2
 333 600 l 1
 533 533.299804688 l 2
 565.900390625 520.099609375 599.700195312 483.299804688 599.700195312 433.299804688 c 2
199.700195312 422.200195312 m 1
 199.700195312 200 l 1
 466.299804688 289 l 1
 466.299804688 422.299804688 l 1
 333 466.700195312 l 1
 199.700195312 422.200195312 l 1
399.700195312 666.700195312 m 1
 199.700195312 666.700195312 l 1
 66.400390625 800 l 1
 266.400390625 800 l 1
 399.700195312 666.700195312 l 1
EndSplineSet
Validated: 1
EndChar

StartChar: aacute
Encoding: 159 225 159
Width: 666
VWidth: 0
Flags: W
HStem: 0 21G<66.2998 199.6 466.3 599.604> 666.7 133.3<399.7 466.4>
VStem: 66.2998 133.4<0 66.7002 200 422.2> 466.3 133.3<0 155.6 289 422.3>
LayerCount: 2
Back
Fore
SplineSet
599.700195312 433.299804688 m 2
 599.599609375 0 l 1
 466.299804688 0 l 1
 466.299804688 155.599609375 l 1
 199.599609375 66.7001953125 l 1
 199.599609375 0 l 1
 66.2998046875 0 l 1
 66.2998046875 433.299804688 l 2
 66.2998046875 483.299804688 100.099609375 520.099609375 133 533.299804688 c 2
 333 600 l 1
 533 533.299804688 l 2
 565.900390625 520.099609375 599.700195312 483.299804688 599.700195312 433.299804688 c 2
199.700195312 422.200195312 m 1
 199.700195312 200 l 1
 466.299804688 289 l 1
 466.299804688 422.299804688 l 1
 333 466.700195312 l 1
 199.700195312 422.200195312 l 1
266.400390625 666.700195312 m 1
 399.700195312 800 l 1
 599.700195312 800 l 1
 466.400390625 666.700195312 l 1
 266.400390625 666.700195312 l 1
EndSplineSet
Validated: 1
EndChar

StartChar: acircumflex
Encoding: 160 226 160
Width: 666
VWidth: 0
Flags: W
HStem: 0 21G<66.2998 199.6 466.3 599.604> 666.7 133.3<199.7 266.4 399.7 466.4>
VStem: 66.2998 133.4<0 66.7002 200 422.2> 466.3 133.3<0 155.6 289 422.3>
LayerCount: 2
Back
Fore
SplineSet
599.700195312 433.299804688 m 2
 599.599609375 0 l 1
 466.299804688 0 l 1
 466.299804688 155.599609375 l 1
 199.599609375 66.7001953125 l 1
 199.599609375 0 l 1
 66.2998046875 0 l 1
 66.2998046875 433.299804688 l 2
 66.2998046875 483.299804688 100.099609375 520.099609375 133 533.299804688 c 2
 333 600 l 1
 533 533.299804688 l 2
 565.900390625 520.099609375 599.700195312 483.299804688 599.700195312 433.299804688 c 2
199.700195312 422.200195312 m 1
 199.700195312 200 l 1
 466.299804688 289 l 1
 466.299804688 422.299804688 l 1
 333 466.700195312 l 1
 199.700195312 422.200195312 l 1
599.700195312 666.700195312 m 1
 399.700195312 666.700195312 l 1
 333 733.299804688 l 1
 266.400390625 666.700195312 l 1
 66.400390625 666.700195312 l 1
 199.700195312 800 l 1
 466.400390625 800 l 1
 599.700195312 666.700195312 l 1
EndSplineSet
Validated: 1
EndChar

StartChar: atilde
Encoding: 161 227 161
Width: 666
VWidth: 0
Flags: W
HStem: 0 21G<66.2998 199.6 466.3 599.604> 666.7 133.3<66.4004 599.7>
VStem: 66.2998 133.4<0 66.7002 200 422.2> 466.3 133.3<0 155.6 289 422.3>
LayerCount: 2
Back
Fore
SplineSet
599.700195312 433.299804688 m 2
 599.599609375 0 l 1
 466.299804688 0 l 1
 466.299804688 155.599609375 l 1
 199.599609375 66.7001953125 l 1
 199.599609375 0 l 1
 66.2998046875 0 l 1
 66.2998046875 433.299804688 l 2
 66.2998046875 483.299804688 100.099609375 520.099609375 133 533.299804688 c 2
 333 600 l 1
 533 533.299804688 l 2
 565.900390625 520.099609375 599.700195312 483.299804688 599.700195312 433.299804688 c 2
199.700195312 422.200195312 m 1
 199.700195312 200 l 1
 466.299804688 289 l 1
 466.299804688 422.299804688 l 1
 333 466.700195312 l 1
 199.700195312 422.200195312 l 1
66.400390625 666.700195312 m 1
 66.400390625 800 l 1
 599.700195312 800 l 1
 599.700195312 666.700195312 l 1
 66.400390625 666.700195312 l 1
EndSplineSet
Validated: 1
EndChar

StartChar: adieresis
Encoding: 162 228 162
Width: 666
VWidth: 0
Flags: W
HStem: 0 21G<66.2998 199.6 466.3 599.604> 666.7 133.3<66.4004 199.7 466.4 599.7>
VStem: 66.2998 133.4<0 66.7002 200 422.2 666.7 800> 466.3 133.3<0 155.6 289 422.3 666.7 800>
LayerCount: 2
Back
Fore
SplineSet
66.400390625 666.700195312 m 1
 66.400390625 800 l 1
 199.700195312 800 l 1
 199.700195312 666.700195312 l 1
 66.400390625 666.700195312 l 1
466.400390625 666.700195312 m 1
 466.400390625 800 l 1
 599.700195312 800 l 1
 599.700195312 666.700195312 l 1
 466.400390625 666.700195312 l 1
599.700195312 433.299804688 m 2
 599.599609375 0 l 1
 466.299804688 0 l 1
 466.299804688 155.599609375 l 1
 199.599609375 66.7001953125 l 1
 199.599609375 0 l 1
 66.2998046875 0 l 1
 66.2998046875 433.299804688 l 2
 66.2998046875 483.299804688 100.099609375 520.099609375 133 533.299804688 c 2
 333 600 l 1
 533 533.299804688 l 2
 565.900390625 520.099609375 599.700195312 483.299804688 599.700195312 433.299804688 c 2
199.700195312 422.200195312 m 1
 199.700195312 200 l 1
 466.299804688 289 l 1
 466.299804688 422.299804688 l 1
 333 466.700195312 l 1
 199.700195312 422.200195312 l 1
EndSplineSet
Validated: 1
EndChar

StartChar: aring
Encoding: 163 229 163
Width: 666
VWidth: 0
Flags: W
HStem: 0 21G<66.2998 199.6 466.3 599.6> 733.3 66.7002<299.6 366.3>
VStem: 66.2998 133.3<0 66.7002 200 455.6> 233 66.5996<666.6 733.3> 366.3 66.7002<666.6 733.3> 466.3 133.3<0 155.6 288.9 455.6>
LayerCount: 2
Back
Fore
SplineSet
599.599609375 0 m 1
 466.299804688 0 l 1
 466.299804688 155.599609375 l 1
 199.599609375 66.7001953125 l 1
 199.599609375 0 l 1
 66.2998046875 0 l 1
 66.2998046875 466.599609375 l 2
 66.2998046875 516.599609375 100.099609375 553.400390625 133 566.599609375 c 2
 266 610.900390625 l 1
 247 623.5 233 645 233 666.599609375 c 2
 233 733.299804688 l 2
 233 766.700195312 266.299804688 800 299.599609375 800 c 2
 366.299804688 800 l 2
 399.599609375 800 433 766.700195312 433 733.299804688 c 2
 433 666.700195312 l 2
 433 645.099609375 418.900390625 623.5 400 611 c 1
 532.900390625 566.700195312 l 2
 565.799804688 553.5 599.599609375 516.700195312 599.599609375 466.700195312 c 2
 599.599609375 0 l 1
299.599609375 733.299804688 m 1
 299.599609375 666.599609375 l 1
 366.299804688 666.599609375 l 1
 366.299804688 733.299804688 l 1
 299.599609375 733.299804688 l 1
466.299804688 288.900390625 m 1
 466.299804688 455.599609375 l 1
 333 500 l 1
 199.599609375 455.599609375 l 1
 199.599609375 200 l 1
 466.299804688 288.900390625 l 1
EndSplineSet
Validated: 1
EndChar

StartChar: ae
Encoding: 164 230 164
Width: 666
VWidth: 0
Flags: W
HStem: 0 133.3<466.3 599.7> 666.7 133.3<466.3 599.7>
VStem: 66.2998 133.4<0 88.9004 222.2 622.2> 333 133.3<400 666.7>
LayerCount: 2
Back
Fore
SplineSet
599.700195312 666.700195312 m 1
 466.299804688 666.700195312 l 1
 466.299804688 400 l 1
 566.299804688 433.299804688 l 1
 566.299804688 300 l 1
 466.299804688 266.700195312 l 1
 466.299804688 133.299804688 l 1
 599.700195312 133.299804688 l 1
 599.700195312 0 l 1
 333 0 l 1
 333 133.299804688 l 1
 199.599609375 88.900390625 l 1
 199.599609375 0 l 1
 66.2998046875 0 l 1
 66.2998046875 633.299804688 l 2
 66.2998046875 683.299804688 100.099609375 720.099609375 133 733.299804688 c 2
 333 800 l 1
 599.700195312 800 l 1
 599.700195312 666.700195312 l 1
199.700195312 222.200195312 m 1
 333 266.700195312 l 1
 333 666.700195312 l 1
 199.700195312 622.200195312 l 1
 199.700195312 222.200195312 l 1
EndSplineSet
Validated: 1
EndChar

StartChar: ccedilla
Encoding: 165 231 165
Width: 666
VWidth: 0
Flags: W
HStem: 0 200<399.7 512.237> 0 66.5996<266.4 399.6> 266.7 199.3<466.4 599.7> 266.7 132.899<199.7 266.3 399.7 466.4> 599.4 200.6<466.4 599.7>
VStem: 66.2998 133.4<399.6 577.5> 266.3 133.4<200 266.7> 399.6 133.5<66.5996 133.3> 466.4 133.3<399.7 466 599.4 666.4 799.7 800>
LayerCount: 2
Back
Fore
SplineSet
466.400390625 799.700195312 m 1x5e80
 466.400390625 800 l 1
 599.700195312 800 l 1
 599.700195312 599.400390625 l 1
 466.400390625 599.400390625 l 1
 466.400390625 666.400390625 l 1
 199.700195312 577.5 l 1
 199.700195312 399.599609375 l 1
 466.400390625 399.599609375 l 1x5e80
 466.400390625 466 l 1
 599.700195312 466 l 1
 599.700195312 399.700195312 l 1
 599.700195312 266.700195312 l 1x2e80
 399.700195312 266.700195312 l 1
 399.700195312 200 l 1
 466.400390625 200 l 2x9e80
 499.799804688 200 533.099609375 166.599609375 533.099609375 133.299804688 c 2
 533.099609375 66.599609375 l 2x4d
 533.099609375 33.2001953125 499.700195312 0 466.400390625 0 c 2x8c80
 266.400390625 0 l 1
 266.400390625 66.599609375 l 1
 399.599609375 66.599609375 l 1
 399.599609375 133.299804688 l 1x4d
 266.299804688 133.299804688 l 1
 266.299804688 266.700195312 l 1
 166.299804688 266.700195312 l 2
 116.299804688 266.700195312 66.2998046875 316.700195312 66.2998046875 366.700195312 c 2
 66.2998046875 588.599609375 l 2
 66.2998046875 638.599609375 100.099609375 675.400390625 133 688.599609375 c 2
 466.400390625 799.700195312 l 1x5e80
EndSplineSet
Validated: 1
EndChar

StartChar: egrave
Encoding: 166 232 166
Width: 666
VWidth: 0
Flags: W
HStem: 0 133.3<199.7 599.7> 466.7 133.3<199.7 599.7> 666.7 133.3<199.7 266.4>
VStem: 66.4004 133.3<133.3 177.8 311.1 466.7>
LayerCount: 2
Back
Fore
SplineSet
66.400390625 0 m 1
 66.400390625 600 l 1
 599.700195312 600 l 1
 599.700195312 466.700195312 l 1
 199.700195312 466.700195312 l 1
 199.700195312 311.099609375 l 1
 466.400390625 400 l 1
 466.400390625 266.700195312 l 1
 199.700195312 177.799804688 l 1
 199.700195312 133.299804688 l 1
 599.700195312 133.299804688 l 1
 599.700195312 0 l 1
 66.400390625 0 l 1
399.700195312 666.700195312 m 1
 199.700195312 666.700195312 l 1
 66.400390625 800 l 1
 266.400390625 800 l 1
 399.700195312 666.700195312 l 1
EndSplineSet
Validated: 1
EndChar

StartChar: eacute
Encoding: 167 233 167
Width: 666
VWidth: 0
Flags: W
HStem: 0 133.3<199.7 599.7> 466.7 133.3<199.7 599.7> 666.7 133.3<399.7 466.4>
VStem: 66.4004 133.3<133.3 177.8 311.1 466.7>
LayerCount: 2
Back
Fore
SplineSet
66.400390625 0 m 1
 66.400390625 600 l 1
 599.700195312 600 l 1
 599.700195312 466.700195312 l 1
 199.700195312 466.700195312 l 1
 199.700195312 311.099609375 l 1
 466.400390625 400 l 1
 466.400390625 266.700195312 l 1
 199.700195312 177.799804688 l 1
 199.700195312 133.299804688 l 1
 599.700195312 133.299804688 l 1
 599.700195312 0 l 1
 66.400390625 0 l 1
266.400390625 666.700195312 m 1
 399.700195312 800 l 1
 599.700195312 800 l 1
 466.400390625 666.700195312 l 1
 266.400390625 666.700195312 l 1
EndSplineSet
Validated: 1
EndChar

StartChar: ecircumflex
Encoding: 168 234 168
Width: 666
VWidth: 0
Flags: W
HStem: 0 133.3<199.7 599.7> 466.7 133.3<199.7 599.7> 666.7 133.3<199.7 266.4 399.7 466.4>
VStem: 66.4004 133.3<133.3 177.8 311.1 466.7>
LayerCount: 2
Back
Fore
SplineSet
66.400390625 0 m 1
 66.400390625 600 l 1
 599.700195312 600 l 1
 599.700195312 466.700195312 l 1
 199.700195312 466.700195312 l 1
 199.700195312 311.099609375 l 1
 466.400390625 400 l 1
 466.400390625 266.700195312 l 1
 199.700195312 177.799804688 l 1
 199.700195312 133.299804688 l 1
 599.700195312 133.299804688 l 1
 599.700195312 0 l 1
 66.400390625 0 l 1
599.700195312 666.700195312 m 1
 399.700195312 666.700195312 l 1
 333 733.299804688 l 1
 266.400390625 666.700195312 l 1
 66.400390625 666.700195312 l 1
 199.700195312 800 l 1
 466.400390625 800 l 1
 599.700195312 666.700195312 l 1
EndSplineSet
Validated: 1
EndChar

StartChar: edieresis
Encoding: 169 235 169
Width: 666
VWidth: 0
Flags: W
HStem: 0 133.3<199.7 599.7> 466.7 133.3<199.7 599.7> 666.7 133.3<66.4004 199.7 466.4 599.7>
VStem: 66.4004 133.3<133.3 177.8 311.1 466.7 666.7 800> 466.4 133.3<666.7 800>
LayerCount: 2
Back
Fore
SplineSet
66.400390625 666.700195312 m 1
 66.400390625 800 l 1
 199.700195312 800 l 1
 199.700195312 666.700195312 l 1
 66.400390625 666.700195312 l 1
466.400390625 666.700195312 m 1
 466.400390625 800 l 1
 599.700195312 800 l 1
 599.700195312 666.700195312 l 1
 466.400390625 666.700195312 l 1
66.400390625 0 m 1
 66.400390625 600 l 1
 599.700195312 600 l 1
 599.700195312 466.700195312 l 1
 199.700195312 466.700195312 l 1
 199.700195312 311.099609375 l 1
 466.400390625 400 l 1
 466.400390625 266.700195312 l 1
 199.700195312 177.799804688 l 1
 199.700195312 133.299804688 l 1
 599.700195312 133.299804688 l 1
 599.700195312 0 l 1
 66.400390625 0 l 1
EndSplineSet
Validated: 1
EndChar

StartChar: igrave
Encoding: 170 236 170
Width: 666
VWidth: 0
Flags: W
HStem: 0 133.3<66.4004 266.3 399.7 599.7> 466.7 133.3<66.4004 266.3 399.7 599.7> 666.7 133.3<199.7 266.4>
VStem: 266.3 133.4<133.3 466.7>
LayerCount: 2
Back
Fore
SplineSet
66.400390625 600 m 1
 599.700195312 600 l 1
 599.700195312 466.700195312 l 1
 399.700195312 466.700195312 l 1
 399.700195312 133.299804688 l 1
 599.700195312 133.299804688 l 1
 599.700195312 0 l 1
 66.400390625 0 l 1
 66.400390625 133.299804688 l 1
 266.299804688 133.299804688 l 1
 266.299804688 466.700195312 l 1
 66.400390625 466.700195312 l 1
 66.400390625 600 l 1
399.700195312 666.700195312 m 1
 199.700195312 666.700195312 l 1
 66.400390625 800 l 1
 266.400390625 800 l 1
 399.700195312 666.700195312 l 1
EndSplineSet
Validated: 1
EndChar

